<svg xmlns="http://www.w3.org/2000/svg" xmlns:xlink="http://www.w3.org/1999/xlink" width="290" height="165" viewBox="0 0 290 165"><defs><style>.a,.m,.n,.p,.r{fill:none;}.b{fill:#769cc7;}.c{clip-path:url(#a);}.d{clip-path:url(#b);}.e{fill:#da8181;}.f{fill:#335f60;}.g{fill:#fff;}.h{fill:#f4cfb5;}.i{fill:#807b63;opacity:0.4;mix-blend-mode:multiply;isolation:isolate;}.j{fill:#211d20;}.k,.q{fill:#46130a;}.k,.m,.n,.p,.r{stroke:#46130a;}.k,.n,.p,.r{stroke-miterlimit:10;}.l{fill:#61362e;}.m{stroke-linecap:round;stroke-linejoin:round;}.m,.r{stroke-width:1.5px;}.n{stroke-width:1.6px;}.o{fill:#dd5454;}</style><clipPath id="a"><rect class="a" width="290" height="165" transform="translate(980 1707)"/></clipPath><clipPath id="b"><rect class="b" width="123" height="165" transform="translate(1147 1744)"/></clipPath></defs><g class="c" transform="translate(-980 -1707)"><g class="d" transform="translate(0 -37)"><g transform="translate(1158.336 1761.5)"><g transform="translate(24.709 101.61)"><g transform="translate(36.174 149.775)"><path class="e" d="M-786.207,808.887c-.812-2.161-.709-20.826-.709-20.826l15.151-1.165s.564,18.095,1.052,18.374C-770.709,806.111-762.638,818.425-786.207,808.887Z" transform="translate(786.92 -786.896)"/></g><path class="f" d="M-792.712,587.649l23.149-.571,3.135-154.452-31.482-1.268Z" transform="translate(824.729 -429.874)"/><g transform="translate(0.889 149.775)"><path class="e" d="M-685.492,808.887c.813-2.161.709-20.826.709-20.826l-15.149-1.165s-.569,18.095-1.052,18.374C-700.989,806.111-709.061,818.425-685.492,808.887Z" transform="translate(702.322 -786.896)"/></g><path class="f" d="M-710.4,584.093l-23.151-.572.751-154.451,30.706-1.269Z" transform="translate(733.548 -427.801)"/></g><path class="g" d="M-747.7,355.912l5.194-40.872c0-18.576-4.211-33.635-33.634-33.635h0c-35.657,0-33.633,15.059-33.633,33.635l3.708,40.872" transform="translate(830.476 -240.855)"/><path class="g" d="M-741.064,214.85a1.09,1.09,0,0,0,1.091,1.089,1.088,1.088,0,0,0,1.09-1.089,1.088,1.088,0,0,0-1.09-1.089A1.089,1.089,0,0,0-741.064,214.85Z" transform="translate(798.184 -201.425)"/><g transform="translate(32.55 0)"><path class="h" d="M-741.529,258.79s1.224,8.292,1.526,12.885c0,0,2.928,7.2,15.169-1.351,0,0-.652-6.069-1.607-13.833" transform="translate(751.779 -226.332)"/><path class="i" d="M-716.976,263.52s2.383,2.136,5.774,0l-5.522,7.657Z" transform="translate(727.906 -230.43)"/><path class="h" d="M-728.571,224.185c-2.77.692-6.861,1.62-9.2.075-5.65-3.728-4.027-13.96-3.953-17.123.059-2.562.295-6.049,2.015-8.138,1.408-1.7,3.859-1.6,5.854-1.9a21.22,21.22,0,0,1,7.544-.213,18.528,18.528,0,0,1,7.546,3.748,98.558,98.558,0,0,0-1.645,21.375c0,.008-7.073,1.881-7.636,2.036C-728.213,224.094-728.39,224.138-728.571,224.185Z" transform="translate(745.905 -191.436)"/><path class="j" d="M-720.623,203.738c-3.586-2.25-3.426-4.112-3.938-8.738-1.546,2.743-11.665,1.907-14.051,1.2-3.229-.956-6.6-3.252-6.494-6.989.1-3.476,3.385-5.493,6.672-4.934,2.55.431,3.709,2.585,5.8,3.763,4.435,2.5,9.193-3.1,13.16,1.479,2.74,3.166,3.908,10.762,1.511,14.17" transform="translate(745.109 -184.184)"/><g transform="translate(6.421 17.596)"><path class="k" d="M-716.136,228.7c.859-.692,1.242,1.14,1.06,1.684-.437,1.306-1.378-.451-1.147-1.429Z" transform="translate(725.016 -227.639)"/><path class="k" d="M-694.811,227.373c.758-.61,1.1,1,.935,1.485-.382,1.154-1.216-.4-1.011-1.26Z" transform="translate(694.919 -226.876)"/><g transform="translate(0.827)"><path class="l" d="M-702.613,246.461c.013-.012.012.119.014.143A.347.347,0,0,1-702.613,246.461Z" transform="translate(706.065 -238.079)"/><path class="l" d="M-701.99,245.675l.007.053-.044-.129Z" transform="translate(705.204 -237.58)"/><path class="l" d="M-701.833,245.68c.006-.224.085.03.12-.052l0-.051.03.178C-701.73,245.73-701.8,245.615-701.833,245.68Z" transform="translate(704.82 -237.567)"/><path class="l" d="M-701.308,246.911c0-.088-.033-.073.029-.03l0,.022A.037.037,0,0,0-701.308,246.911Z" transform="translate(704.204 -238.307)"/><path class="l" d="M-701.326,246.983c.025,0-.012.074,0,0Z" transform="translate(704.247 -238.386)"/><path class="l" d="M-701.1,246.884l.039.075c0,.052-.033.066-.019.1C-701.118,247.021-701.114,246.969-701.1,246.884Z" transform="translate(703.9 -238.329)"/><path class="l" d="M-700.962,246.5l.02.032C-700.944,246.552-700.948,246.56-700.962,246.5Z" transform="translate(703.719 -238.104)"/><path class="l" d="M-701.019,246.568l-.041-.067c0-.036,0-.108.018.024C-701.049,246.46-701.038,246.523-701.019,246.568Z" transform="translate(703.838 -238.075)"/><path class="l" d="M-701.221,246.431a.161.161,0,0,0,0-.157C-701.157,246.3-701.155,246.457-701.221,246.431Z" transform="translate(704.057 -237.973)"/><path class="l" d="M-701.507,245.181l.019-.067.026.073C-701.475,245.151-701.5,245.25-701.507,245.181Z" transform="translate(704.467 -237.297)"/><path class="l" d="M-700.592,246.928c0-.047.007-.127.006-.188l.029.053A.283.283,0,0,0-700.592,246.928Z" transform="translate(703.18 -238.245)"/><path class="l" d="M-700.48,246.626l-.043-.08C-700.488,246.534-700.48,246.573-700.48,246.626Z" transform="translate(703.074 -238.13)"/><path class="l" d="M-701.022,245.9l.071.167-.083-.169Z" transform="translate(703.759 -237.757)"/><path class="l" d="M-700.181,247.142l.026.109-.046-.165Z" transform="translate(702.614 -238.447)"/><path class="l" d="M-699.8,247.177c.02.091-.024.154,0,.21-.032-.016-.058-.095-.081-.165C-699.864,247.261-699.837,247.251-699.8,247.177Z" transform="translate(702.128 -238.499)"/><path class="l" d="M-699.672,247.038a.693.693,0,0,1,.038.1A.356.356,0,0,1-699.672,247.038Z" transform="translate(701.873 -238.418)"/><path class="l" d="M-700.234,246.612a.347.347,0,0,1-.027.137l.011-.134Z" transform="translate(702.719 -238.17)"/><path class="l" d="M-700.192,246.608v0l-.033.009Z" transform="translate(702.662 -238.168)"/><path class="l" d="M-700.267,246.594h0C-700.27,246.582-700.268,246.577-700.267,246.594Z" transform="translate(702.756 -238.153)"/><path class="l" d="M-700.6,245.837a.355.355,0,0,1-.038-.268A1.537,1.537,0,0,0-700.6,245.837Z" transform="translate(703.242 -237.562)"/><path class="l" d="M-700.417,246.163l.04-.033a.433.433,0,0,0,.008.124Z" transform="translate(702.919 -237.889)"/><path class="l" d="M-700.3,246.108l.022.042-.015.012Z" transform="translate(702.782 -237.877)"/><path class="l" d="M-699.75,246.582c-.02-.058-.04-.063-.064-.073a.113.113,0,0,1,.077-.04C-699.734,246.512-699.723,246.588-699.75,246.582Z" transform="translate(702.031 -238.087)"/><path class="l" d="M-699.994,246.628l0-.007C-700,246.609-699.994,246.606-699.994,246.628Z" transform="translate(702.37 -238.17)"/><path class="l" d="M-698.908,246.489l.009-.023,0,.023Z" transform="translate(700.819 -238.085)"/><path class="l" d="M-699.9,246.4c.018-.025.03.007.041.048a.078.078,0,0,0-.045-.023C-699.91,246.4-699.911,246.391-699.9,246.4Z" transform="translate(702.202 -238.04)"/><path class="l" d="M-699.487,246.784a.622.622,0,0,1,.049-.073C-699.452,246.753-699.484,246.819-699.487,246.784Z" transform="translate(701.6 -238.228)"/><path class="l" d="M-699.98,246.722l0,.006C-699.983,246.757-699.983,246.742-699.98,246.722Z" transform="translate(702.345 -238.234)"/><path class="l" d="M-699.961,246.608a.482.482,0,0,1-.027-.082.152.152,0,0,1,.033.045C-699.957,246.58-699.959,246.595-699.961,246.608Z" transform="translate(702.326 -238.12)"/><path class="l" d="M-699.134,244.483c-.026.123,0,.239.06.111a2.015,2.015,0,0,1-.131.716.264.264,0,0,0-.028-.181c.033-.063.137-.144.113-.259-.05-.068-.056.038-.1.1.053-.149-.03-.226.04-.447l.025.082A.456.456,0,0,1-699.134,244.483Z" transform="translate(701.125 -236.929)"/><path class="l" d="M-699.116,246.468l.022.016a.553.553,0,0,0-.1.158.246.246,0,0,1-.033-.153l.121,0Z" transform="translate(701.148 -238.086)"/><path class="l" d="M-699.512,246.042c-.015-.135-.061-.194-.023-.338.057.01.039.113.071.172-.1-.035.031.076-.047.151a.138.138,0,0,0,.054.037l-.055.061,0-.009h0v0c.005-.017.008-.027,0-.018l0,0c0-.019,0-.035,0-.051-.034.027-.007.035,0,.051v.02h0l-.109-.076C-699.593,246.021-699.564,246.026-699.512,246.042Z" transform="translate(701.673 -237.641)"/><path class="l" d="M-700.42,244.88a.167.167,0,0,0,0,.031C-700.427,244.895-700.429,244.884-700.42,244.88Z" transform="translate(702.974 -237.161)"/><path class="l" d="M-700.458,245.006c.006.018.013.072.03.058.013-.041,0-.065,0-.109a.2.2,0,0,1,.011.162l-.006-.018a.724.724,0,0,0-.055.235C-700.478,245.213-700.473,245.126-700.458,245.006Z" transform="translate(702.985 -237.204)"/><path class="l" d="M-699.892,245.468l-.066-.067.032-.116,0,.07C-699.891,245.328-699.9,245.414-699.892,245.468Z" transform="translate(702.25 -237.397)"/><path class="l" d="M-698.8,246.59l-.009.142-.024-.2Z" transform="translate(700.689 -238.121)"/><path class="l" d="M-698.491,246.6l-.023.121-.018-.077Z" transform="translate(700.255 -238.163)"/><path class="l" d="M-700.421,236.774h.039A.113.113,0,0,1-700.421,236.774Z" transform="translate(702.933 -232.435)"/><path class="l" d="M-700.161,237.035l-.057-.022C-700.185,237.021-700.162,237.029-700.161,237.035Z" transform="translate(702.627 -232.575)"/><path class="l" d="M-694.664,241.463c-.11-.044-.282-.107-.144-.09l.133.023C-694.7,241.422-694.69,241.444-694.664,241.463Z" transform="translate(694.895 -235.115)"/><path class="l" d="M-697.612,238.651l.036.023-.126-.034Z" transform="translate(698.994 -233.523)"/><path class="l" d="M-698.808,239.059l-.068-.064A.358.358,0,0,1-698.808,239.059Z" transform="translate(700.715 -233.73)"/><path class="l" d="M-701.665,235.379l.134.038C-701.545,235.447-701.6,235.4-701.665,235.379Z" transform="translate(704.601 -231.622)"/><path class="l" d="M-695.753,245.348a.185.185,0,0,1-.128,0C-695.791,245.329-695.678,245.265-695.753,245.348Z" transform="translate(696.386 -237.409)"/><path class="l" d="M-697.329,235.457a.2.2,0,0,1,.081.02A.154.154,0,0,1-697.329,235.457Z" transform="translate(698.509 -231.668)"/><path class="l" d="M-695.494,245.215l.037-.005a.087.087,0,0,0,.027.084C-695.493,245.308-695.546,245.3-695.494,245.215Z" transform="translate(695.935 -237.353)"/><path class="l" d="M-703.493,229.416l-.013-.011C-703.489,229.41-703.489,229.413-703.493,229.416Z" transform="translate(707.329 -228.14)"/><path class="l" d="M-700.82,226.82c-.009,0-.012.014-.016.023C-700.843,226.837-700.842,226.83-700.82,226.82Z" transform="translate(703.546 -226.633)"/><path class="l" d="M-697.288,246.47c.023.015,0,.015,0,0Z" transform="translate(698.523 -238.087)"/><path class="l" d="M-698.142,245.281a.233.233,0,0,1,.019-.063A.27.27,0,0,0-698.142,245.281Z" transform="translate(699.724 -237.358)"/><path class="l" d="M-696.8,243.634h0C-696.769,243.621-696.775,243.624-696.8,243.634Z" transform="translate(697.818 -236.429)"/><path class="l" d="M-697.375,246.362a.186.186,0,0,1-.052.028A.245.245,0,0,1-697.375,246.362Z" transform="translate(698.677 -238.024)"/><path class="l" d="M-697.415,246.49l.029-.006C-697.392,246.506-697.4,246.518-697.415,246.49Z" transform="translate(698.683 -238.095)"/><path class="l" d="M-697.3,246.429a.08.08,0,0,0,.049,0,.041.041,0,0,0-.015.018A.306.306,0,0,0-697.3,246.429Z" transform="translate(698.503 -238.063)"/><path class="l" d="M-701.524,232.272l-.01-.008C-701.476,232.27-701.487,232.274-701.524,232.272Z" transform="translate(704.509 -229.807)"/><path class="l" d="M-698.328,240.908h-.007l0,0Z" transform="translate(700.011 -234.844)"/><path class="l" d="M-698.089,240.785c-.166-.026-.147-.011-.114,0l-.382-.083.249.036Z" transform="translate(699.875 -234.727)"/><path class="l" d="M-700.892,230.552l.093.088c.2.037.156-.025.3.082-.389-.171-.108.132-.5-.039l.07.062c0-.009.023,0,.022-.008.163.133-.3-.091-.27,0a.172.172,0,0,0,.122.082l-.118.006c0,.018.069.045.068.027l-.065.061.012.005c-.066-.017-.17-.035-.216-.042.047.045.045.009.091.036h-.113c.093.063.206.073.2.038.368.214-.113-.01.074.176l.067-.017c.208.125.115.118.232.224-.067-.043-.306-.244-.422-.243.024.026.03.049-.059.038.138.062.093.07.073.1l.184.081a1.052,1.052,0,0,1-.249-.055c0,.043.14.114.255.176,0,.07-.208-.141-.273-.089.048.078-.042.078-.176.086.048.06.115.044.161.079l-.158-.036c0,.009.046.026.07.035-.068,0-.184-.078-.251-.062-.206-.078.261.209.01.156a1.527,1.527,0,0,0,.184.077,1.421,1.421,0,0,1-.361-.024l.1.1a.963.963,0,0,0-.456-.137l-.14-.095-.125.021a.645.645,0,0,0,.174.063l-.049-.007a.75.75,0,0,0,.28.111l-.1-.07a2.328,2.328,0,0,1,.355.119.125.125,0,0,0-.058,0,.4.4,0,0,1,.078.028c.018.01-.025,0-.076-.01l.2.1-.083-.03.1.131a1.864,1.864,0,0,0-.68-.044,3.052,3.052,0,0,1,.432.16c-.183-.1.107-.035.087-.1.01.032.1.061.13.067l-.206.012c.148.056.1.06.158.1-.286-.128-.217-.015-.319-.015.1.038.2.067.192.019.206.123-.367-.07-.195.043.006-.009-.008-.02.045-.006-.1-.008-.048.073.044.089l0-.009c.017.072-.05.172-.312.12l.367.08s-.223-.035-.445-.053a4.165,4.165,0,0,0-.45-.01c.225.028.76.131.893.119.031.015.067.028-.017.035a2.616,2.616,0,0,0-.347-.048c.171.061.173,0,.224.062a.72.72,0,0,1,.12.041.966.966,0,0,0-.4,0c.054,0,.352.033.39.024l-.356.046a1.445,1.445,0,0,1,.394.055c-.068-.02,0,.08-.036.082A.345.345,0,0,1-702,232.8c.046.068-.5.011-.493.1a2.24,2.24,0,0,1,.493.025,3.032,3.032,0,0,0-1.036.182l.1.008-.126.085a6.306,6.306,0,0,1,1.1-.249c.081.015.122.005.11.024a.372.372,0,0,0,.156-.02c0,.007.06.025.06.025a3.145,3.145,0,0,0-.4.08,1.871,1.871,0,0,1,.231-.077c-.212,0-.615.089-.587.154.085,0,.389-.08.461-.088-.076.015-.148.064-.095.056l.119-.041c.081-.005-.294.105-.086.076.013.007.283-.068.152-.025-.256.078-1.028.3-1.19.381a1.018,1.018,0,0,0,.345,0c.184-.053.463-.225.632-.271a1.276,1.276,0,0,0-.157.079c.052-.01.186-.082.161-.048-.224.1.022.04-.188.1-.06.057.044.008.045.04a1.589,1.589,0,0,0-.5.359,1.328,1.328,0,0,1,.142-.073c.038.067.176.018.213.068a.819.819,0,0,0,.2-.139c-.03.035-.089.1-.078.109.19-.128-.007-.041.211-.2a.572.572,0,0,0-.159.231c-.166.151-.09,0-.036-.077-.261.219-.4.411-.405.559.019.09.144-.107.129-.072.134.036-.19.416.042.323a2.038,2.038,0,0,0,.277-.377c-.01-.069-.14.06-.172.04l.092-.048c.019-.051.015-.094-.034-.062.1-.079.158-.029.246-.025a.168.168,0,0,0,.114-.04.456.456,0,0,1-.062.175l-.017-.027c-.095.115-.031.18-.1.228,0,.1-.007.247.093.193l.083-.176c-.021.052-.085.1-.08.038,0,.087.189-.222.13.021l-.091.115c.01.1.021.314.111.261-.083.179-.008-.023-.125.185.125-.252-.193-.03-.025-.289-.141.229-.124.081-.284.264.03-.058.076-.1,0-.093a.484.484,0,0,0,.011-.054l-.006,0,.007-.005c0-.01,0-.012,0,0a.322.322,0,0,0,.071-.08c.034-.14-.052-.157-.042-.23-.046.017-.024.068-.075.122l.015-.113a1.284,1.284,0,0,1-.147.163.117.117,0,0,0-.031.049.071.071,0,0,0,0,.06l-.034-.009-.041-.016c-.085.047-.163.04-.162-.025-.053.007.016-.165-.025-.064l-.025-.061a.3.3,0,0,0-.014-.072l-.025.025c-.053-.028-.061-.105-.088-.159s-.074-.086-.212-.063c0-.053.013-.109-.06-.138l-.108.058c0-.063-.175-.078-.077-.162-.323.111-.161-.213-.233-.276l.15-.063c-.028-.055.015-.133.072-.227l.139-.035c.115-.09-.11-.129-.082-.242-.055.015-.043.041-.012.053-.155-.035-.091-.12-.016-.189s.16-.13.052-.181c.054-.026.04-.044.007-.063,0,0,0,0-.009.006a.025.025,0,0,1,0-.011.723.723,0,0,1-.07-.04.35.35,0,0,1,.072.034.161.161,0,0,1,.067-.077l-.149-.024s0,0,.006-.007c-.051-.036.075-.018.185.008a.356.356,0,0,1,.1-.029c-.237-.055.09-.055-.168-.1.127,0,.1-.078.368-.067-.034,0-.05-.01-.054,0-.016-.013-.033-.027-.028-.038s.015-.005.049-.026l-.188-.038s.266-.038.266-.038a.443.443,0,0,0-.324-.067c.24-.067.1-.08.332-.1l-.121-.027c.012-.025.184-.021.09-.063-.1-.059-.091-.136-.071-.217a.262.262,0,0,0-.028-.264c.33.157-.13-.121.136-.023a.5.5,0,0,0-.194-.082c.106-.033-.086-.148.152-.1-.077-.04-.123-.034-.167-.06.019,0,.077.008.032-.018a.207.207,0,0,0-.11-.022c.041-.061.289.034.521.126-.095-.078-.073-.088.087-.048-.07-.043-.141-.1-.185-.067,0-.028-.052-.184.133-.106-.043-.027,0-.036.024-.033.01-.054,0-.066.034-.106l.025.027c.229.078.067-.019.11-.045l-.023-.009c-.12-.159.092,0-.05-.173l.135.066c.3.123-.139-.155,0-.155l.07.053c.112.018-.366-.257-.39-.3-.023-.018-.045-.009-.068-.009-.14-.151.184.071.25.036-.092-.054-.252-.1-.254-.143-.07-.054.362.036.2-.1a.429.429,0,0,0,.206.09c.044-.026-.234-.231.016-.159a.319.319,0,0,0-.055-.033.587.587,0,0,1,.279-.009c-.459-.242.312-.076-.123-.274l.064-.078-.046-.018c0-.07.111-.043.225-.015a.243.243,0,0,0-.092-.045c-.05-.123-.028-.123.221-.095l-.138-.071c.09.018-.167-.221.034-.227a.279.279,0,0,0-.068-.02c.208-.018-.294-.4.237-.2l.154,0c.005.1.229.088.3.158.044-.018-.12-.149-.163-.123l.023.018c-.275-.106-.052-.14-.236-.219.082-.148,0-.364.047-.512l.2.106.009-.055c-.043-.034-.157-.087-.164-.048-.111-.069.126-.018.172,0-.055-.106-.257-.076-.253-.1l.028-.023.022.017c.1.013.188.049.2,0-.031-.045-.125-.068-.128-.083s-.02-.013,0-.019l.009-.07.156.095c.093.006.015-.063.193.044-.274-.164-.009-.281-.089-.344.139.01.152-.031.157-.085.031.026.216.107.21.056-.4-.137-.14-.143-.409-.284.175.1.09-.1.338.047-.019-.047-.146-.057-.229-.118.182-.026-.028-.218.055-.3a.8.8,0,0,0,.211.067l-.242-.143c.033-.011.307.083.139-.014.042.02.105.05.127.042-.187-.274.342-.358-.1-.671.1.049.113.035.12.016a1.3,1.3,0,0,0,.205.049l-.186-.124c.206.026.032-.082.229-.055l-.041.02a6.392,6.392,0,0,1,.794.2c-.269-.01.357.211-.03.206.055.032.1.008.162.034-.129-.01-.16.007-.116.063l.032,0c-.065.111.043.2.085.358l-.139-.053c.011.035.054.055.085.079-.224-.033.011-.086-.234-.128.279.129-.058.2.259.329-.013.044-.158-.066-.171-.023l.084.04-.117-.027c.01.034.114.086.188.113-.006-.01.028-.013.037-.018.09.072-.071.093-.041.117l-.04-.061c-.12.091-.06.272-.278.316l-.062-.033c-.152.038.047.094-.044.165l.017,0c-.072-.006-.113.005-.116.033.085.007.131.1.227.1-.166.038-.12,0-.385-.033l.1.057c-.105-.019-.157-.038-.2-.005.107,0,.152.1.291.1.2.19-.294.043.032.227-.314-.079-.131-.149-.205-.151-.089-.06-.236-.056-.219-.014,0,.032.36.208.322.281,0-.008.025,0,.026-.007.064.06-.125.013-.018.1-.186-.056-.008.049-.239-.042l.082-.046c-.076.014-.359-.063-.256.055a.673.673,0,0,0,.156.023c.06.047-.059.017,0,.066.23.091.085-.062.276-.03.088.061-.2.009.057.093-.327-.1.008.091-.253.039l.138.055c-.026,0-.1-.012-.1,0l.189.049c-.168-.023.1.137,0,.141.04-.081-.156-.09-.241-.167-.226.022.331.213.216.3.026-.007-.056-.093-.13-.1a.4.4,0,0,0,.123.13c-.061.063-.134-.073-.232-.078.155.1-.083.007-.151.017l.138.061c.051.124-.3-.1-.224.019l.206.053-.067.018.161.061c-.135-.008-.111.019-.086.081-.093-.053-.252-.106-.274-.071.071.063.138.045.094.089.092.027.206.062.089-.018l.137.044c.083.07-.01.079-.019.1a.051.051,0,0,0-.023-.035l-.225-.008a.3.3,0,0,0,.137.053c-.022.009-.09-.009-.113.009a.832.832,0,0,0,.3.089l-.157.018c.047.027.117.1.162.107.047.07-.262,0-.2.1a.134.134,0,0,0-.067-.006c0,.062.119.169-.061.158l.185.125c-.067.026-.231-.16-.343-.117-.089.026.161.1.209.143-.113-.019-.34-.065-.2.06C-700.891,230.587-700.914,230.561-700.892,230.552Zm-.349.531c.033,0,.133.02.055-.025C-701.35,231-701.278,231.044-701.241,231.084Zm-.711.717c.05.01.032-.011-.015-.048C-701.983,231.759-701.983,231.773-701.953,231.8Zm-.588,2.852,0-.007C-702.609,234.676-702.582,234.663-702.541,234.653Zm.112-.019a.117.117,0,0,1-.031.056c.016-.036,0-.046-.024-.046C-702.456,234.613-702.431,234.594-702.428,234.634Zm.979-6.249.032.025C-701.368,228.4-701.406,228.4-701.449,228.385Z" transform="translate(703.568 -226.477)"/><path class="l" d="M-698.657,239.044a.6.6,0,0,0-.073-.037A.149.149,0,0,1-698.657,239.044Z" transform="translate(700.503 -233.737)"/><path class="l" d="M-701.342,235.359v0l.026.009Z" transform="translate(704.253 -231.609)"/><path class="l" d="M-698.058,242.509a.589.589,0,0,0-.082.021A.179.179,0,0,1-698.058,242.509Z" transform="translate(699.658 -235.778)"/><path class="l" d="M-697.886,246.684l-.045-.053c.026.015.048-.014.07-.033C-697.875,246.632-697.9,246.677-697.886,246.684Z" transform="translate(699.374 -238.162)"/><path class="l" d="M-699.391,244.751c0,.019.012,0,.015.021l-.007.07C-699.407,244.837-699.416,244.78-699.391,244.751Z" transform="translate(701.503 -237.085)"/><path class="l" d="M-698.583,245.576c.043-.12.058-.076.084-.05,0,0,0,0-.005,0C-698.543,245.7-698.566,245.638-698.583,245.576Z" transform="translate(700.284 -237.52)"/><path class="l" d="M-698.669,245.58a.026.026,0,0,0,.029.006C-698.654,245.656-698.656,245.6-698.669,245.58Z" transform="translate(700.46 -237.569)"/><path class="l" d="M-697.132,246.164c.035-.023-.068.147-.033.1C-697.226,246.418-697.19,246.057-697.132,246.164Z" transform="translate(698.331 -237.897)"/><path class="l" d="M-698.688,244.734l-.057.149.025-.123Z" transform="translate(700.541 -237.076)"/><path class="l" d="M-698.292,244.854l.062-.031a.08.08,0,0,0-.011.052C-698.271,244.874-698.313,244.9-698.292,244.854Z" transform="translate(699.896 -237.127)"/><path class="l" d="M-698.331,244.947c.015,0,.027.006.025.031A.042.042,0,0,1-698.331,244.947Z" transform="translate(699.987 -237.2)"/><path class="l" d="M-698.6,244.6l-.023.03-.033.006Z" transform="translate(700.412 -236.999)"/><path class="l" d="M-697.183,244.41l-.008-.057c.034-.04.068-.057.067-.033A.187.187,0,0,1-697.183,244.41Z" transform="translate(698.328 -236.828)"/><path class="l" d="M-698.054,243.744a1.381,1.381,0,0,0-.1.1l.139-.17Z" transform="translate(699.62 -236.457)"/><path class="l" d="M-698.2,243.472c.039-.048.091-.148.11-.121C-698.133,243.4-698.141,243.45-698.2,243.472Z" transform="translate(699.716 -236.266)"/><path class="l" d="M-696.474,242.914l0,.011-.314.114Z" transform="translate(697.511 -236.015)"/><path class="l" d="M-698.554,241.724c.073.028-.2-.006-.106.023-.077,0-.075-.025-.141-.021C-698.719,241.712-698.763,241.7-698.554,241.724Z" transform="translate(700.418 -235.313)"/><path class="l" d="M-698.129,241.748l-.05.008A.329.329,0,0,1-698.129,241.748Z" transform="translate(699.745 -235.335)"/><path class="l" d="M-700.531,226.444l-.059-.038.1.036Z" transform="translate(703.111 -226.391)"/><path class="l" d="M-700.877,226.413l-.2-.041.185.013C-700.9,226.391-700.922,226.4-700.877,226.413Z" transform="translate(703.702 -226.372)"/><path class="l" d="M-700.591,237.923l-.045-.018c-.047-.026-.047-.035-.048-.053Z" transform="translate(703.253 -233.064)"/><path class="l" d="M-700.643,236.769v.009l-.161-.09Z" transform="translate(703.354 -232.386)"/><path class="l" d="M-701.6,236.221c0,.018-.045.018-.045.035C-701.6,236.239-701.809,236.123-701.6,236.221Z" transform="translate(704.686 -232.09)"/></g></g></g><g transform="translate(55.27 15.626)"><path class="h" d="M-746.768,224.034s1.963-3.775,4.786-1.828,1.9,6.824-5.01,7.634" transform="translate(746.992 -221.648)"/><line class="m" x1="1.652" y2="1.534" transform="translate(1.736 2.863)"/></g><g transform="translate(44.317 26.077)"><path class="l" d="M-705.189,252.143c-.009,0,.015-.037.018-.044C-705.165,252.113-705.2,252.152-705.189,252.143Z" transform="translate(705.191 -249.849)"/><path class="l" d="M-705.323,252.52l.006-.017,0,.048Z" transform="translate(705.394 -250.085)"/><path class="l" d="M-705.5,252.584c-.04.063-.035-.03-.066-.015l-.01.014.016-.058C-705.54,252.544-705.526,252.595-705.5,252.584Z" transform="translate(705.682 -250.097)"/><path class="l" d="M-705.839,252.369c-.014.026,0,.029-.016,0l0-.006A.02.02,0,0,0-705.839,252.369Z" transform="translate(706.137 -250.005)"/><path class="l" d="M-705.839,252.352c-.01-.007.016-.019,0,0Z" transform="translate(706.126 -249.991)"/><path class="l" d="M-705.984,252.368l-.006-.028c.01-.015.024-.015.023-.028C-705.957,252.329-705.965,252.344-705.984,252.368Z" transform="translate(706.317 -249.973)"/><path class="l" d="M-705.928,252.556l0-.013C-705.928,252.538-705.926,252.536-705.928,252.556Z" transform="translate(706.257 -250.106)"/><path class="l" d="M-705.918,252.486l.009.027c-.006.01-.015.033,0-.01C-705.92,252.524-705.917,252.5-705.918,252.486Z" transform="translate(706.234 -250.075)"/><path class="l" d="M-705.832,252.5c-.015.013-.03.019-.023.048C-705.88,252.525-705.857,252.48-705.832,252.5Z" transform="translate(706.134 -250.08)"/><path class="l" d="M-705.5,252.825l-.02.014v-.028C-705.521,252.825-705.491,252.8-705.5,252.825Z" transform="translate(705.658 -250.264)"/><path class="l" d="M-706.163,252.426c0,.015-.018.039-.025.058l-.006-.02A.082.082,0,0,0-706.163,252.426Z" transform="translate(706.602 -250.04)"/><path class="l" d="M-706.152,252.564l.009.031C-706.159,252.594-706.158,252.58-706.152,252.564Z" transform="translate(706.566 -250.12)"/><path class="l" d="M-705.874,252.682l-.01-.062.015.064Z" transform="translate(706.179 -250.153)"/><path class="l" d="M-706.351,252.413v-.038l0,.058Z" transform="translate(706.853 -250.01)"/><path class="l" d="M-706.527,252.418c0-.032.022-.047.02-.067a.134.134,0,0,1,.016.062C-706.5,252.4-706.508,252.4-706.527,252.418Z" transform="translate(707.069 -249.996)"/><path class="l" d="M-706.536,252.538a.218.218,0,0,1-.006-.038A.116.116,0,0,1-706.536,252.538Z" transform="translate(707.12 -250.083)"/><path class="l" d="M-706.292,252.587c0-.009.013-.033.025-.04l-.019.041Z" transform="translate(706.747 -250.11)"/><path class="l" d="M-706.279,252.646h0l.013,0Z" transform="translate(706.741 -250.167)"/><path class="l" d="M-706.231,252.642h0S-706.233,252.647-706.231,252.642Z" transform="translate(706.685 -250.166)"/><path class="l" d="M-706.009,252.711c0,.026.016.059-.017.088C-706.024,252.768-706.006,252.751-706.009,252.711Z" transform="translate(706.374 -250.206)"/><path class="l" d="M-706.148,252.713l-.021,0a.1.1,0,0,0,.011-.04Z" transform="translate(706.577 -250.187)"/><path class="l" d="M-706.183,252.778l-.006-.017h.008Z" transform="translate(706.618 -250.234)"/><path class="l" d="M-706.483,252.664a.036.036,0,0,0,.021.032.05.05,0,0,1-.035,0C-706.5,252.685-706.494,252.659-706.483,252.664Z" transform="translate(707.028 -250.178)"/><path class="l" d="M-706.35,252.666l0,0S-706.352,252.673-706.35,252.666Z" transform="translate(706.853 -250.18)"/><path class="l" d="M-706.731,252.779l0,.008v-.008Z" transform="translate(707.395 -250.246)"/><path class="l" d="M-706.4,252.738c-.01.006-.013-.006-.014-.02a.05.05,0,0,0,.017.013C-706.4,252.738-706.4,252.741-706.4,252.738Z" transform="translate(706.927 -250.21)"/><path class="l" d="M-706.577,252.647a.144.144,0,0,1-.02.022C-706.59,252.656-706.577,252.635-706.577,252.647Z" transform="translate(707.185 -250.167)"/><path class="l" d="M-706.369,252.637v0C-706.365,252.626-706.367,252.631-706.369,252.637Z" transform="translate(706.88 -250.159)"/><path class="l" d="M-706.366,252.646a.212.212,0,0,1,0,.03.048.048,0,0,1-.009-.019Z" transform="translate(706.877 -250.168)"/><path class="l" d="M-706.722,253.077c0-.041-.012-.082-.04-.041a.572.572,0,0,1,.053-.237.082.082,0,0,0,.009.061c-.01.021-.053.046-.042.085s.024-.011.04-.031c-.019.049.022.079,0,.153l-.02-.03C-706.719,253.047-706.714,253.067-706.722,253.077Z" transform="translate(707.37 -250.257)"/><path class="l" d="M-706.725,252.716l-.007-.006c.011-.006.02-.021.038-.051a.092.092,0,0,1,.008.05h-.039Z" transform="translate(707.35 -250.175)"/><path class="l" d="M-706.594,252.732c0,.045.012.066-.01.112-.023-.007-.009-.039-.018-.062.034.02-.005-.027.027-.045a.058.058,0,0,0-.016-.017.071.071,0,0,0,.022-.015v0h0c0,.006,0,.008,0,.006h0l0,.018c.012-.008,0-.012,0-.018v-.006h0l.031.029C-706.568,252.742-706.578,252.739-706.594,252.732Z" transform="translate(707.177 -250.202)"/><path class="l" d="M-705.965,253.145a.025.025,0,0,0,0-.009C-705.96,253.141-705.96,253.146-705.965,253.145Z" transform="translate(706.304 -250.454)"/><path class="l" d="M-706.108,252.969c0-.007,0-.025-.008-.023s-.007.02-.012.035a.045.045,0,0,1,.014-.052v.006a.168.168,0,0,0,.054-.065A.559.559,0,0,1-706.108,252.969Z" transform="translate(706.471 -250.299)"/><path class="l" d="M-706.336,252.969l.025.03-.025.033.006-.023C-706.35,253.014-706.339,252.987-706.336,252.969Z" transform="translate(706.812 -250.356)"/><path class="l" d="M-706.777,252.661l0-.047.006.068Z" transform="translate(707.448 -250.15)"/><path class="l" d="M-706.871,252.7l.005-.041.006.026Z" transform="translate(707.582 -250.174)"/><path class="l" d="M-712.747,252.152l.015,0A.032.032,0,0,1-712.747,252.152Z" transform="translate(715.904 -249.88)"/><path class="l" d="M-712.557,252.26l-.015-.015C-712.562,252.252-712.555,252.257-712.557,252.26Z" transform="translate(715.656 -249.934)"/><path class="l" d="M-709.234,252.544c0-.04,0-.1.013-.056l.008.045C-709.225,252.526-709.23,252.533-709.234,252.544Z" transform="translate(710.921 -250.066)"/><path class="l" d="M-711,252.6l0,.014-.029-.034Z" transform="translate(713.446 -250.129)"/><path class="l" d="M-711.261,252.962l0-.035A.1.1,0,0,1-711.261,252.962Z" transform="translate(713.81 -250.332)"/><path class="l" d="M-713.636,251.507l.043.021C-713.607,251.543-713.618,251.521-713.636,251.507Z" transform="translate(717.136 -249.504)"/><path class="l" d="M-707.885,252.825a.058.058,0,0,1,.028-.027C-707.87,252.824-707.881,252.863-707.885,252.825Z" transform="translate(709.002 -250.257)"/><path class="l" d="M-711.97,251.319a.052.052,0,0,1,.024.016A.036.036,0,0,1-711.97,251.319Z" transform="translate(714.794 -249.395)"/><path class="l" d="M-707.931,252.772a.049.049,0,0,0-.006.01c-.009-.008-.017-.014-.027-.011C-707.954,252.752-707.943,252.741-707.931,252.772Z" transform="translate(709.109 -250.23)"/><path class="l" d="M-715.128,248.093l0,0C-715.127,248.089-715.127,248.09-715.128,248.093Z" transform="translate(719.295 -247.511)"/><path class="l" d="M-714.145,246.976a.029.029,0,0,0-.005.016S-714.153,246.984-714.145,246.976Z" transform="translate(717.904 -246.863)"/><path class="l" d="M-707.223,252.759c-.008,0,0-.005,0,0Z" transform="translate(708.093 -250.232)"/><path class="l" d="M-707.09,253.176a.055.055,0,0,1,0,.022A.061.061,0,0,0-707.09,253.176Z" transform="translate(707.901 -250.477)"/><path class="l" d="M-708.22,253.456h0C-708.221,253.465-708.221,253.463-708.22,253.456Z" transform="translate(709.504 -250.64)"/><path class="l" d="M-707.221,252.792a.033.033,0,0,1,.012-.012A.058.058,0,0,1-707.221,252.792Z" transform="translate(708.077 -250.246)"/><path class="l" d="M-707.193,252.751l-.008,0C-707.2,252.746-707.2,252.742-707.193,252.751Z" transform="translate(708.053 -250.226)"/><path class="l" d="M-707.24,252.768a.019.019,0,0,0-.014,0s0-.005,0-.007Z" transform="translate(708.122 -250.237)"/><path class="l" d="M-714.232,249.872l0,0C-714.214,249.868-714.218,249.87-714.232,249.872Z" transform="translate(718.014 -248.549)"/><path class="l" d="M-710.062,253.558l0,0v0Z" transform="translate(712.116 -250.698)"/><path class="l" d="M-710.1,253.4c-.033-.048-.039-.038-.046-.023l-.031-.128Z" transform="translate(712.195 -250.52)"/><path class="l" d="M-712.567,248.9l.008.046c.07.029.07-.006.093.053-.1-.1-.088.058-.187-.044l.008.033s.009,0,.011,0c.02.072-.087-.06-.105-.018a.038.038,0,0,0,.02.046l-.047-.005c-.005.008.012.025.017.017l-.045.024,0,0a.49.49,0,0,0-.068-.035c0,.024.015.008.023.023l-.042-.009c.015.036.053.049.065.033.068.128-.039-.013-.031.088l.031,0c.036.075,0,.066.006.123-.008-.025-.027-.136-.072-.146,0,.013-.007.024-.037.01.029.04.009.04-.009.048l.04.053c-.029,0-.048-.032-.076-.049-.016.019.01.064.03.1-.026.031-.025-.083-.07-.068-.013.039-.047.03-.1.017-.005.031.026.032.03.053l-.045-.034s.007.017.012.023c-.025-.008-.037-.055-.068-.057-.044-.058.013.122-.058.067,0,.02.024.033.035.057a.345.345,0,0,1-.121-.065l-.006.053c0-.055-.059-.093-.1-.126,0-.025-.008-.046-.01-.057l-.05-.015a.136.136,0,0,0,.034.052l-.014-.01a.154.154,0,0,0,.05.087l-.007-.043a.506.506,0,0,1,.074.1.042.042,0,0,0-.02-.01.089.089,0,0,1,.016.023c0,.007-.009,0-.023-.017l.027.07-.016-.025-.025.065c-.068-.049-.144-.133-.207-.136a.56.56,0,0,1,.068.138c-.015-.07.053.005.075-.022-.012.014,0,.04.014.048l-.076-.031c.023.048.006.041,0,.068-.034-.1-.065-.045-.1-.068.012.033.032.064.054.046,0,.083-.085-.1-.086-.028.006,0,.007-.007.017.008-.027-.023-.052.013-.033.038l.006,0a.1.1,0,0,1-.162-.033l.051.115-.169-.255c.031.07.063.251.111.279-.007.014-.015.031-.044.013a.283.283,0,0,0-.029-.114.444.444,0,0,1-.013.129c.006-.018-.041-.129-.056-.122a1.309,1.309,0,0,0,.043.124l-.074-.1a.312.312,0,0,1,.029.129c0-.023-.036.011-.05,0l.01-.03c-.042.029-.088-.148-.13-.131.01.023.049.141.029.162a1.548,1.548,0,0,0-.158-.306v.036l-.036-.032a1.965,1.965,0,0,0,.173.322c-.011.031,0,.041-.023.044a.038.038,0,0,0,.034.044l-.059.036c-.012-.069-.062-.057-.071-.116l.082.055c-.013-.069-.079-.185-.118-.163a.755.755,0,0,0,.035.143c-.01-.021-.05-.037-.051-.02l.026.035c-.021.029-.056-.086-.075-.017-.009.005-.017.093-.025.053a1.833,1.833,0,0,0-.049-.385.761.761,0,0,0-.043.122c-.008.064.043.145.037.2a.149.149,0,0,0-.021-.048c-.008.018.012.059-.012.053-.013-.07-.047.012-.018-.058-.025-.018-.022.018-.049.018a.326.326,0,0,0-.06-.171.218.218,0,0,1,0,.053c-.043.012-.066.048-.108.046,0,.018-.023.038-.013.068-.008-.012-.013-.036-.026-.038-.024.061.03.01.013.083,0-.041-.037-.058-.056-.083.005-.064.043-.012.062.014a.355.355,0,0,0-.077-.221c-.033-.023-.015.056-.02.044-.063.015-.049-.154-.1-.091a.49.49,0,0,0-.013.152c.027.021.043-.035.062-.033l-.024.027c.008.018.027.033.037.017-.02.05-.109.01-.162.053-.008-.02-.02-.042-.012-.063l.015.01c.017-.043-.023-.066,0-.085-.018-.035-.034-.088-.064-.066l-.013.063c0-.018.023-.035.028-.014-.008-.03-.053.079-.056-.006l.025-.041c-.016-.035-.03-.105-.057-.088.021-.061.005.008.032-.063-.027.089.06.005.024.1.028-.083.034-.032.064-.1,0,.021-.012.039.009.032,0,.006,0,.014,0,.019h0l0,0s0,0,0,0a.081.081,0,0,0-.013.031c0,.049.037.054.046.079.013-.01,0-.024,0-.046l.014.038c.005-.047.037-.078.01-.105l.025,0c.016-.026.036-.037.048-.017.011-.01.028.052.019.015l.038.029V249.3c.038-.006.082.078.124-.006.014.011.028.029.049.011l0-.04c.018.012.046-.047.057-.006.008-.111.077-.033.1-.056l.008.053c.02-.005.041.007.069.025l.006.046c.028.034.052-.036.086-.042-.006-.017-.013-.01-.017,0,.019-.114.1.053.122-.031.013.015.019.007.022-.006l0,0,0,0,.007-.028a.1.1,0,0,1,0,.027.056.056,0,0,1,.033.011l-.008-.05h0c0-.02.014.021.018.059a.1.1,0,0,1,.022.025c-.013-.08.036.019.024-.067.018.039.062.018.094.1,0-.011,0-.017-.007-.016s.018-.027.036-.007l-.015-.063.052.072a.129.129,0,0,0-.029-.108c.061.058.038.016.1.074l-.016-.038c.012,0,.049.042.044.008,0-.084.124-.055.156-.152.039.117.005-.064.047.02-.009-.028-.007-.047-.027-.064.043.009.025-.064.081,0-.009-.028-.025-.034-.03-.051.005,0,.021.017.016,0s-.015-.02-.025-.028c.032-.012.076.065.118.138,0-.044.008-.043.046,0-.007-.027-.011-.057-.036-.055.01-.009.048-.07.083-.013-.005-.016.013-.013.02-.008.024-.015.021-.025.048-.034v.014c.051.063.028,0,.053,0L-713.3,249c.012-.078.034.01.04-.073l.025.043c.064.087,0-.078.05-.061l.008.03c.035.02-.047-.145-.043-.164s-.013-.009-.021-.012c0-.074.043.05.078.045-.016-.032-.06-.068-.046-.085-.008-.027.117.055.1-.017.012.025.025.05.048.057s-.02-.118.05-.065a.057.057,0,0,0-.01-.019c.027.006.065-.008.1.02-.1-.138.139-.008.03-.124l.042-.031-.012-.01c.015-.032.05-.013.086,0,0-.013-.017-.019-.024-.025.01-.058.017-.056.1-.033l-.035-.038c.03.011-.014-.1.064-.1a.056.056,0,0,0-.021-.011c.086,0-.04-.188.123-.09l.058,0c-.015.047.07.042.084.076.02-.009-.018-.073-.038-.06l.005.008c-.085-.05.006-.068-.051-.1.061-.069.056-.174.088-.249l.063.045.01-.028c-.012-.015-.048-.037-.055-.017-.033-.03.048-.014.063-.007-.009-.05-.087-.027-.083-.039l.013-.012.006.008c.034,0,.064.016.073-.008-.007-.021-.038-.028-.038-.035s-.006-.005,0-.009l.011-.035.048.038c.035,0,.014-.032.068.012-.079-.064.015-.145-.008-.171.049-.006.056-.028.061-.057.01.01.072.038.073.01-.136-.037-.042-.062-.131-.111.058.036.039-.059.12-.007,0-.023-.05-.016-.076-.04.066-.031-.013-.111.017-.162.019,0,.044.018.073.011l-.083-.049c.011-.009.106.01.048-.023.015.006.036.014.044.007-.058-.123.1-.233-.058-.359.035.017.039.007.041-.005.008.008.045,0,.07,0l-.066-.05c.07-.008.007-.053.074-.058l-.013.016c.079-.023.172.029.272.027-.09.024.127.072,0,.112.02.01.032-.007.055,0-.043.009-.053.022-.035.047l.011,0c-.014.069.027.1.05.185l-.049-.012c.005.018.019.023.03.033-.077.01,0-.048-.081-.04.1.035-.021.115.09.149,0,.026-.055-.018-.06.008l.029.012h-.041c0,.018.039.034.065.04,0-.005.009-.011.012-.015.032.029-.024.06-.014.07l-.013-.029c-.045.064-.016.163-.1.21l-.021-.011c-.058.036.011.046-.027.094h.006c-.026,0-.043.014-.045.03.031-.005.04.043.076.035-.063.038-.044.015-.137.019l.033.022c-.037,0-.054-.006-.073.016.038-.009.048.039.1.031.057.089-.107.051-.007.125-.108-.019-.033-.071-.061-.067-.029-.025-.08-.01-.08.01s.11.084.085.127c0,0,.01,0,.011-.006.016.028-.05.015-.02.055-.063-.018-.01.027-.085-.008l.037-.03c-.031.013-.127-.012-.1.045a.147.147,0,0,0,.055,0c.016.022-.025.013-.009.035.075.036.041-.039.109-.034.025.028-.077.018.009.047-.11-.036-.01.05-.1.038l.045.023c-.01,0-.035,0-.038.008l.064.016c-.06,0,.017.07-.022.079.028-.048-.045-.042-.066-.08-.088.023.1.1.032.152.012,0,0-.048-.032-.047a.116.116,0,0,0,.023.064c-.038.035-.039-.034-.076-.033.041.047-.035.006-.062.013l.041.028c-.005.064-.095-.047-.091.015l.069.023-.03.011.05.029c-.051,0-.047.012-.051.045-.024-.026-.076-.051-.091-.033.014.032.043.021.017.045.03.013.067.03.038-.011l.044.021c.017.035-.021.042-.029.053a.023.023,0,0,0,0-.019h-.084a.056.056,0,0,0,.041.026c-.01.005-.032,0-.045.006.034.023.067.05.095.044l-.067.01c.012.014.021.05.037.055,0,.036-.106,0-.106.046a.035.035,0,0,0-.026,0c-.015.031,0,.088-.068.079l.037.068c-.033.011-.045-.087-.1-.068s.035.055.041.078c-.039-.012-.112-.042-.1.022C-712.579,248.912-712.579,248.9-712.567,248.9Zm-.313.225c.012,0,.043.02.029-.007C-712.893,249.073-712.881,249.1-712.881,249.12Zm-.548.2c.012.012.016,0,.015-.02C-713.422,249.3-713.427,249.3-713.429,249.317Zm-1.487-.008v0C-714.9,249.292-714.907,249.3-714.916,249.309Zm-.03.022a.046.046,0,0,1,0-.021c0,.013.008.014.015.01C-714.934,249.333-714.938,249.342-714.947,249.331Zm2.595-1.511.01.011C-712.323,247.825-712.337,247.823-712.352,247.82Z" transform="translate(715.877 -246.737)"/><path class="l" d="M-711.213,252.93a.134.134,0,0,0-.01-.025A.03.03,0,0,1-711.213,252.93Z" transform="translate(713.749 -250.319)"/><path class="l" d="M-713.532,251.5h0l.007,0Z" transform="translate(717.025 -249.497)"/><path class="l" d="M-708.608,253.853a.057.057,0,0,0,.011-.028C-708.6,253.838-708.6,253.849-708.608,253.853Z" transform="translate(710.043 -250.856)"/><path class="l" d="M-707.066,252.679l.016.015c-.008,0-.013.007-.018.014C-707.066,252.7-707.061,252.681-707.066,252.679Z" transform="translate(707.854 -250.187)"/><path class="l" d="M-706.528,253.315c0-.006-.007,0-.008-.008l.005-.023A.017.017,0,0,1-706.528,253.315Z" transform="translate(707.101 -250.54)"/><path class="l" d="M-706.907,253.039c-.008.042-.018.026-.03.016h0C-706.93,253-706.919,253.018-706.907,253.039Z" transform="translate(707.656 -250.385)"/><path class="l" d="M-706.846,253.084a.017.017,0,0,0-.013,0C-706.857,253.057-706.853,253.077-706.846,253.084Z" transform="translate(707.563 -250.415)"/><path class="l" d="M-707.311,252.784c-.007.011,0-.054,0-.037C-707.319,252.695-707.279,252.813-707.311,252.784Z" transform="translate(708.206 -250.219)"/><path class="l" d="M-706.9,253.326l.012-.051,0,.043Z" transform="translate(707.619 -250.535)"/><path class="l" d="M-707.114,253.332l-.024.011a.028.028,0,0,0,0-.019C-707.128,253.325-707.112,253.317-707.114,253.332Z" transform="translate(707.948 -250.563)"/><path class="l" d="M-707.058,253.311a.015.015,0,0,1-.017-.011A.037.037,0,0,1-707.058,253.311Z" transform="translate(707.865 -250.549)"/><path class="l" d="M-706.993,253.43l.008-.01h.017Z" transform="translate(707.742 -250.619)"/><path class="l" d="M-707.781,253.339l.025.015c0,.018,0,.029-.014.022S-707.785,253.356-707.781,253.339Z" transform="translate(708.857 -250.572)"/><path class="l" d="M-707.564,253.625a.125.125,0,0,0,.012-.04v.065Z" transform="translate(708.563 -250.715)"/><path class="l" d="M-707.751,253.718c0,.018.039.052,0,.048C-707.749,253.748-707.775,253.733-707.751,253.718Z" transform="translate(708.825 -250.793)"/><path class="l" d="M-708.6,253.31h-.006l-.014-.105Z" transform="translate(710.053 -250.494)"/><path class="l" d="M-709.512,253.787c-.025.033-.024-.062-.044-.024-.013-.023.016-.031,0-.05C-709.527,253.734-709.522,253.717-709.512,253.787Z" transform="translate(711.356 -250.79)"/><path class="l" d="M-709.45,253.694l-.014-.013A.053.053,0,0,1-709.45,253.694Z" transform="translate(711.253 -250.771)"/><path class="l" d="M-714.034,246.8l-.021-.017.035.011Z" transform="translate(717.738 -246.75)"/><path class="l" d="M-714.147,246.72l-.067,0,.062-.012S-714.161,246.717-714.147,246.72Z" transform="translate(717.931 -246.705)"/><path class="l" d="M-712.389,252.7l-.011-.013c-.008-.016,0-.02,0-.027Z" transform="translate(715.418 -250.179)"/><path class="l" d="M-712.825,252.164l0,0-.033-.052Z" transform="translate(716.046 -249.859)"/><path class="l" d="M-713.387,251.944c0,.009-.022.008-.027.017C-713.392,251.953-713.439,251.889-713.387,251.944Z" transform="translate(716.839 -249.746)"/></g><line class="n" y2="67.871" transform="translate(50.271 47.557)"/><path class="o" d="M-732.579,314l7.119,33.817-9.344,20.468-7.119-12.9L-736.139,314" transform="translate(785.119 -259.856)"/><path class="o" d="M-723.743,298.183l-4.894,6.675-3.329-5.13,2.438-5.994Z" transform="translate(779.249 -248.041)"/><path class="g" d="M-692.228,296.789s11.567-11.664,21.667-6.743c7.125,3.472,7.644,10.808-5.316,30.234-12.8,19.189-21.352,25.2-21.616,25.458-6.437,6.4-16.049-2.31-15.8-9.336C-713.07,330.094-692.228,296.789-692.228,296.789Z" transform="translate(713.299 -245.186)"/><path class="g" d="M-840.908,297.043c-5.988,5.193-22.955,13.453-7.169,30.661,15.6,17,24.094,23.357,24.393,23.574,7.34,5.339,15.5-4.745,14.179-11.648C-810.7,333.431-835.225,292.115-840.908,297.043Z" transform="translate(916.028 -249.733)"/><path class="h" d="M-767.715,371.557c16.453-2.137,36.771-4.5,41.67-5.118.014.123.034.233.047.351,4.679-1.049,10.215-2.441,13.367.792,8.4,8.611-.557,12.93-6.63,13.817-.827.121-1.631.208-2.424.275a259.451,259.451,0,0,1-26.837,6.019c-7.484,1.371-22.918,7.431-28.385.249C-783.079,379.841-776,372.636-767.715,371.557Z" transform="translate(784.435 -289.917)"/><path class="h" d="M-778.292,364.235c-12.333-3.677-24.71-7.206-37.075-10.777-9.467-2.733-19.438-2.757-23.143,8.335,3.741,1.5,6.853,3.165,10.815,4.417.795.251,1.575.465,2.347.658a259.019,259.019,0,0,0,25.53,10.229c7.173,2.55,21.438,11,27.986,4.784C-764.45,374.867-770.278,366.624-778.292,364.235Z" transform="translate(868.386 -281.97)"/><path class="g" d="M-717.635,277.836l7.878,7.7-3.009,4.921-7.767-7.77Z" transform="translate(760.494 -238.775)"/><path class="g" d="M-738.271,277.16l-8.338,7.986,3.78,5.156,7-8Z" transform="translate(797.444 -238.381)"/><path class="n" d="M-709.894,292.326-713,297.247l-7.767-7.77" transform="translate(760.73 -245.561)"/><path class="n" d="M-747.447,293.216l3.111,4.92,7.768-7.77" transform="translate(798.531 -246.079)"/><line class="n" x1="6.305" y1="9.272" transform="translate(74.008 69.811)"/><line class="n" x1="5.14" y2="9.967" transform="translate(24.151 70.946)"/><line class="p" x2="4.265" y2="7.788" transform="translate(55.279 191.46)"/><line class="p" y1="6.675" x2="4.268" transform="translate(46.933 193.314)"/><path class="i" d="M-715.57,388.51l-7.79,1.854-23.179-13.908Z" transform="translate(777.154 -296.261)"/><path class="q" d="M-731.868,439.444a.743.743,0,0,0,.742.742.742.742,0,0,0,.742-.742.741.741,0,0,0-.742-.741A.742.742,0,0,0-731.868,439.444Z" transform="translate(785.849 -332.546)"/><path class="r" d="M-722.562,471.6V495.34a5.5,5.5,0,0,1-4.82-3.71c-1.484-3.709-.742-19.285-.742-19.285" transform="translate(776.543 -351.724)"/><line class="r" x1="52.293" transform="translate(28.391 120.25)"/><line class="r" y1="92.723" x2="0.37" transform="translate(69.558 165.868)"/><line class="r" y1="92.721" x2="0.371" transform="translate(36.921 164.386)"/><path class="g" d="M-666.667,829.457c-2.4.928-15.2,1.489-17.959,1.674a82.252,82.252,0,0,1-15.356-.1c-4.348-.529-10.315-1.951-5.584-6.521,3.129-3.024,6.973-5.045,10.824-6.994a30.65,30.65,0,0,0,5.44-3.261c1.24-1,2.344-3.067,3.791-3.63,5.26-2.053,4.91,7.213,6.9,9.522,1.552,1.809,13.781.705,13.8.621C-665.291,824.1-664.314,828.544-666.667,829.457Z" transform="translate(710.036 -549.175)"/><path class="g" d="M-838.836,829.457c2.395.928,15.2,1.489,17.958,1.674a82.252,82.252,0,0,0,15.356-.1c4.35-.529,10.315-1.951,5.587-6.521-3.134-3.024-6.977-5.045-10.828-6.994a30.641,30.641,0,0,1-5.439-3.261c-1.24-1-2.343-3.067-3.792-3.63-5.26-2.053-4.911,7.213-6.9,9.522-1.552,1.809-13.78.705-13.795.621C-840.214,824.1-841.188,828.544-838.836,829.457Z" transform="translate(899.052 -549.175)"/></g></g></g></svg>