<svg xmlns="http://www.w3.org/2000/svg" xmlns:xlink="http://www.w3.org/1999/xlink" width="290" height="165" viewBox="0 0 290 165"><defs><style>.a{fill:none;}.b{clip-path:url(#a);}.c{fill:#fff;}.d{fill:#c2e9d7;}.e{fill:#5fa3ea;}.f,.g{fill:#b5e5d1;}.f{opacity:0.4;}.g{opacity:0.8;}</style><clipPath id="a"><rect class="a" width="290" height="165" transform="translate(980 1532)"/></clipPath></defs><g class="b" transform="translate(-980 -1532)"><g transform="translate(2631.958 1125.374)"><path class="c" d="M-1456.5,540.912c0,.452.249.818.556.818,10.132,0,20.264.655,30.4.653,10.792,0,28.835,2.128,35.069-1.154,4.961-2.057,8.185-6.6,9.537-12.907,4.211-19.667,16.057-79.623,16.057-79.623l-66.216.162-15.169,78.848Z" transform="translate(-13.511 -3.998)"/><path class="d" d="M-1406.8,596.894s-22.913,4.839-23.57-25.568h-56.317s-4.66,19.58,15,25.688Z" transform="translate(0 -58.024)"/><path class="e" d="M-1310.888,453.771a14.145,14.145,0,0,1-14.144,14.145,14.145,14.145,0,0,1-14.145-14.145,14.145,14.145,0,0,1,14.145-14.145A14.145,14.145,0,0,1-1310.888,453.771Z" transform="translate(-65.201 0)"/><path class="c" d="M-1322.407,462.73l-8.071-10.09,3.339-2.67,4.816,6.022,13.176-15.669,3.27,2.754Z" transform="translate(-69.033 -0.307)"/><g transform="translate(-1443.823 451.365)"><path class="f" d="M-1384.949,485.348h-24.738l5.15-24.737h24.739Z" transform="translate(1409.687 -460.61)"/></g><g transform="translate(-1418.224 487.75)"><g transform="translate(0 0)"><path class="f" d="M-1339.189,537.993h-24.739l2.851-12.344h24.739Z" transform="translate(1363.928 -525.649)"/></g></g><path class="f" d="M-1410.959,510.831l.4-2.286h24.521l-.4,2.286Z" transform="translate(-33.575 -30.364)"/><path class="g" d="M-1412.1,517.366l.4-2.285h30.654l-.4,2.285Z" transform="translate(-33.073 -33.244)"/><path class="g" d="M-1419.919,554.9l.4-2.285h30.653l-.4,2.285Z" transform="translate(-29.628 -49.781)"/><path class="f" d="M-1413.194,523.628l.4-2.284h16.217l-.4,2.284Z" transform="translate(-32.591 -36.003)"/><path class="f" d="M-1417.1,540.051l.4-2.284h16.217l-.4,2.284Z" transform="translate(-30.869 -43.238)"/><path class="f" d="M-1419.448,546.309l.4-2.284h28.269l-.4,2.284Z" transform="translate(-29.835 -45.995)"/></g></g></svg>