<svg xmlns="http://www.w3.org/2000/svg" width="82.001" height="82" viewBox="0 0 82.001 82"><defs><style>.a{fill:#a99256;}</style></defs><g transform="translate(-277.147 -172.122)"><g transform="translate(284.057 176.693)"><path class="a" d="M305.9,257.583l1.577.691-.338.773-1.577-.693-3.256.251.364-.829,1.51-.129a7.059,7.059,0,0,1,.782-.009l.015-.035a5.722,5.722,0,0,1-.518-.592l-.928-1.2.349-.795Z" transform="translate(-302.309 -234.997)"/><path class="a" d="M313.783,247.385l-3.935-2.4,1.526-2.5.614.374-1.074,1.764,1,.608,1.007-1.652.593.362-1,1.651,1.117.681,1.074-1.764.609.371Z" transform="translate(-307.539 -226.302)"/><path class="a" d="M324.052,234.545c-.743.907-1.693,1.058-2.848.111l-.415-.341c-1.151-.942-1.187-1.908-.448-2.81s1.7-1.062,2.846-.119l.417.342C324.759,232.673,324.794,233.638,324.052,234.545Zm-1.406-2.49c-.8-.651-1.32-.559-1.721-.071s-.383,1.016.412,1.668l.412.338c.8.655,1.328.559,1.722.081s.387-1.021-.414-1.677Z" transform="translate(-314.473 -218.162)"/><path class="a" d="M334.775,220.513l-2.924-1.046c-.224-.083-.487-.179-.718-.28l-.01.009c.183.185.383.389.57.6l1.736,1.931-.591.53-3.08-3.423.746-.672,2.883,1.009c.224.082.509.184.732.285l.008-.01c-.2-.189-.416-.424-.6-.632l-1.674-1.861.594-.535,3.08,3.423Z" transform="translate(-321.352 -208.217)"/><path class="a" d="M347.926,212.264a6.9,6.9,0,0,1-1.284.688l-.369-.551a13.078,13.078,0,0,0,1.189-.707c.464-.31.6-.587.368-.932-.166-.247-.357-.32-.845-.225l-.734.149a1.381,1.381,0,0,1-1.615-.53c-.5-.742-.211-1.319.693-1.926a6.327,6.327,0,0,1,1.2-.625l.366.547c-.311.171-.73.391-1.132.66-.447.3-.638.539-.431.848.155.232.342.277.827.178l.661-.137c.853-.176,1.3-.081,1.738.566C349.023,210.963,348.785,211.688,347.926,212.264Z" transform="translate(-331.522 -202.106)"/><path class="a" d="M360.33,204.117a1.7,1.7,0,0,1-2.5-.994l-1.188-2.449.771-.374,1.168,2.41c.407.837.756,1.06,1.42.739s.7-.735.3-1.573l-1.17-2.41.764-.37,1.188,2.448A1.693,1.693,0,0,1,360.33,204.117Z" transform="translate(-340.028 -196.203)"/><path class="a" d="M377.045,197.991l-2.213-2.177c-.167-.169-.365-.367-.533-.556l-.014,0c.09.245.186.514.267.779l.764,2.482-.758.232-1.355-4.4.96-.293,2.191,2.125c.168.168.383.381.543.564l.013,0c-.1-.255-.2-.56-.281-.828l-.737-2.392.764-.235,1.354,4.4Z" transform="translate(-351.521 -192.179)"/><path class="a" d="M393.43,195.3c-1.041.157-1.966-.118-2.216-1.766l-.1-.642c-.263-1.741.67-2.2,1.614-2.338a6.981,6.981,0,0,1,1.488-.068l.1.656c-.3.019-1.015.09-1.327.138-.741.111-1.194.349-1.023,1.483l.1.643c.157,1.043.578,1.248,1.313,1.137.226-.036.452-.074.609-.111l-.265-1.759.815-.124.361,2.383A7.765,7.765,0,0,1,393.43,195.3Z" transform="translate(-363.923 -190.219)"/><path class="a" d="M414.348,194.428c-1.169-.051-1.777-.735-1.718-2.059l.12-2.716.854.037-.119,2.674c-.041.928.161,1.29.9,1.323s.969-.311,1.01-1.24l.118-2.672.848.037-.121,2.716C416.178,193.851,415.512,194.48,414.348,194.428Z" transform="translate(-378.884 -189.652)"/><path class="a" d="M430.831,195.952l-.912-2.97c-.068-.229-.147-.5-.206-.743l-.012,0c-.038.259-.083.541-.138.814l-.508,2.548-.778-.155.9-4.518.984.2.917,2.914c.067.23.157.519.21.757l.012,0c.035-.271.092-.589.147-.862l.49-2.456.784.156-.9,4.519Z" transform="translate(-389.749 -190.534)"/><path class="a" d="M443.84,199.318l1.392-4.393.828.263-1.392,4.392Z" transform="translate(-400.55 -193.31)"/><path class="a" d="M454.96,202.507,453.8,202l.583-4.777.817.359-.415,3.306c-.035.276-.122.584-.162.831l.012,0a8.372,8.372,0,0,1,.5-.68l2.155-2.543.8.352Z" transform="translate(-407.466 -194.902)"/><path class="a" d="M464.5,209.035l2.412-3.921,2.5,1.535-.376.613-1.757-1.081-.614,1,1.647,1.013-.364.591-1.646-1.013-.685,1.113,1.757,1.081-.374.607Z" transform="translate(-414.892 -200.378)"/><path class="a" d="M477.756,218.705l.293-1.963c-.1-.073-.2-.16-.315-.25l-.331-.271-1.075,1.313-.653-.534,2.918-3.562c.328.245.657.5,1.017.792.858.7,1.425,1.457.657,2.4l-.029.034a1.237,1.237,0,0,1-1.422.484l-.352,2.141ZM479.6,216.1c.452-.551.072-.869-.8-1.584l-.958,1.17c.121.106.24.2.365.306.613.5.992.6,1.37.137Z" transform="translate(-422.651 -206.153)"/><path class="a" d="M487.7,229.285a6.975,6.975,0,0,1-.881-1.161l.486-.452a13.246,13.246,0,0,0,.885,1.066c.379.409.674.5.98.217.218-.2.261-.4.089-.87l-.263-.7a1.383,1.383,0,0,1,.27-1.678c.655-.608,1.271-.417,2.013.383a6.152,6.152,0,0,1,.8,1.088l-.481.447c-.217-.28-.5-.66-.83-1.015-.368-.4-.633-.547-.906-.293-.2.19-.22.382-.046.844l.24.633c.307.815.284,1.275-.288,1.806C489.157,230.165,488.4,230.045,487.7,229.285Z" transform="translate(-430.395 -214.413)"/><path class="a" d="M495.715,238.463l3.669-2.782.524.691-3.669,2.784Z" transform="translate(-436.567 -221.583)"/><path class="a" d="M505.509,243.964l-3.317,2.028-.454-.741,3.318-2.027-.718-1.175.613-.375,1.889,3.089-.613.376Z" transform="translate(-440.745 -225.741)"/><path class="a" d="M510.426,258.622l-1.579.692-.339-.772,1.578-.692,2.024-2.567.364.829-.93,1.2a6.857,6.857,0,0,1-.524.582l.015.035a5.759,5.759,0,0,1,.787.02l1.512.127.35.8Z" transform="translate(-445.442 -235.181)"/></g><g transform="translate(300.918 240.474)"><path class="a" d="M383.45,411.514a1.956,1.956,0,0,0-2.518-.444,1.785,1.785,0,0,0-.412,2.336,1.96,1.96,0,0,0,2.517.445,1.788,1.788,0,0,0,.413-2.337Zm-.983,1.738a.784.784,0,0,1-.649.159.773.773,0,0,1-.55-.37,1.132,1.132,0,0,1,.241-1.372.822.822,0,0,1,1.2.211,1.133,1.133,0,0,1-.24,1.373Zm.578-2.408.9.16.663-3.766-.9-.16-.21,1.2-1.154-.2-.12.673,1.155.2Zm-.934-.385.5-.556a2.971,2.971,0,0,1-.989-1.16,2.794,2.794,0,0,1-.144-1.648l.032-.18-.849-.151-.035.194a3.077,3.077,0,0,1-.611,1.509,3.026,3.026,0,0,1-1.433.821l.28.7a3.7,3.7,0,0,0,1.142-.5,2.178,2.178,0,0,0,.8-.847,2.623,2.623,0,0,0,.487,1.036A2.973,2.973,0,0,0,382.112,410.459Z" transform="translate(-372.126 -404.136)"/><path class="a" d="M360.176,402.552a3.034,3.034,0,0,0,.423-.354l1.1.47-.8,1.887.837.354,1.883-4.438-.838-.355-.267.631-1.468-.623a1.71,1.71,0,0,0-.973-.951,1.746,1.746,0,0,0-1.392-.029,2.058,2.058,0,0,0-1.055,2.488,1.731,1.731,0,0,0,.987.981A1.678,1.678,0,0,0,360.176,402.552Zm2.083-1.2-.3.7-.984-.419c.007-.015.014-.032.021-.048a2.166,2.166,0,0,0,.159-.6c0-.028,0-.059,0-.1Zm-2.625.544a.857.857,0,0,1-1.219-.517,1.266,1.266,0,0,1,.089-.851,1.282,1.282,0,0,1,.551-.656.813.813,0,0,1,.734-.03.8.8,0,0,1,.484.546,1.453,1.453,0,0,1-.639,1.509ZM359,405.213c-.265-.112-.389-.25-.229-.63l.424-1-.836-.355-.387.91c-.524,1.235.169,1.528.544,1.686l2.4,1.019.3-.694Z" transform="translate(-357.512 -398.758)"/><path class="a" d="M409.55,409.93v1.214h-.528V409.93h-.876v6.123h.876v-4.225h.528v4.225h.876V409.93Zm-3.841,2.733v-1.618H407.6v-.755h-2.8v2.276c0,1.342.751,1.342,1.16,1.342h1.861v-.756h-1.654C405.877,413.151,405.709,413.052,405.709,412.663Z" transform="translate(-390.317 -406.332)"/><path class="a" d="M432.91,409.768a1.6,1.6,0,0,0,.217-1.2,1.625,1.625,0,0,0-.543-1l.584-.1-.13-.744-1.455.257-.105-.6-.8.142.107.606-1.455.255.132.744.632-.113a1.666,1.666,0,0,0,2.816,1.765Zm-2.145-.789a.967.967,0,0,1,.1-.677.7.7,0,0,1,.5-.345.71.71,0,0,1,.6.152,1.086,1.086,0,0,1,.225,1.282.714.714,0,0,1-.508.346.7.7,0,0,1-.589-.154A.962.962,0,0,1,430.766,408.979Zm4.046-1.708-.21-1.2-.9.16.69,3.909.9-.159-.36-2.042.829-.146-.118-.675Zm-.151,3.135-3.027.534.13.744,2.657-.47c.092-.015.159-.011.18.112l.305,1.723.895-.158-.329-1.862C435.362,410.4,435.063,410.335,434.661,410.406Z" transform="translate(-407.333 -403.659)"/><path class="a" d="M458.381,402.846l-1.052-1.979-.761.405,1.051,1.978-.644.343-1.052-1.978-.76.4L456.215,404l-1.161.615.338.636,5.391-2.866-.338-.635Zm-1.144-3.479,1.116,2.1.8-.427-1.068-2.01c-.629-1.183-1.292-.831-1.653-.639l-2.944,1.565.353.667,2.763-1.469C456.859,399.013,457.055,399.023,457.237,399.367Z" transform="translate(-424.092 -398.184)"/></g><g transform="translate(277.147 172.122)"><path class="a" d="M279.749,215.727a41,41,0,0,1,41-41h0a41,41,0,0,1,41,41h0a41,41,0,0,1-41,41h0a41,41,0,0,1-41-41ZM292,186.977a40.525,40.525,0,0,0-11.908,28.749h0A40.537,40.537,0,0,0,292,244.479h0a40.535,40.535,0,0,0,28.75,11.907h0A40.537,40.537,0,0,0,349.5,244.479h0a40.54,40.54,0,0,0,11.909-28.752h0A40.528,40.528,0,0,0,349.5,186.977h0a40.532,40.532,0,0,0-28.751-11.91h0A40.53,40.53,0,0,0,292,186.977Z" transform="translate(-279.749 -174.727)"/></g><g transform="translate(289.36 184.333)"><path class="a" d="M319.624,243.384A28.789,28.789,0,0,1,348.412,214.6h0A28.787,28.787,0,0,1,377.2,243.384h0a28.785,28.785,0,0,1-28.787,28.787h0a28.786,28.786,0,0,1-28.788-28.787Zm8.672-20.116a28.361,28.361,0,0,0-8.332,20.116h0A28.359,28.359,0,0,0,328.3,263.5h0a28.357,28.357,0,0,0,20.116,8.333h0a28.35,28.35,0,0,0,20.114-8.333h0a28.354,28.354,0,0,0,8.332-20.116h0a28.356,28.356,0,0,0-8.332-20.116h0a28.35,28.35,0,0,0-20.114-8.332h0a28.358,28.358,0,0,0-20.116,8.332Z" transform="translate(-319.624 -214.595)"/></g><g transform="translate(306.765 187.03)"><g transform="translate(0)"><path class="a" d="M378.422,233.078a4.731,4.731,0,0,1-.766.268l-.085-.189a6.921,6.921,0,0,0,.756-.287c.389-.177.554-.41.391-.771-.118-.26-.3-.331-.72-.336l-.436,0c-.431,0-.733-.089-.9-.45-.192-.425.015-.748.565-1a4.7,4.7,0,0,1,.746-.261l.088.193a7.384,7.384,0,0,0-.732.276c-.379.169-.567.372-.428.678.108.24.3.311.673.311l.435,0c.5,0,.776.1.947.477C379.169,232.45,378.989,232.82,378.422,233.078Z" transform="translate(-376.595 -228.032)"/><path class="a" d="M385.369,231.269l-.992-2.735.247-.089.993,2.736Z" transform="translate(-381.993 -226.917)"/><path class="a" d="M390.964,228.423l-1.769-1.866c-.1-.1-.206-.22-.306-.34h0c.051.153.1.319.142.481l.558,2.088-.238.064-.753-2.811.359-.1,1.767,1.842c.091.1.2.226.3.334h0c-.056-.174-.105-.343-.144-.488l-.55-2.055.242-.065.756,2.816Z" transform="translate(-384.919 -224.882)"/><path class="a" d="M400.459,227.017c-.685.1-1.176-.141-1.327-1.157l-.049-.33c-.148-1.011.252-1.386.937-1.488a4.165,4.165,0,0,1,.68-.036l.031.213a5.091,5.091,0,0,0-.677.056c-.593.087-.83.416-.711,1.217l.048.33c.119.8.44,1.052,1.034.964a4.607,4.607,0,0,0,.663-.141l.034.217A4.219,4.219,0,0,1,400.459,227.017Z" transform="translate(-392.174 -223.837)"/><path class="a" d="M407.614,226.438l-.126-2.907,1.674-.073.011.235-1.412.062.044,1.036,1.319-.056.011.238-1.319.058.051,1.165,1.411-.06.011.229Z" transform="translate(-398.025 -223.458)"/><path class="a" d="M418.674,226.7l.021-.213.621.045.24-2.413-.644.149.023-.231.71-.179.194.018-.268,2.682.615.077-.021.213Z" transform="translate(-405.786 -223.732)"/><path class="a" d="M426.815,227.948a4.326,4.326,0,0,1-.758-.24l.041-.2a6.57,6.57,0,0,0,.755.219c.683.14.858-.164.963-.682l.037-.18a3.129,3.129,0,0,1-.756-.055c-.468-.095-.913-.3-.781-.951l.029-.142a.865.865,0,0,1,1.128-.7c.525.107.947.386.753,1.34l-.152.741C427.933,227.777,427.609,228.11,426.815,227.948Zm1.157-1.665c.143-.7-.1-.961-.546-1.051a.635.635,0,0,0-.828.534l-.027.134c-.1.48.183.622.579.7a3.268,3.268,0,0,0,.743.059Z" transform="translate(-410.908 -224.515)"/><path class="a" d="M435.041,229.615l-.28-.089,2.082-2.144-1.5-.478.071-.225,1.738.554-.085.266Z" transform="translate(-416.946 -225.692)"/><path class="a" d="M442.472,232.4l-.268-.117,2.289-1.915-1.444-.632.093-.215,1.671.731-.111.254Z" transform="translate(-422.109 -227.663)"/></g></g><path class="a" d="M383.572,271.4V253.075L369.827,271.4Zm-14.911-19.281-8.215,8.485,8.211,10.423,14.193-18.908Zm-.573,39.516V272.9l-18.69,9.219Zm15.821-19.08H369.246v19.044l19.324-11.045Zm-24.5-11.4-10.652,2.235v17.762l19.017-9.381Z" transform="translate(-50.518 -56.34)"/></g></svg>