<svg xmlns="http://www.w3.org/2000/svg" width="156.449" height="34" viewBox="0 0 156.449 34"><defs><style>.a{fill:#3a454c;}.b{fill:#00a5e5;}.c{fill:#d81e7c;}.d{fill:#c8cf00;}</style></defs><g transform="translate(-184.593 -252.113)"><g transform="translate(225.579 254.636)"><path class="a" d="M398.675,278.273a6.912,6.912,0,0,0-9.028,0,6.309,6.309,0,0,0,0,8.373,6.916,6.916,0,0,0,9.028,0,6.313,6.313,0,0,0,0-8.373Zm-2.353,6.645a2.9,2.9,0,0,1-4.3,0,4.023,4.023,0,0,1,0-4.918,2.9,2.9,0,0,1,4.3,0,4.019,4.019,0,0,1,0,4.918Zm.538-8.723h3.234V262.7H396.86v4.282h-4.138v2.414h4.138Zm-3.483-.766,1.384-2.246a10.415,10.415,0,0,1-4.147-3.426,9.8,9.8,0,0,1-1.512-5.642v-.643h-3.045v.695a10.963,10.963,0,0,1-1.2,5.616,10.729,10.729,0,0,1-4.479,3.735l1.408,2.272a13.08,13.08,0,0,0,3.66-2.447,7.723,7.723,0,0,0,2.251-3.427,9.247,9.247,0,0,0,2.33,3.3A10.492,10.492,0,0,0,393.377,275.429Z" transform="translate(-358.121 -261.8)"/><path class="a" d="M322.814,274.208a10.915,10.915,0,0,0,.885-1.73h4.231v7.238h3.209V262.7h-3.209v2.418H322.3a6.013,6.013,0,0,0-4.469-1.746,6.139,6.139,0,0,0-4.565,1.824,7.27,7.27,0,0,0,0,9.54,6.14,6.14,0,0,0,4.565,1.823A5.938,5.938,0,0,0,322.814,274.208Zm5.115-6.755v2.685h-3.782c0-.063.005-.125.005-.189a7.467,7.467,0,0,0-.318-2.183c-.028-.09-.069-.2-.116-.314Zm-7.78,5.385a2.833,2.833,0,0,1-2.322,1.111,2.862,2.862,0,0,1-2.345-1.111,5.123,5.123,0,0,1,0-5.779,2.866,2.866,0,0,1,2.345-1.111,2.837,2.837,0,0,1,2.322,1.111,5.11,5.11,0,0,1,0,5.779Zm2.516,11.637c-1.021,0-1.611-.273-1.611-1.729v-3.831h-3.209V282.4c0,4.734,2.655,4.734,4.094,4.734h9.2v-2.663Z" transform="translate(-311.48 -261.8)"/><path class="a" d="M472.756,262.7v4.282H470.9V262.7h-3.1v21.61h3.1V269.393h1.861v14.913h3.094V262.7ZM459.2,272.343V266.63h6.658v-2.662h-9.868V272c0,4.735,2.654,4.735,4.094,4.735h6.565v-2.664h-5.839C459.792,274.072,459.2,273.718,459.2,272.343Z" transform="translate(-409.312 -261.8)"/><path class="a" d="M540.341,272.61a5.621,5.621,0,0,0,1.495-4.052,5.693,5.693,0,0,0-1.281-3.806h2.1v-2.662h-5.213v-2.168h-2.862v2.168h-5.211v2.662h2.266a5.693,5.693,0,0,0-1.281,3.806,5.921,5.921,0,0,0,9.991,4.052Zm-6.969-4.052a3.4,3.4,0,0,1,.767-2.3,2.608,2.608,0,0,1,3.927,0,3.821,3.821,0,0,1,0,4.6,2.61,2.61,0,0,1-3.927,0A3.4,3.4,0,0,1,533.372,268.558ZM548.48,265.1v-4.282h-3.234V274.83h3.234v-7.315h2.97V265.1Zm-2.445,10.8H535.18v2.663h9.532c.32,0,.553.056.553.5v6.172h3.209v-6.672C548.474,276.33,547.474,275.9,546.035,275.9Z" transform="translate(-458.985 -259.923)"/><path class="a" d="M615.526,283.761v-7.909h-3.046v7.909h-2.57v-7.909h-3.045v7.909H602.24V286.3h21.543v-2.541Zm2.2-12.737V279.4h3.21v-8.034c0-4.733-2.654-4.733-4.093-4.733H605.076v2.663h11.043C617.139,269.295,617.729,269.652,617.729,271.023Z" transform="translate(-508.321 -264.465)"/></g><g transform="translate(184.593 252.113)"><path class="a" d="M221.787,252.113l-7.366,7.606,7.371,9.355,12.727-16.96Z" transform="translate(-204.787 -252.113)"/><path class="b" d="M237.24,269.074h12.727v-16.96Z" transform="translate(-220.234 -252.113)"/><path class="c" d="M194.228,275.659l-9.635,2.022V293.4l17.006-8.388Z" transform="translate(-184.593 -268.053)"/><path class="a" d="M184.593,313.008,201.6,321.66V304.62Z" transform="translate(-184.593 -287.66)"/><path class="d" d="M249.967,304.62H237.24v17.04l16.994-9.717Z" transform="translate(-220.234 -287.66)"/></g></g></svg>