<svg xmlns="http://www.w3.org/2000/svg" xmlns:xlink="http://www.w3.org/1999/xlink" width="60" height="60" viewBox="0 0 60 60"><defs><style>.a,.c,.e{fill:none;}.b{clip-path:url(#a);}.c{stroke:#fff;}.c,.e{stroke-linejoin:round;stroke-width:1.5px;}.d{fill:#fff;}.e{stroke:#00a5e5;}</style><clipPath id="a"><rect class="a" width="60" height="60" transform="translate(385 1520)"/></clipPath></defs><g class="b" transform="translate(-385 -1520)"><g transform="translate(624.177 1435.703)"><line class="c" x2="3.782" transform="translate(-201.612 99.272)"/><path class="c" d="M-194.091,100.41h3.209a2,2,0,0,1,2,2l.006,19.774v2.4a2.008,2.008,0,0,1-2.006,2.006l-37.288-.006a2,2,0,0,1-2.006-2V102.41a2,2,0,0,1,2.006-2h11.122" transform="translate(0 -1.138)"/><path class="c" d="M-202.029,131.569l.528,6.806h-10.111l.528-6.806" transform="translate(-2.97 -6.123)"/><path class="c" d="M3.046,0H17.23a3.046,3.046,0,0,1,3.046,3.046v0a0,0,0,0,1,0,0H0a0,0,0,0,1,0,0v0A3.046,3.046,0,0,1,3.046,0Z" transform="translate(-219.665 132.251)"/><line class="c" x2="41.3" transform="translate(-230.177 121.045)"/><circle class="d" cx="7.418" cy="7.418" r="7.418" transform="translate(-216.945 103.317)"/><g transform="translate(-217.049 93.297)"><path class="c" d="M-206.83,93.3v7.694l-7.718-1.719V93.3" transform="translate(214.548 -93.297)"/><path class="c" d="M-197.641,93.3v5.975l-7.718,1.719V93.3" transform="translate(213.078 -93.297)"/></g><path class="c" d="M-194.587,102.108V93.3H-221.2" transform="translate(-1.436 0)"/><path class="c" d="M-189.715,103.786a1.037,1.037,0,0,0-1.037,1.037v5.254h2.073v-5.254A1.037,1.037,0,0,0-189.715,103.786Z" transform="translate(-6.308 -1.678)"/><path class="e" d="M-208.889,113.451l2.379,2.379,3.549-3.549" transform="translate(-3.406 -3.038)"/></g></g></svg>