<svg xmlns="http://www.w3.org/2000/svg" xmlns:xlink="http://www.w3.org/1999/xlink" width="60" height="60" viewBox="0 0 60 60"><defs><style>.a,.c,.f{fill:none;}.b{clip-path:url(#a);}.c,.e{stroke:#fff;}.c,.e,.f{stroke-linejoin:round;stroke-width:1.5px;}.d,.e{fill:#fff;}.f{stroke:#00a5e5;}</style><clipPath id="a"><rect class="a" width="60" height="60" transform="translate(514 1521)"/></clipPath></defs><g class="b" transform="translate(-514 -1521)"><g transform="translate(827.604 1247.556)"><g transform="translate(-274.482 312.567)"><line class="c" x1="4.126" y1="4.126"/><path class="d" d="M0,0H4.285a0,0,0,0,1,0,0V7.894a2.143,2.143,0,0,1-2.143,2.143h0A2.143,2.143,0,0,1,0,7.894V0A0,0,0,0,1,0,0Z" transform="translate(1.75 4.78) rotate(-45)"/></g><rect class="c" width="14.58" height="14.58" rx="4" transform="translate(-304.604 282.444)"/><rect class="c" width="14.58" height="14.58" rx="4" transform="translate(-286.602 282.444)"/><rect class="c" width="14.58" height="14.58" rx="4" transform="translate(-304.604 300.447)"/><circle class="e" cx="7.84" cy="7.84" r="7.84" transform="translate(-287.152 299.897)"/><circle class="f" cx="5.934" cy="5.934" r="5.934" transform="translate(-285.246 301.803)"/></g></g></svg>