<svg xmlns="http://www.w3.org/2000/svg" xmlns:xlink="http://www.w3.org/1999/xlink" width="60" height="60" viewBox="0 0 60 60"><defs><style>.a,.c{fill:none;}.b{clip-path:url(#a);}.c,.d{stroke:#fff;stroke-linejoin:round;stroke-width:1.5px;}.d{fill:#fff;}</style><clipPath id="a"><rect class="a" width="60" height="60" transform="translate(384 1646)"/></clipPath></defs><g class="b" transform="translate(-384 -1646)"><g transform="translate(616.889 1461.926)"><path class="c" d="M-210.376,213.989l8.5-6.172v-9.149l-17.2,12.494h0l8.7,2.827Z" transform="translate(-0.93 -0.896)"/><path class="c" d="M-189.106,216.371l-3.245,9.987,5.378,7.4,6.569-20.216Z" transform="translate(-5.209 -3.277)"/><path class="c" d="M-198.6,207.817l8.5,6.172h0l8.7-2.827h0l-17.2-12.494v9.149Z" transform="translate(-4.208 -0.896)"/><path class="c" d="M-195.378,228.8h-10.5l-5.378,7.4H-190l-5.378-7.4Z" transform="translate(-2.183 -5.72)"/><path class="c" d="M-210.376,216.371l-8.7-2.827,6.569,20.216,5.378-7.4Z" transform="translate(-0.93 -3.277)"/><g transform="translate(-211.307 206.921)"><path class="d" d="M-200.222,209.561l-8.5,6.172h0l8.5,2.76Z" transform="translate(208.718 -209.561)"/><path class="d" d="M-208.718,216.91l3.245,9.987,5.251-7.227Z" transform="translate(208.718 -210.737)"/><path class="d" d="M-198.6,209.561h0v8.933l8.5-2.76h0Z" transform="translate(207.098 -209.561)"/><path class="d" d="M-204.854,227.424h10.5L-199.6,220.2Z" transform="translate(208.099 -211.264)"/><path class="d" d="M-193.352,226.9l3.245-9.987-8.5,2.76Z" transform="translate(207.098 -210.737)"/></g><rect class="c" width="2.671" height="2.671" transform="translate(-204.147 193.074)"/><rect class="c" width="2.671" height="2.671" transform="matrix(0.309, -0.951, 0.951, 0.309, -224.889, 210.085)"/><rect class="c" width="2.671" height="2.671" transform="matrix(-0.809, -0.588, 0.588, -0.809, -215.12, 235.069)"/><rect class="c" width="2.671" height="2.671" transform="matrix(-0.809, 0.588, -0.588, -0.809, -188.34, 233.499)"/><rect class="c" width="2.671" height="2.671" transform="matrix(0.309, 0.951, -0.951, 0.309, -181.558, 207.545)"/></g></g></svg>