<svg xmlns="http://www.w3.org/2000/svg" xmlns:xlink="http://www.w3.org/1999/xlink" width="60" height="60" viewBox="0 0 60 60"><defs><style>.a,.c,.d{fill:none;}.b{clip-path:url(#a);}.c,.d,.e{stroke:#fff;stroke-linejoin:round;stroke-width:1.5px;}.d{stroke-linecap:round;}.e{fill:#fff;}</style><clipPath id="a"><rect class="a" width="60" height="60" transform="translate(514 1646)"/></clipPath></defs><g class="b" transform="translate(-514 -1646)"><g transform="translate(939.594 1476.868)"><g transform="translate(-414.803 214.234)"><path class="c" d="M-413.493,224.867a1.406,1.406,0,0,0,.467,1.935,1.408,1.408,0,0,0,1.935-.467l2.292-3.753a19.949,19.949,0,0,1-2.4-1.471Z" transform="translate(413.7 -221.111)"/><path class="c" d="M-383.741,226.335a1.408,1.408,0,0,0,1.935.467,1.406,1.406,0,0,0,.467-1.935l-2.294-3.757a19.9,19.9,0,0,1-2.4,1.473Z" transform="translate(409.274 -221.111)"/></g><circle class="c" cx="4.179" cy="4.179" r="4.179" transform="translate(-404.912 193.814)"/><circle class="c" cx="11.62" cy="11.62" r="11.62" transform="translate(-412.354 186.373)"/><circle class="c" cx="19.861" cy="19.861" r="19.861" transform="translate(-420.594 178.132)"/><line class="d" x2="22.317" transform="translate(-400.733 197.993)"/><path class="e" d="M-362.138,197.858h-5.91l-2.334,3.291h5.91Z" transform="translate(-8.034 -3.156)"/><path class="e" d="M-362.138,205.067h-5.91l-2.334-3.291h5.91Z" transform="translate(-8.034 -3.783)"/></g></g></svg>