<svg xmlns="http://www.w3.org/2000/svg" xmlns:xlink="http://www.w3.org/1999/xlink" width="60" height="60" viewBox="0 0 60 60"><defs><style>.a,.c{fill:none;}.b{clip-path:url(#a);}.c,.d{stroke:#fff;stroke-linejoin:round;stroke-width:1.5px;}.d{fill:#fff;}</style><clipPath id="a"><rect class="a" width="60" height="60" transform="translate(705 1521)"/></clipPath></defs><g class="b" transform="translate(-705 -1521)"><g transform="translate(1044.816 1182.707)"><path class="c" d="M-324.311,376.658V358.288h7.579v15.5"/><path class="d" d="M-316.732,373.481V347.293h7.579v28.5"/><path class="c" d="M-309.152,375.79V363.874h7.579v11.438"/><path class="c" d="M-301.573,375.312V359.07h7.579v13.375"/><path class="c" d="M-300.079,376.747l10.128-7.523a2.637,2.637,0,0,1,3.473.288h0a2.636,2.636,0,0,1-.136,3.791l-16.033,14.419a6.122,6.122,0,0,1-4.712,1.54l-17.247-1.748h-4.208"/><path class="c" d="M-328.814,377.272h3.8l4.947-2.739a6.86,6.86,0,0,1,5.426-.526l5.528,1.783"/><path class="c" d="M-314.365,374.1l5.256,1.7,6.828-.542a2.1,2.1,0,0,1,2.169,1.456h0a2.1,2.1,0,0,1-1.133,2.555l-5.708,2.6h-7.412"/><rect class="c" width="6.411" height="12.476" transform="translate(-334.816 376.658)"/></g></g></svg>