<svg xmlns="http://www.w3.org/2000/svg" xmlns:xlink="http://www.w3.org/1999/xlink" width="60" height="60" viewBox="0 0 60 60"><defs><style>.a,.c,.e{fill:none;}.b{clip-path:url(#a);}.c,.d{stroke:#fff;}.c,.d,.e{stroke-linejoin:round;stroke-width:1.5px;}.d{fill:#fff;}.e{stroke:#aabc00;}</style><clipPath id="a"><rect class="a" width="60" height="60" transform="translate(834 1521)"/></clipPath></defs><g class="b" transform="translate(-834 -1521)"><g transform="translate(1037.044 1239.643)"><path class="c" d="M-175.255,311.333h-14.718l-4.072-4.534,4.072-4.534h14.718"/><path class="c" d="M-170.866,297.758h14.681l4.06,4.521-4.06,4.521h-14.681"/><path class="c" d="M2.09,0H2.3A2.09,2.09,0,0,1,4.39,2.09V42a0,0,0,0,1,0,0H0a0,0,0,0,1,0,0V2.09A2.09,2.09,0,0,1,2.09,0Z" transform="translate(-175.255 290.357)"/><line class="c" x2="21.089" transform="translate(-183.605 332.357)"/><path class="d" d="M-170.866,310.1h14.34l3.948,4.4-3.948,4.4h-14.34"/><g transform="translate(-1)"><line class="e" x2="1.779" transform="translate(-166.32 314.495)"/><line class="e" x2="1.779" transform="translate(-162.74 314.495)"/><line class="e" x2="1.779" transform="translate(-159.161 314.495)"/></g></g></g></svg>