<svg xmlns="http://www.w3.org/2000/svg" xmlns:xlink="http://www.w3.org/1999/xlink" width="60" height="60" viewBox="0 0 60 60"><defs><style>.a,.c{fill:none;}.b{clip-path:url(#a);}.c,.d{stroke:#fff;}.c,.d,.e{stroke-linejoin:round;stroke-width:1.5px;}.d{fill:#fff;}.e{fill:#aabc00;stroke:#aabc00;}</style><clipPath id="a"><rect class="a" width="60" height="60" transform="translate(708 1643)"/></clipPath></defs><g class="b" transform="translate(-708 -1643)"><g transform="translate(1030.53 1555.875)"><path class="c" d="M-284.414,134.833a3.606,3.606,0,0,1-3.852,3.292,3.6,3.6,0,0,1-3.851-3.292"/><path class="c" d="M-283.477,130.076v4.146h-9.577v-4.146"/><path class="c" d="M-288.919,100.7a11.476,11.476,0,0,0-1.42.176l-1.2,1.863a8.2,8.2,0,0,1,.921,2.263l2.865.619V108.4l-2.9.627a8.213,8.213,0,0,1-.924,2.192l1.618,2.511-1.964,1.964-2.528-1.628a8.224,8.224,0,0,1-2.16.89l-.639,2.949h-1.467a11.8,11.8,0,0,0,1.916,2.675,13.075,13.075,0,0,1,3.745,8.992v.507h9.577v-.509a12.887,12.887,0,0,1,3.692-8.936,11.721,11.721,0,0,0,3.3-8.169A11.783,11.783,0,0,0-288.919,100.7Z"/><path class="d" d="M-287.753,108.4V105.62l-2.865-.62a8.19,8.19,0,0,0-.778-1.976l1.057-2.15.375-.581-1.964-1.965-2.425,1.562a8.246,8.246,0,0,0-2.3-.96l-.607-2.805h-2.778l-.607,2.805a8.224,8.224,0,0,0-2.3.963l-2.417-1.557-1.964,1.964,1.571,2.439a8.2,8.2,0,0,0-.924,2.274l-2.85.617v2.778l2.89.625a8.211,8.211,0,0,0,.931,2.2l-1.611,2.5,1.965,1.964,2.525-1.627a8.207,8.207,0,0,0,2.167.886l.637,2.944h2.778l.639-2.949a8.224,8.224,0,0,0,2.16-.89l2.528,1.628,1.964-1.964-1.618-2.511a8.213,8.213,0,0,0,.924-2.192Z"/><circle class="e" cx="2.814" cy="2.814" r="2.814" transform="translate(-301.461 104.133)"/></g></g></svg>