<svg xmlns="http://www.w3.org/2000/svg" xmlns:xlink="http://www.w3.org/1999/xlink" width="60" height="60" viewBox="0 0 60 60"><defs><style>.a,.c{fill:none;}.b{clip-path:url(#a);}.c,.d{stroke:#fff;}.c,.d,.e{stroke-linejoin:round;stroke-width:1.5px;}.d{fill:#fff;}.e{fill:#aabc00;stroke:#aabc00;}</style><clipPath id="a"><rect class="a" width="60" height="60" transform="translate(834 1644)"/></clipPath></defs><g class="b" transform="translate(-834 -1644)"><g transform="translate(1143.78 1245.268)"><path class="c" d="M-270.52,417.472a9.74,9.74,0,0,0-10.126-9.733A9.834,9.834,0,0,0-290,417.6a9.678,9.678,0,0,0,2.664,6.558,24.055,24.055,0,0,1,5.869,9.939l1.206,4.274,1.169-4.139a24.674,24.674,0,0,1,5.938-10.108A9.678,9.678,0,0,0-270.52,417.472Z"/><path class="d" d="M-270.52,417.472a9.74,9.74,0,0,0-10.126-9.733A9.834,9.834,0,0,0-290,417.6a9.678,9.678,0,0,0,2.664,6.558,24.055,24.055,0,0,1,5.869,9.939l1.206,4.274,1.169-4.139a24.674,24.674,0,0,1,5.938-10.108A9.678,9.678,0,0,0-270.52,417.472Z"/><path class="c" d="M-290.9,430.756a5.1,5.1,0,0,0-5.3-5.092,5.145,5.145,0,0,0-4.894,5.158,5.063,5.063,0,0,0,1.394,3.431,12.594,12.594,0,0,1,3.07,5.2l.632,2.236.611-2.166a12.909,12.909,0,0,1,3.107-5.288A5.063,5.063,0,0,0-290.9,430.756Z"/><line class="c" x1="7.164" transform="translate(-290.903 428.866)"/><path class="c" d="M-299.7,434.253l-7.079,15.478h53.039l-9.646-20.865h-13.159"/><path class="c" d="M-265.929,436.821a3.146,3.146,0,0,0-3.27-3.144,3.177,3.177,0,0,0-3.021,3.184,3.127,3.127,0,0,0,.861,2.118,7.77,7.77,0,0,1,1.9,3.21l.39,1.38.377-1.337a7.977,7.977,0,0,1,1.918-3.264A3.125,3.125,0,0,0-265.929,436.821Z"/><circle class="e" cx="3.219" cy="3.219" r="3.219" transform="translate(-283.479 413.994)"/></g></g></svg>