<svg xmlns="http://www.w3.org/2000/svg" xmlns:xlink="http://www.w3.org/1999/xlink" width="36" height="36" viewBox="0 0 36 36"><defs><style>.a,.c{fill:none;}.b{clip-path:url(#a);}.c{stroke:#fff;stroke-linecap:round;stroke-linejoin:round;stroke-width:2px;}</style><clipPath id="a"><rect class="a" width="36" height="36" transform="translate(783 1191)"/></clipPath></defs><g class="b" transform="translate(-783 -1191)"><path class="c" d="M1195.638,251.353V246.9l-4.695-.931a10.658,10.658,0,0,0-.789-1.9l2.662-3.979-3.146-3.146-3.981,2.661a10.7,10.7,0,0,0-1.9-.788l-.933-4.695h-4.447l-.933,4.695a10.751,10.751,0,0,0-1.9.788l-3.981-2.661-3.146,3.146,2.663,3.979a10.659,10.659,0,0,0-.789,1.9l-4.693.931v4.449l4.693.931a10.613,10.613,0,0,0,.789,1.9l-2.663,3.981,3.146,3.146,3.981-2.663a10.7,10.7,0,0,0,1.9.789l.933,4.694h4.447l.933-4.694a10.707,10.707,0,0,0,1.9-.789l3.981,2.663,3.146-3.146-2.662-3.981a10.613,10.613,0,0,0,.789-1.9Zm-15,1.328a3.552,3.552,0,1,1,3.552-3.552A3.553,3.553,0,0,1,1180.638,252.68Z" transform="translate(-379.138 960.372)"/></g></svg>