<svg xmlns="http://www.w3.org/2000/svg" xmlns:xlink="http://www.w3.org/1999/xlink" width="60" height="60" viewBox="0 0 60 60"><defs><style>.a,.c,.f{fill:none;}.b{clip-path:url(#a);}.c,.d,.f{stroke:#fff;stroke-width:1.5px;}.c,.d{stroke-linejoin:round;}.d{fill:#fff;}.e{fill:#d2448b;}.f{stroke-miterlimit:10;}</style><clipPath id="a"><rect class="a" width="60" height="60" transform="translate(1025 1516)"/></clipPath></defs><g class="b" transform="translate(-1025 -1516)"><g transform="translate(1386.24 926.722)"><path class="c" d="M-320.462,604.066h4.812v36.212h-30.59V604.066h4.812"/><path class="d" d="M-328.707,602.185a2.58,2.58,0,0,0,.364-1.306,2.6,2.6,0,0,0-2.6-2.6,2.6,2.6,0,0,0-2.6,2.6,2.58,2.58,0,0,0,.364,1.306h-5.756v4.379h15.987v-4.379Z"/><circle class="e" cx="1.51" cy="1.51" r="1.51" transform="translate(-332.454 599.369)"/><path class="f" d="M-335.5,612.29l-2.947,2.947-1.876-1.876"/><line class="c" x2="10.587" transform="translate(-332.149 613.764)"/><path class="f" d="M-335.5,621.3l-2.947,2.947-1.876-1.876"/><line class="c" x2="10.587" transform="translate(-332.149 622.77)"/><path class="f" d="M-335.5,630.3l-2.947,2.947-1.876-1.876"/><line class="c" x2="10.587" transform="translate(-332.149 631.776)"/></g></g></svg>