<svg xmlns="http://www.w3.org/2000/svg" xmlns:xlink="http://www.w3.org/1999/xlink" width="60" height="60" viewBox="0 0 60 60"><defs><style>.a,.c,.d{fill:none;}.b{clip-path:url(#a);}.c,.d,.e{stroke:#fff;stroke-linejoin:round;stroke-width:1.5px;}.c{stroke-dasharray:3;}.e{fill:#fff;}</style><clipPath id="a"><rect class="a" width="60" height="60" transform="translate(1150 1516)"/></clipPath></defs><g class="b" transform="translate(-1150 -1516)"><g transform="translate(1373.797 1144.832)"><path class="c" d="M-186.109,418.822A18.745,18.745,0,0,0-175.645,402a18.752,18.752,0,0,0-13.421-17.975"/><path class="c" d="M-199.718,384.028A18.751,18.751,0,0,0-213.14,402a18.744,18.744,0,0,0,10.465,16.819"/><path class="d" d="M-200.99,387.722A15.755,15.755,0,0,0-210.128,402a15.735,15.735,0,0,0,7.453,13.371"/><path class="d" d="M-186.109,415.374A15.737,15.737,0,0,0-178.656,402a15.755,15.755,0,0,0-9.139-14.281"/><rect class="d" width="9.188" height="24.087" transform="translate(-198.987 391.343)"/><path class="e" d="M0,0H9.188a0,0,0,0,1,0,0V2.417A3.989,3.989,0,0,1,5.2,6.406H3.989A3.989,3.989,0,0,1,0,2.417V0A0,0,0,0,1,0,0Z" transform="translate(-198.987 415.43)"/><path class="e" d="M3372.2-1134.5l2.3-6.677,1.257-3.652h2.079l1.257,3.652,2.3,6.677Z" transform="translate(-3571.19 1525.846)"/><line class="d" x2="6.691" transform="translate(-217.797 383.513)"/><line class="d" y2="6.691" transform="translate(-214.451 380.168)"/><line class="d" x2="6.691" transform="translate(-176.43 418.822)"/><line class="d" y2="6.691" transform="translate(-173.084 415.477)"/><line class="d" y2="24.087" transform="translate(-194.392 391.343)"/></g></g></svg>