<svg xmlns="http://www.w3.org/2000/svg" xmlns:xlink="http://www.w3.org/1999/xlink" width="60" height="60" viewBox="0 0 60 60"><defs><style>.a,.c{fill:none;}.b{clip-path:url(#a);}.c,.d{stroke:#fff;stroke-linejoin:round;stroke-width:1.5px;}.d{fill:#fff;}</style><clipPath id="a"><rect class="a" width="60" height="60" transform="translate(1025 1646)"/></clipPath></defs><g class="b" transform="translate(-1025 -1646)"><g transform="translate(1498.571 1297.037)"><path class="c" d="M-436.72,368.762v-10.8h-21.1l-6.754,6.754v31.4h27.851v-3.251"/><line class="c" x1="3.546" y1="3.546" transform="translate(-434.948 388.076)"/><path class="c" d="M0,0H4.627a0,0,0,0,1,0,0V8.524a2.313,2.313,0,0,1-2.313,2.313h0A2.313,2.313,0,0,1,0,8.524V0A0,0,0,0,1,0,0Z" transform="translate(-433.038 393.258) rotate(-45)"/><circle class="c" cx="10.299" cy="10.299" r="10.299" transform="translate(-452.451 370.573)"/><path class="c" d="M-457.817,364.717h-6.754l6.754-6.754Z"/><path class="d" d="M-437.536,384.29h-9.224a2.764,2.764,0,0,0-2.764,2.764v1c.032.032.058.067.089.1a10.3,10.3,0,0,0,14.565,0c.035-.035.064-.073.1-.108v-.992A2.764,2.764,0,0,0-437.536,384.29Z"/><path class="d" d="M-442.148,375.056a2.573,2.573,0,0,0-2.573,2.573v1.847a2.573,2.573,0,0,0,2.573,2.574,2.574,2.574,0,0,0,2.574-2.574v-1.847A2.574,2.574,0,0,0-442.148,375.056Z"/></g></g></svg>