<svg xmlns="http://www.w3.org/2000/svg" xmlns:xlink="http://www.w3.org/1999/xlink" width="60" height="60" viewBox="0 0 60 60"><defs><style>.a,.c{fill:none;}.b{clip-path:url(#a);}.c,.d{stroke:#fff;stroke-linejoin:round;stroke-width:1.5px;}.d{fill:#fff;}</style><clipPath id="a"><rect class="a" width="60" height="60" transform="translate(1155 1646)"/></clipPath></defs><g class="b" transform="translate(-1155 -1646)"><g transform="translate(1416.409 1189.481)"><path class="c" d="M-218.376,507.519h0a3.52,3.52,0,0,1-3.5-3.855l1.71-15.427h7.07l-1.773,16.1A3.52,3.52,0,0,1-218.376,507.519Z"/><path class="c" d="M0,0H7.455A6.565,6.565,0,0,1,14.02,6.565v0A6.565,6.565,0,0,1,7.455,13.13H0a0,0,0,0,1,0,0V0A0,0,0,0,1,0,0Z" transform="translate(-220.169 475.108)"/><path class="d" d="M-246.493,486.811a5.4,5.4,0,0,1-3.836-5.139,5.4,5.4,0,0,1,3.836-5.139"/><path class="c" d="M-220.169,488.275l-21.286,7.092V467.978l21.286,7.092Z"/><path class="c" d="M-243.974,465.519a2.519,2.519,0,0,0-2.519,2.519v27.269a2.519,2.519,0,0,0,2.519,2.519h0a2.519,2.519,0,0,0,2.519-2.519V468.038a2.518,2.518,0,0,0-2.519-2.519Z"/><line class="c" x1="2.405" transform="translate(-256.409 481.672)"/><line class="c" x1="1.701" y1="1.701" transform="translate(-253.025 473.501)"/><line class="c" x1="1.701" y2="1.701" transform="translate(-253.025 488.143)"/></g></g></svg>