<svg xmlns="http://www.w3.org/2000/svg" xmlns:xlink="http://www.w3.org/1999/xlink" width="60" height="60" viewBox="0 0 60 60"><defs><style>.a,.c{fill:none;}.b{clip-path:url(#a);}.c{stroke:#fff;stroke-linejoin:round;stroke-width:1.5px;}.d{fill:#fff;}</style><clipPath id="a"><rect class="a" width="60" height="60" transform="translate(1348 1515)"/></clipPath></defs><g class="b" transform="translate(-1348 -1515)"><g transform="translate(1446.522 1252.259)"><path class="c" d="M-59.341,301.225v12.516H-87.522V276.292h4"/><path class="c" d="M-63.34,276.292h4v19.456"/><path class="d" d="M-67.751,274.209c0-1.363-2.543-2.468-5.68-2.468s-5.68,1.105-5.68,2.468h-2.194v4.178h15.748v-4.178Z"/><path class="c" d="M-51.879,293.763-65.606,307.49l-2.739-2.739,13.727-13.727"/><path class="c" d="M-68.345,304.751l2.74,2.74-2.35,1.171-1.966.979-.57-.57.979-1.966Z"/><path class="c" d="M0,0H1.855A1.417,1.417,0,0,1,3.271,1.417v1.04A1.417,1.417,0,0,1,1.855,3.873H0a0,0,0,0,1,0,0V0A0,0,0,0,1,0,0Z" transform="translate(-54.63 291.036) rotate(-45)"/><line class="c" x2="17.749" transform="translate(-82.495 287.005)"/><line class="c" x2="17.749" transform="translate(-82.495 294.922)"/><line class="c" x2="9.065" transform="translate(-82.495 302.839)"/></g></g></svg>