<svg xmlns="http://www.w3.org/2000/svg" xmlns:xlink="http://www.w3.org/1999/xlink" width="60" height="60" viewBox="0 0 60 60"><defs><style>.a,.c,.e{fill:none;}.b{clip-path:url(#a);}.c,.d{stroke:#fff;}.c,.d,.e{stroke-linejoin:round;stroke-width:1.5px;}.d{fill:#fff;}.e{stroke:#3a454c;}</style><clipPath id="a"><rect class="a" width="60" height="60" transform="translate(1479 1516)"/></clipPath></defs><g class="b" transform="translate(-1479 -1516)"><g transform="translate(1617.392 1373.518)"><path class="c" d="M-110.067,152.42c1.249,1.249.89,3.631.89,3.631s-2.383.359-3.631-.889-.89-3.632-.89-3.632S-111.315,151.172-110.067,152.42Z"/><path class="d" d="M-106.173,156.161a6.161,6.161,0,0,0-3,.328,6.16,6.16,0,0,0-3-.328c-3.411.507-5.426,3.933-4.5,7.653.894,3.594,4.206,6.138,7.506,5.849,3.3.289,6.612-2.255,7.506-5.849C-100.746,160.094-102.762,156.668-106.173,156.161Z"/><path class="e" d="M-106.875,158.936a11.539,11.539,0,0,1,2.406,2.348"/><rect class="c" width="37.38" height="7.933" rx="2" transform="translate(-130.392 169.685)"/><rect class="c" width="38.422" height="7.933" rx="2" transform="translate(-124.254 177.618)"/><rect class="c" width="42.43" height="7.933" rx="2" transform="translate(-130.392 185.55)"/><line class="c" y2="7.933" transform="translate(-125.187 185.55)"/><line class="c" y2="7.933" transform="translate(-93.167 185.55)"/><line class="c" y2="7.933" transform="translate(-119.831 177.618)"/><line class="c" y2="7.933" transform="translate(-90.256 177.618)"/><line class="c" y2="7.933" transform="translate(-126.489 169.685)"/><line class="c" y2="7.933" transform="translate(-96.915 169.685)"/><path class="c" d="M-109.177,156.489s.217-4.195,4.079-4.195"/></g></g></svg>