<svg xmlns="http://www.w3.org/2000/svg" xmlns:xlink="http://www.w3.org/1999/xlink" width="60" height="60" viewBox="0 0 60 60"><defs><style>.a,.c,.d{fill:none;}.b{clip-path:url(#a);}.c,.d,.e{stroke:#fff;stroke-width:1.5px;}.c,.e{stroke-linecap:round;stroke-linejoin:round;}.d{mix-blend-mode:darken;isolation:isolate;}.e{fill:#fff;}</style><clipPath id="a"><rect class="a" width="60" height="60" transform="translate(1353 1651)"/></clipPath></defs><g class="b" transform="translate(-1353 -1651)"><g transform="translate(1358.384 1659)"><path class="c" d="M28.523,31.342a16.237,16.237,0,0,1-9.413-4.305h-.017a15.1,15.1,0,0,1-2.154.333c-.526.051-1.067.077-1.606.077a17.6,17.6,0,0,1-2.685-.205,12.3,12.3,0,0,0,.157-1.958C12.805,18.6,7.42,12.91,0,11.761A12.535,12.535,0,0,1,1.431,7.673,14.484,14.484,0,0,1,7.04,2.132,16.92,16.92,0,0,1,15.333,0,16.342,16.342,0,0,1,27.091,4.794a12.832,12.832,0,0,1,3.692,7.913c.028.37.042.706.042,1.025a12.5,12.5,0,0,1-1.993,6.728,14.664,14.664,0,0,1-5.261,4.876c-.057.033-.119.069-.188.1a12.129,12.129,0,0,0,3.973,5.127c.354.26.736.513,1.168.775Z" transform="translate(18.177 0)"/><line class="c" x2="9.936" transform="translate(31.026 11.04)"/><line class="c" x2="1.529" transform="translate(26.069 11.04)"/><line class="c" x1="2.928" transform="translate(28.601 17.756)"/><line class="c" x1="2.16" transform="translate(34.675 17.756)"/><line class="c" x1="1.139" transform="translate(39.823 17.756)"/><g transform="translate(0 11.555)"><path class="c" d="M-170.394,484.215a12.127,12.127,0,0,0,3.972-5.135c-.062-.034-.127-.062-.187-.1a13.422,13.422,0,0,1-7.255-11.609c0-.346.018-.691.046-1.027a12.885,12.885,0,0,1,3.691-7.909,16.313,16.313,0,0,1,11.755-4.791c8.554,0,15.49,6.146,15.49,13.728s-6.936,13.718-15.49,13.718a17.007,17.007,0,0,1-3.755-.409l-.018,0a16.189,16.189,0,0,1-9.422,4.308A13.971,13.971,0,0,0-170.394,484.215Z" transform="translate(173.863 -453.647)"/><path class="d" d="M-170.463,480.458a14.026,14.026,0,0,0,1.974,1.308c.059.034.119.06.187.094-.085.2-.171.41-.264.607A12.748,12.748,0,0,1-170.463,480.458Z" transform="translate(173.186 -458.987)"/><line class="e" x2="9.936" transform="translate(12.999 11.038)"/><line class="e" x2="1.529" transform="translate(8.043 11.038)"/><line class="e" x1="5.46" transform="translate(8.043 17.753)"/><line class="e" x1="2.16" transform="translate(16.649 17.753)"/><line class="e" x1="1.139" transform="translate(21.796 17.753)"/></g></g></g></svg>