<svg xmlns="http://www.w3.org/2000/svg" width="18.5" height="17.754" viewBox="0 0 18.5 17.754"><defs><style>.a{fill:#ffcc24;}</style></defs><path class="a" d="M41.609,49.811l-4.853-2.694-4.888,2.461a.839.839,0,0,1-1.135-.906c.155-.8,1.042-5.348,1.042-5.348s-3.319-3.377-3.812-3.847a.807.807,0,0,1,.545-1.409l5.336-.652S36.2,32.9,36.419,32.489a.836.836,0,0,1,1.339.037l2.346,5.03s5.1.854,5.526.931a.756.756,0,0,1,.313,1.3L41.9,43.553s.763,5.05.84,5.669S42.118,50.094,41.609,49.811Z" transform="translate(-27.693 -32.172)"/></svg>