<svg xmlns="http://www.w3.org/2000/svg" xmlns:xlink="http://www.w3.org/1999/xlink" width="50" height="50" viewBox="0 0 50 50"><defs><style>.a,.g{fill:none;}.b{clip-path:url(#a);}.c,.e{fill:#fff;}.c,.d,.f,.g{stroke:#2c3035;stroke-width:1.5px;}.d{fill:#f2f5ad;}.f{fill:#c8cf00;}</style><clipPath id="a"><rect class="a" width="50" height="50" transform="translate(732 1677)"/></clipPath></defs><g class="b" transform="translate(-732 -1677)"><g transform="translate(0 0)"><g transform="translate(-401.676 317.8)"><path class="c" d="M1143.421,1374.357h9.191c.964,0,4.455.781,4.455,1.745v2.482h17.644a1.746,1.746,0,0,1,1.746,1.745v19.9a1.746,1.746,0,0,1-1.746,1.746h-31.29a1.746,1.746,0,0,1-1.745-1.746V1376.1A1.745,1.745,0,0,1,1143.421,1374.357Z"/><rect class="d" width="22.84" height="21.993" transform="translate(1145.348 1364.2)"/><rect class="e" width="4.911" height="21.993" transform="translate(1149.899 1370.267)"/><rect class="f" width="22.84" height="21.993" transform="translate(1149.899 1370.267)"/><path class="c" d="M1159.451,1404.12c7.694.026,15.26.08,15.26.08a1.748,1.748,0,0,0,1.746-1.746v-24.127a1.748,1.748,0,0,0-1.746-1.746h-9.191a1.746,1.746,0,0,0-1.745,1.746v2.481h-20.354a1.746,1.746,0,0,0-1.745,1.746v19.9a1.746,1.746,0,0,0,1.745,1.746Z"/></g><line class="g" x1="4.551" transform="translate(766.284 1707.231)"/><line class="g" x1="4.551" transform="translate(766.284 1711.782)"/><line class="g" x1="4.551" transform="translate(766.284 1716.333)"/></g></g></svg>