<svg xmlns="http://www.w3.org/2000/svg" xmlns:xlink="http://www.w3.org/1999/xlink" width="50" height="50" viewBox="0 0 50 50"><defs><style>.a{fill:none;}.b{clip-path:url(#a);}.c{fill:#fff;}.c,.d{stroke:#2c3035;stroke-width:1.5px;}.d{fill:#d91e7c;}</style><clipPath id="a"><rect class="a" width="50" height="50" transform="translate(732 1791)"/></clipPath></defs><g class="b" transform="translate(-732 -1791)"><g transform="translate(0 0)"><g transform="translate(-238.945 421.222)"><path class="c" d="M985.686,1385.146v-10.369h24.038l.433.432.433.432.433.432.433.432.433.433.433.433.433.433.433.433.432.433.432.433.432.433.432.433.433.432.433.432.433.432.433.432v33.077H985.686v-30"/><path class="c" d="M985.686,1379.777"/><path class="c" d="M1013.955,1384.2h-6.923v-6.921"/></g><g transform="translate(-238.945 421.222)"><line class="c" x2="5.939" transform="translate(1002.991 1396.363)"/><line class="c" x2="5.939" transform="translate(1002.991 1401.452)"/><line class="c" x2="5.939" transform="translate(1002.991 1406.543)"/></g><g transform="translate(-238.945 421.222)"><path class="c" d="M992.282,1395.065a5.508,5.508,0,1,1-5.509-5.509A5.508,5.508,0,0,1,992.282,1395.065Z"/><path class="c" d="M992.187,1401.22H981.359a5.414,5.414,0,0,0-5.414,5.414v8.144H997.6v-8.144A5.415,5.415,0,0,0,992.187,1401.22Z"/><line class="c" y2="7.626" transform="translate(980.842 1407.152)"/><line class="c" y1="7.626" transform="translate(992.705 1407.152)"/></g><g transform="translate(-238.945 421.222)"><circle class="d" cx="4.375" cy="4.375" r="4.375" transform="translate(992.255 1381.023)"/></g></g></g></svg>