<svg xmlns="http://www.w3.org/2000/svg" xmlns:xlink="http://www.w3.org/1999/xlink" width="50" height="50" viewBox="0 0 50 50"><defs><style>.a,.e{fill:none;}.b{clip-path:url(#a);}.c{fill:#fff;}.c,.d,.e{stroke:#2c3035;stroke-width:1.5px;}.d{fill:#00a5e5;}</style><clipPath id="a"><rect class="a" width="50" height="50" transform="translate(732 1563)"/></clipPath></defs><g class="b" transform="translate(-732 -1563)"><g transform="translate(-463.072 632.293)"><path class="c" d="M1217.77,957.062a2.815,2.815,0,0,0-3.981-3.981l-5.89,5.891,3.981,3.98Z"/><path class="c" d="M1207.9,958.972l-8,8a2.815,2.815,0,0,0,3.981,3.981l8-8Z"/><path class="c" d="M1231.257,958.362a13.271,13.271,0,1,1,0-18.768A13.268,13.268,0,0,1,1231.257,958.362Z"/><path class="d" d="M1228.413,955.518a9.249,9.249,0,1,1,0-13.08A9.247,9.247,0,0,1,1228.413,955.518Z"/><path class="e" d="M1221.873,942.831a6.147,6.147,0,0,1,6.147,6.147"/></g><g transform="translate(-462.072 632.293)"><path class="c" d="M1233.4,954.382a5.958,5.958,0,1,1-5.959-5.96A5.959,5.959,0,0,1,1233.4,954.382Z"/><path class="c" d="M1233.294,961.04H1221.58a5.857,5.857,0,0,0-5.857,5.857v8.81h23.427V966.9A5.857,5.857,0,0,0,1233.294,961.04Z"/><line class="c" y2="8.25" transform="translate(1221.021 967.457)"/><line class="c" y1="8.25" transform="translate(1233.854 967.457)"/></g></g></svg>