<svg xmlns="http://www.w3.org/2000/svg" width="29.5" height="29.5" viewBox="0 0 29.5 29.5"><defs><style>.a{fill:#fff;stroke:#333;stroke-miterlimit:10;stroke-width:1.5px;}</style></defs><g transform="translate(-63.356 -74.654)"><g transform="translate(64.106 75.404)"><path class="a" d="M78.106,92.169a11.488,11.488,0,0,1,10.389,6.6,14,14,0,1,0-20.778,0A11.487,11.487,0,0,1,78.106,92.169Z" transform="translate(-64.106 -75.404)"/><path class="a" d="M81.807,120.583A13.949,13.949,0,0,0,92.2,115.944a11.479,11.479,0,0,0-20.778,0A13.948,13.948,0,0,0,81.807,120.583Z" transform="translate(-67.807 -92.583)"/></g><circle class="a" cx="5.005" cy="5.005" r="5.005" transform="translate(73.101 82.159)"/></g></svg>