<svg xmlns="http://www.w3.org/2000/svg" xmlns:xlink="http://www.w3.org/1999/xlink" width="22" height="22" viewBox="0 0 22 22"><defs><style>.a,.c{fill:none;}.b{clip-path:url(#a);}.c{stroke:#fff;stroke-miterlimit:10;stroke-width:1.5px;}</style><clipPath id="a"><rect class="a" width="22" height="22" transform="translate(284 19)"/></clipPath></defs><g class="b" transform="translate(-284 -19)"><g transform="translate(285.004 20.004)"><g transform="translate(0)"><path class="c" d="M74.148,87.429A8.24,8.24,0,0,1,81.6,92.16a10.042,10.042,0,1,0-14.9,0A8.239,8.239,0,0,1,74.148,87.429Z" transform="translate(-64.106 -75.404)"/><path class="c" d="M78.87,117.407a10.005,10.005,0,0,0,7.452-3.327,8.234,8.234,0,0,0-14.9,0A10,10,0,0,0,78.87,117.407Z" transform="translate(-68.828 -97.323)"/></g><circle class="c" cx="3.59" cy="3.59" r="3.59" transform="translate(6.452 4.845)"/></g></g></svg>