<svg xmlns="http://www.w3.org/2000/svg" width="110" height="24" viewBox="0 0 110 24"><defs><style>.a{fill:#fff;}</style></defs><g transform="translate(-389.614 -305.363)"><g transform="translate(418.85 307.289)"><g transform="translate(0 0)"><path class="a" d="M473.084,318.287a4.836,4.836,0,0,0-6.315,0,4.412,4.412,0,0,0,0,5.857,4.838,4.838,0,0,0,6.315,0,4.416,4.416,0,0,0,0-5.857Zm-1.646,4.649a2.032,2.032,0,0,1-3.008,0,2.817,2.817,0,0,1,0-3.44,2.029,2.029,0,0,1,3.008,0,2.815,2.815,0,0,1,0,3.44Zm.376-6.1h2.262v-9.442h-2.262v3H468.92v1.689h2.894Zm-2.435-.535.967-1.572a7.289,7.289,0,0,1-2.9-2.4,6.87,6.87,0,0,1-1.056-3.948v-.449h-2.13v.486a7.677,7.677,0,0,1-.841,3.927,7.5,7.5,0,0,1-3.134,2.614l.985,1.589a9.145,9.145,0,0,0,2.56-1.711,5.414,5.414,0,0,0,1.574-2.4,6.452,6.452,0,0,0,1.63,2.306A7.33,7.33,0,0,0,469.378,316.3Z" transform="translate(-444.717 -306.766)"/><path class="a" d="M446.99,315.444a7.475,7.475,0,0,0,.619-1.21h2.958V319.3h2.245v-11.9h-2.245v1.692h-3.936a4.21,4.21,0,0,0-3.126-1.221,4.29,4.29,0,0,0-3.193,1.276,5.082,5.082,0,0,0,0,6.672,4.292,4.292,0,0,0,3.193,1.276A4.157,4.157,0,0,0,446.99,315.444Zm3.578-4.723V312.6h-2.644c0-.045,0-.087,0-.132a5.289,5.289,0,0,0-.22-1.527c-.022-.062-.05-.136-.083-.217Zm-5.439,3.765a2.1,2.1,0,0,1-3.264,0,3.578,3.578,0,0,1,0-4.04,2.1,2.1,0,0,1,3.264,0,3.581,3.581,0,0,1,0,4.04Zm1.758,8.14c-.714,0-1.126-.192-1.126-1.209v-2.68h-2.246v2.441c0,3.312,1.858,3.312,2.864,3.312h6.436v-1.863Z" transform="translate(-439.063 -306.766)"/><path class="a" d="M495.3,307.392v3H494v-3h-2.164v15.115H494V312.076h1.3v10.431h2.163V307.392Zm-9.481,6.749v-4h4.656v-1.863h-6.9V313.9c0,3.311,1.856,3.311,2.862,3.311h4.593v-1.864h-4.085C486.233,315.349,485.82,315.1,485.82,314.141Z" transform="translate(-450.922 -306.766)"/><path class="a" d="M513.85,315.414a3.932,3.932,0,0,0,1.046-2.835,3.979,3.979,0,0,0-.9-2.661h1.469v-1.863H511.82v-1.515h-2v1.515h-3.647v1.863h1.585a3.977,3.977,0,0,0-.895,2.661,4.142,4.142,0,0,0,6.988,2.835Zm-4.875-2.835a2.372,2.372,0,0,1,.536-1.606,1.823,1.823,0,0,1,2.747,0,2.674,2.674,0,0,1,0,3.215,1.828,1.828,0,0,1-2.747,0A2.383,2.383,0,0,1,508.975,312.578Zm10.567-2.419v-3h-2.26v9.8h2.26v-5.117h2.077V310.16Zm-1.709,7.556H510.24v1.862h6.667c.222,0,.387.041.387.351v4.318h2.245v-4.67C519.539,318.015,518.839,317.716,517.833,317.716Z" transform="translate(-456.943 -306.539)"/><path class="a" d="M537.912,320.586v-5.534h-2.13v5.534h-1.8v-5.534h-2.13v5.534h-3.236v1.777h15.07v-1.777Zm1.54-8.91v5.86H541.7v-5.621c0-3.311-1.856-3.311-2.862-3.311H530.6v1.863h7.725C539.039,310.467,539.453,310.715,539.453,311.676Z" transform="translate(-462.924 -307.089)"/></g></g><path class="a" d="M410.759,317.072V305.947l-8.349,11.125ZM401.7,305.363l-4.992,5.153,4.988,6.331,8.619-11.484Zm-.348,24V317.989L390,323.587Zm9.607-11.588h-8.9v11.566l11.735-6.71Zm-14.88-6.923-6.469,1.359V323l11.549-5.7Z" transform="translate(0 0)"/></g></svg>