<svg xmlns="http://www.w3.org/2000/svg" width="94.968" height="26.601" viewBox="0 0 94.968 26.601"><defs><style>.a,.b{fill:#fff;}.b{opacity:0.6;}</style></defs><g transform="translate(-150.672 -16.311)"><path class="a" d="M4.717-7.178a1.851,1.851,0,0,0-1.588.771A3.585,3.585,0,0,0,2.566-4.26q0,2.865,2.15,2.865A6.8,6.8,0,0,0,6.9-1.846V-.322A6.069,6.069,0,0,1,4.547.117,3.592,3.592,0,0,1,1.688-1.017,4.8,4.8,0,0,1,.7-4.271a5.315,5.315,0,0,1,.486-2.341,3.515,3.515,0,0,1,1.4-1.541,4.134,4.134,0,0,1,2.136-.536,5.764,5.764,0,0,1,2.508.6L6.639-6.609a9.7,9.7,0,0,0-.967-.4A2.884,2.884,0,0,0,4.717-7.178ZM12.744,0,12.4-.891h-.047a2.639,2.639,0,0,1-.929.788,3,3,0,0,1-1.245.22A2.013,2.013,0,0,1,8.692-.422,2.07,2.07,0,0,1,8.15-1.957,1.729,1.729,0,0,1,8.88-3.5a4.227,4.227,0,0,1,2.2-.548l1.137-.035v-.287a.891.891,0,0,0-1.02-1,4.646,4.646,0,0,0-1.846.475L8.76-6.094a5.326,5.326,0,0,1,2.508-.592,3.124,3.124,0,0,1,2.021.574,2.122,2.122,0,0,1,.7,1.746V0Zm-.527-3.035-.691.023a2.214,2.214,0,0,0-1.16.281.883.883,0,0,0-.381.785q0,.756.867.756a1.373,1.373,0,0,0,.993-.357,1.255,1.255,0,0,0,.372-.949Zm7.271-3.639a2.882,2.882,0,0,1,.6.053l-.135,1.676A2.047,2.047,0,0,0,19.43-5a1.9,1.9,0,0,0-1.333.439,1.589,1.589,0,0,0-.478,1.23V0H15.832V-6.551h1.354l.264,1.1h.088a2.463,2.463,0,0,1,.823-.888A2.03,2.03,0,0,1,19.488-6.674Zm5.449,0a2.882,2.882,0,0,1,.6.053l-.135,1.676A2.047,2.047,0,0,0,24.879-5a1.9,1.9,0,0,0-1.333.439,1.589,1.589,0,0,0-.478,1.23V0H21.281V-6.551h1.354l.264,1.1h.088a2.463,2.463,0,0,1,.823-.888A2.03,2.03,0,0,1,24.938-6.674Zm.855.123H27.75l1.236,3.686A5.114,5.114,0,0,1,29.2-1.729h.035a5.023,5.023,0,0,1,.252-1.137L30.7-6.551h1.916L29.848.838a3.2,3.2,0,0,1-1.087,1.535,2.743,2.743,0,0,1-1.649.51,4.148,4.148,0,0,1-.908-.1V1.365a3.055,3.055,0,0,0,.7.076,1.27,1.27,0,0,0,.829-.29,1.88,1.88,0,0,0,.554-.876l.105-.322Zm11.156,1.74h3.4V-.369a9.581,9.581,0,0,1-1.556.378A10.133,10.133,0,0,1,37.3.117a3.773,3.773,0,0,1-2.962-1.14,4.741,4.741,0,0,1-1.022-3.272A4.316,4.316,0,0,1,34.5-7.529a4.505,4.505,0,0,1,3.29-1.16,6.366,6.366,0,0,1,2.543.527l-.6,1.453a4.31,4.31,0,0,0-1.951-.469,2.41,2.41,0,0,0-1.887.791,3.068,3.068,0,0,0-.709,2.127,3.416,3.416,0,0,0,.571,2.13,1.976,1.976,0,0,0,1.661.735,5.876,5.876,0,0,0,1.154-.117V-3.3H36.949Zm8.01-.592a1.134,1.134,0,0,0-.891.36A1.668,1.668,0,0,0,43.7-4.02h2.508a1.49,1.49,0,0,0-.346-1.022A1.17,1.17,0,0,0,44.959-5.4Zm.252,5.52a3.381,3.381,0,0,1-2.473-.873,3.306,3.306,0,0,1-.891-2.473,3.636,3.636,0,0,1,.823-2.546,2.931,2.931,0,0,1,2.276-.9,2.885,2.885,0,0,1,2.162.791A2.993,2.993,0,0,1,47.883-3.7v.867H43.658a1.72,1.72,0,0,0,.451,1.189,1.587,1.587,0,0,0,1.184.428,4.913,4.913,0,0,0,1.119-.123,5.6,5.6,0,0,0,1.1-.393V-.346a4.2,4.2,0,0,1-1,.349A6.317,6.317,0,0,1,45.211.117ZM55.2,0H53.414V-3.826a1.927,1.927,0,0,0-.237-1.063.835.835,0,0,0-.747-.354,1.082,1.082,0,0,0-1,.5,3.305,3.305,0,0,0-.311,1.658V0H49.336V-6.551H50.7l.24.838h.1a1.816,1.816,0,0,1,.762-.706,2.473,2.473,0,0,1,1.143-.255,2.058,2.058,0,0,1,1.992.961H55.1a1.77,1.77,0,0,1,.776-.709,2.589,2.589,0,0,1,1.157-.252,2.284,2.284,0,0,1,1.685.571,2.509,2.509,0,0,1,.571,1.831V0H57.492V-3.826a1.927,1.927,0,0,0-.237-1.063.835.835,0,0,0-.747-.354,1.115,1.115,0,0,0-.981.469A2.66,2.66,0,0,0,55.2-3.287Z" transform="translate(150 25)"/><path class="b" d="M7.02-8.736H4.332v-1.2H3.348v1.2H.672v.792H7.02Zm-4.812,3.3c0-.72.648-1.188,1.632-1.188s1.644.468,1.644,1.176S4.824-4.26,3.84-4.26,2.208-4.716,2.208-5.436Zm4.212,0c0-1.188-1.044-1.956-2.58-1.956s-2.568.768-2.568,1.944S2.316-3.5,3.84-3.5,6.42-4.26,6.42-5.436ZM2-1.752H8V.9h.984V-2.556H2ZM10.584-6.9h-1.6V-9.864H8v6.72h.984v-2.94h1.6Zm7.56.72h1.368v2.952h.948V-9.864h-.948v2.88H18.144V-9.66h-.936v6.084h.936Zm-1.38,1.356A3.236,3.236,0,0,1,14.58-7.752V-9.2h-.948v1.452a3.727,3.727,0,0,1-2.244,3.216l.528.768a4.28,4.28,0,0,0,2.2-2.388,3.858,3.858,0,0,0,2.124,2.088ZM16.908.12c-1.608,0-2.616-.432-2.616-1.176S15.3-2.22,16.908-2.22c1.632,0,2.628.42,2.628,1.164S18.54.12,16.908.12Zm0-3.108c-2.208,0-3.588.708-3.588,1.932S14.7.876,16.908.876s3.6-.708,3.6-1.932S19.128-2.988,16.908-2.988Zm13.08-4.1v1.44h-2.82v.8h2.82v1.416h1V-9.864h-1V-7.9H27.552a6.174,6.174,0,0,0,.12-1.164h-4.86v.792H26.6c-.18,1.86-1.776,3.288-4.344,4.056l.4.78A6.669,6.669,0,0,0,27.3-7.092ZM27.468.072c-1.584,0-2.592-.492-2.592-1.308s1.008-1.3,2.592-1.3,2.592.492,2.592,1.3S29.052.072,27.468.072Zm0-3.384c-2.172,0-3.564.78-3.564,2.076S25.3.84,27.468.84s3.564-.78,3.564-2.076S29.64-3.312,27.468-3.312ZM38.544-4.8a24.312,24.312,0,0,1-4.272.252V-6.18H37.92V-9.228H33.276v.8H36.96v1.488H33.312v3.192h.768a24.848,24.848,0,0,0,4.56-.264ZM34.512-1.872h6.216V.9h.984V-2.676h-7.2Zm6.216-7.992V-8.28h-2.1v.8h2.1v1.44h-2.1v.792h2.1v1.992h.984V-9.864ZM44-8.484v.8h3.228A6.518,6.518,0,0,1,43.6-2.124l.576.708A7.528,7.528,0,0,0,48.2-8.484ZM51.78-9.876v4.332H50.316V-9.588h-.924V.348h.924V-4.74H51.78V.888h.948V-9.876ZM58.8-5.52H55.752V-7.128H58.8Zm.96-3.912H58.8v1.548H55.752V-9.432H54.78v4.7h4.98ZM56.844-1.188h5.844V-3.8h-6.84v.78h5.868v1.1H55.884V.768h7.2v-.78h-6.24ZM62.688-7.56v-2.3H61.7v5.556h.984V-6.744h1.6V-7.56Zm6.2-1.38H67.92v1.932a5.655,5.655,0,0,1-2.892,4.86l.6.8a5.981,5.981,0,0,0,2.784-3.612,5.845,5.845,0,0,0,2.772,3.408l.588-.792a5.354,5.354,0,0,1-2.88-4.668ZM72.9-9.876V.912h.984V-9.876ZM85.092-4.464c-1.884-.36-3.924-1.992-3.924-3.828V-9.12H80.136v.828c0,1.836-2.028,3.456-3.912,3.828l.444.816a5.911,5.911,0,0,0,3.984-3.108,5.84,5.84,0,0,0,4,3.108Zm-9.276,3.1v.816h9.756v-.816ZM92.616-3.5h.936V-9.7h-.936v2.532H91.188v.792h1.428Zm-1.008-1.62A16.792,16.792,0,0,1,88-4.836V-6.288h2.7v-.768H88V-8.388h3.12V-9.18H87.048v5.136h.684a19,19,0,0,0,3.96-.288ZM89.532-2.1H94.68V-.048H89.532ZM88.572.744H95.64V-2.88H88.572Zm6.12-10.62V-3.4h.948v-6.48Z" transform="translate(150 42)"/></g></svg>