<svg xmlns="http://www.w3.org/2000/svg" xmlns:xlink="http://www.w3.org/1999/xlink" width="508" height="224" viewBox="0 0 508 224"><defs><style>.a,.d{fill:none;}.b{clip-path:url(#a);}.c{fill:#fff;}.d{stroke:#fff;stroke-width:7px;opacity:0.5;}.e{filter:url(#d);}.f{filter:url(#b);}</style><clipPath id="a"><rect class="a" width="508" height="224" transform="translate(1334 271)"/></clipPath><filter id="b" x="60.58" y="0.5" width="384.96" height="88.24" filterUnits="userSpaceOnUse"><feOffset input="SourceAlpha"/><feGaussianBlur stdDeviation="8.5" result="c"/><feFlood flood-opacity="0.412"/><feComposite operator="in" in2="c"/><feComposite in="SourceGraphic"/></filter><filter id="d" x="34.626" y="76.316" width="441.1" height="148.374" filterUnits="userSpaceOnUse"><feOffset input="SourceAlpha"/><feGaussianBlur stdDeviation="9" result="e"/><feFlood flood-opacity="0.29"/><feComposite operator="in" in2="e"/><feComposite in="SourceGraphic"/></filter></defs><g class="b" transform="translate(-1334 -271)"><g transform="translate(10 -4.32)"><g class="f" transform="matrix(1, 0, 0, 1, 1324, 275.32)"><path class="c" d="M-164.6-14.6c4.28-.88,7.2-2.92,8.84-5.6,1.64,2.4,4.4,4.24,8.52,5.04l2.04-4.08c-5.36-.96-7.88-3.52-8.04-6.44h7.2v-4.08h-7.2v-3.6h-5.28v3.6h-7.2v4.08h7.2c-.16,3.12-2.68,5.96-8.2,7Zm20.04.48a183.6,183.6,0,0,1-23.36,1.08l.64,4.28c2.64,0,5.6,0,8.72-.12V2.32h5.28V-9.2a85.827,85.827,0,0,0,9.04-1.12Zm2.08-19.28V3.44h5.28V-33.4Zm35.2,32.24H-121.2V-4.48h13.92Zm0-7.32H-121.2V-12h-5.24V3h24.4V-12h-5.24Zm-15.4-10.2c-2.68,0-4.64-1.64-4.64-4.4s1.96-4.4,4.64-4.4c2.72,0,4.68,1.64,4.68,4.4S-119.96-18.68-122.68-18.68Zm15.36-14.72v8.12h-5.88c-1.04-3.92-4.8-6.6-9.48-6.6-5.52,0-9.68,3.68-9.68,8.8s4.16,8.8,9.68,8.8c4.76,0,8.52-2.72,9.52-6.72h5.84v7.4h5.28V-33.4Zm13.44,23.32h3.84l.84-14.76.2-5.56h-5.92l.2,5.56ZM-91.96.56a3.708,3.708,0,0,0,3.68-3.84,3.708,3.708,0,0,0-3.68-3.84A3.676,3.676,0,0,0-95.6-3.28,3.676,3.676,0,0,0-91.96.56Zm22.12-30.04h-5.24V-5.12h3.12a84.669,84.669,0,0,0,17-1.52l-.6-4.32A81.53,81.53,0,0,1-69.84-9.52Zm18.52-3.96v11.4h-9.92v4.28h9.92V3.56h5.28v-37Zm28.84,28.4v-7.68h10.52v-4.24h-20.6v-9.68h20.32v-4.24H-37.88v18.16h10.12v7.68h-14V-.72H-8.4V-5.04ZM22.6-30.68H14.4v-3H9.08v3H.88v3.96H22.6ZM7.76-19.8c0-1.56,1.56-2.32,4-2.32s4,.76,4,2.32c0,1.52-1.56,2.28-4,2.28S7.76-18.28,7.76-19.8Zm13.04,0c0-3.72-3.56-6.04-9.04-6.04-5.44,0-9.04,2.32-9.04,6.04,0,3.68,3.6,6,9.04,6C17.24-13.8,20.8-16.12,20.8-19.8ZM10.88-2.72H29.92v-9.36H5.6v3.84H24.72v1.92H5.64V3.16H30.96V-.68H10.88ZM29.92-25.6v-7.84H24.64v19.92h5.28v-7.76H34.8V-25.6Zm45.8,5.28c-8.36-1.16-12.6-5.96-12.6-10.24v-1.76H57.48v1.76c0,4.32-4.2,9.08-12.6,10.24l2,4.24c6.44-.96,11.08-3.96,13.44-7.92,2.36,3.96,6.96,6.96,13.4,7.92Zm1.2,6.96H43.64v4.28H57.52V3.48H62.8V-9.08H76.92ZM116.88-33.4h-5.32v20.84h5.32ZM96.8-27.12c2.8,0,4.88,1.68,4.88,4.44s-2.08,4.44-4.88,4.44-4.84-1.68-4.84-4.44S94-27.12,96.8-27.12Zm0,13.28c5.76,0,10.04-3.68,10.04-8.84s-4.28-8.84-10.04-8.84c-5.68,0-10,3.68-10,8.84S91.12-13.84,96.8-13.84Zm16.36,2.8h-5.2V-9.8a9.995,9.995,0,0,1-4.2,8,9.5,9.5,0,0,1-4.08-8v-1.24H94.56V-9.8c0,3.56-2,7.2-6.88,8.84l2.6,3.84a11.724,11.724,0,0,0,6.84-6.04,11.421,11.421,0,0,0,6.68,6.44,11.836,11.836,0,0,0,6.68-6.56,11.1,11.1,0,0,0,6.96,6.16l2.6-3.84c-4.88-1.48-6.88-5.04-6.88-8.84Zm18.4,1.72c-2.68,0-4.48-2.92-4.48-8.4,0-5.44,1.8-8.36,4.48-8.36,2.72,0,4.52,2.92,4.52,8.36C136.08-12.24,134.28-9.32,131.56-9.32Zm15.56-24.12v13.28h-6.16c-.72-6.64-4.44-10.68-9.4-10.68-5.48,0-9.52,5.04-9.52,13.12,0,8.12,4.04,13.2,9.52,13.2,5.12,0,8.88-4.32,9.44-11.36h6.12V3.52h5.28V-33.44Zm13.32,23.36h3.84l.84-14.76.2-5.56H159.4l.2,5.56ZM162.36.56a3.708,3.708,0,0,0,3.68-3.84,3.708,3.708,0,0,0-3.68-3.84,3.676,3.676,0,0,0-3.64,3.84A3.676,3.676,0,0,0,162.36.56Z" transform="translate(254 59.68)"/></g><g class="e" transform="matrix(1, 0, 0, 1, 1324, 275.32)"><path class="c" d="M-152.684-70.364q2.548,0,5.243,3.234t2.7,5.341q0,2.107-.735,2.107a10.482,10.482,0,0,1-2.793-.735A11.194,11.194,0,0,0-152-61.152q-3.822,0-9.261,3.92a57.051,57.051,0,0,0-10.29,9.7,58.951,58.951,0,0,0-8.281,13.181q-3.43,7.4-3.43,12.789t2.793,7.889a10.536,10.536,0,0,0,7.3,2.5,34.992,34.992,0,0,0,9.31-1.323,36.909,36.909,0,0,0,7.84-2.989q7.84-4.214,8.624-4.214,1.666,0,1.666,2.2t-4.508,5.88A48.754,48.754,0,0,1-161.406-5a30.106,30.106,0,0,1-11.956,2.94q-6.86,0-12.936-5.929t-6.076-13.083q0-9.212,6.027-20.825a69.374,69.374,0,0,1,15.484-20.041Q-161.406-70.364-152.684-70.364Zm41.748,20.286q4.41,0,8.134,4.459t3.724,8.036a13.269,13.269,0,0,1-2.45,7.3,4.377,4.377,0,0,1,1.176,2.548,60.723,60.723,0,0,1-1.225,9.408q-1.225,6.664-1.47,8.722t-.441,3.283q-.2,1.225-.49,2.4-.392,2.45-1.764,2.45-1.764,0-2.891-3.087a26.857,26.857,0,0,1-1.323-7.987Q-118.678-1.47-126.126-1.47q-4.508,0-8.869-3.871t-4.361-7.987q0-5.88,4.312-14.553a57.4,57.4,0,0,1,11.172-15.435Q-117.012-50.078-110.936-50.078Zm4.508,17.248q0-9.114-3.626-9.114-3.822,0-8.918,5.439a53.991,53.991,0,0,0-8.624,12.3q-3.528,6.86-3.528,10.878a3.214,3.214,0,0,0,1.372,2.7A5.239,5.239,0,0,0-126.518-9.6q4.606,0,10.388-6.223a34.077,34.077,0,0,0,8.036-15.141,2.048,2.048,0,0,1,1.666-1.764Zm21.266-5.292-.294-7.35q0-4.606,2.156-4.606,1.862,0,3.577,2.4a9.522,9.522,0,0,1,1.715,5.684,46,46,0,0,1-.2,4.949q8.526-12.936,16.17-12.936,4.8,0,4.8,2.352a2.883,2.883,0,0,1-1.078,2.156,18.2,18.2,0,0,1-3.43,2.254,21.952,21.952,0,0,0-8.771,6.909,41.613,41.613,0,0,0-5.831,10.535q-2.254,5.88-3.577,9.9T-81.928-9.6q-.686,2.254-1.568,4.41-1.568,3.92-3.626,3.92a3.054,3.054,0,0,1-2.695-1.911,7.832,7.832,0,0,1-1.029-3.724,31.284,31.284,0,0,1,1.666-7.2A77.4,77.4,0,0,0-85.162-38.122Zm32.438,0-.294-7.35q0-4.606,2.156-4.606,1.862,0,3.577,2.4a9.522,9.522,0,0,1,1.715,5.684,46,46,0,0,1-.2,4.949Q-37.24-49.98-29.6-49.98q4.8,0,4.8,2.352a2.883,2.883,0,0,1-1.078,2.156,18.2,18.2,0,0,1-3.43,2.254,21.952,21.952,0,0,0-8.771,6.909A41.613,41.613,0,0,0-43.9-25.774q-2.254,5.88-3.577,9.9T-49.49-9.6q-.686,2.254-1.568,4.41-1.568,3.92-3.626,3.92a3.054,3.054,0,0,1-2.695-1.911,7.832,7.832,0,0,1-1.029-3.724,31.284,31.284,0,0,1,1.666-7.2A77.4,77.4,0,0,0-52.724-38.122ZM12.152-50.078q1.568,0,3.381,2.3a8.112,8.112,0,0,1,1.813,5.145q0,1.96-4.018,13.328T7.889-13.867Q6.468-9.8,4.067-3.087T-.588,10q-4.9,14.014-14.7,14.014A19.029,19.029,0,0,1-25.97,20.629q-5.1-3.381-5.1-7.007a5.3,5.3,0,0,1,1.225-3.038q1.225-1.666,2.107-1.666t2.842,2.156q5.684,6.468,9.7,6.468,3.038,0,5.488-5.341A115.345,115.345,0,0,0-5.047.147q2.2-6.713,2.45-7.4t.588-1.764q.343-1.078.637-1.96Q-8.33-1.47-15.092-1.47q-4.116,0-7.6-3.822a12.954,12.954,0,0,1-3.479-9.016q0-5.194,2.548-14.014A80.244,80.244,0,0,1-17.64-43.61q3.43-6.468,5.586-6.468a4.473,4.473,0,0,1,3.283,1.617,4.822,4.822,0,0,1,1.519,3.283q0,1.666-2.548,6.958-7.938,16.268-7.938,25.284a3.615,3.615,0,0,0,.98,2.6A3.133,3.133,0,0,0-14.406-9.31q3.528,0,8.428-6.272a80.333,80.333,0,0,0,9.016-14.9A166.554,166.554,0,0,0,10.192-49Q10.584-50.078,12.152-50.078ZM61.936-61.152q-6.174,0-13.671,6.762a59.564,59.564,0,0,0-12.789,16.9Q30.184-27.342,30.184-18.62a8.684,8.684,0,0,0,2.254,6.027,6.919,6.919,0,0,0,5.292,2.5q4.7,0,11.025-5.145A58.8,58.8,0,0,0,60.466-28.518a35.182,35.182,0,0,1-8.134,1.47,7.213,7.213,0,0,1-4.508-1.421q-1.862-1.421-1.862-2.695,0-1.568,4.214-2.5a50.226,50.226,0,0,1,10.584-.931,6.814,6.814,0,0,1,5.733,2.989A11.4,11.4,0,0,1,68.7-24.647q0,3.969-4.9,18.669t-7.4,14.7q-2.5,0-2.5-2.842a27.5,27.5,0,0,1,1.421-7.448q1.421-4.7,2.989-9.653t2.548-8.085A45.355,45.355,0,0,1,49.98-6.419Q43.9-1.666,38.171-1.666T26.852-7.007q-5.586-5.341-5.586-11.711,0-9.9,6.272-22.05A73.518,73.518,0,0,1,43.316-61.593q9.506-8.673,17.836-8.673,2.744,0,5.39,3.283t2.646,5.292q0,2.009-1.078,2.009a11.752,11.752,0,0,1-2.156-.735A10.845,10.845,0,0,0,61.936-61.152Zm56.84,27.293q0,5.243-5.635,8.526A24.837,24.837,0,0,1,100.4-22.05a49.221,49.221,0,0,1-12.887-1.568,25.726,25.726,0,0,0-1.372,7.693,6.629,6.629,0,0,0,2.107,5.243Q90.356-8.82,95.207-8.82a31.529,31.529,0,0,0,10-1.715,50.1,50.1,0,0,1,5.635-1.715q2.548,0,2.548,1.96,0,2.646-5.978,5.733A25.33,25.33,0,0,1,95.746-1.47Q88.1-1.47,83.3-6.027a15.2,15.2,0,0,1-4.8-11.515A33.053,33.053,0,0,1,82.222-32.1a40.78,40.78,0,0,1,9.6-12.789q5.88-5.194,11.662-5.194t10.535,5.488Q118.776-39.1,118.776-33.859Zm-14.8-8.477q-3.626,0-7.546,3.773A33.055,33.055,0,0,0,89.768-29.2a40.815,40.815,0,0,0,8.918.882,21.758,21.758,0,0,0,8.722-1.617q3.724-1.617,3.724-4.263a8.292,8.292,0,0,0-2.4-5.39Q106.33-42.336,103.978-42.336Zm83.2-7.742q2.94,0,5.243,4.067a18.365,18.365,0,0,1,2.3,9.212,65.123,65.123,0,0,1-1.813,13.377A79.351,79.351,0,0,1,188.062-8.33q-3.038,6.86-5.978,6.86-2.058,0-2.058-2.695t3.381-13.23q3.381-10.535,3.381-16.758t-1.96-6.223q-2.45,0-5.635,4.312t-6.811,10.388q-3.626,6.076-3.92,6.517t-.735,1.225q-.441.784-.98,1.666T164-10.976a66.66,66.66,0,0,1-3.871,6.909q-1.666,2.5-2.891,2.5a4.006,4.006,0,0,1-2.7-1.568,4.49,4.49,0,0,1-1.47-2.94q0-1.372,1.764-5.684,5.1-12.74,5.1-23.716a6.475,6.475,0,0,0-.882-3.479,2.435,2.435,0,0,0-1.96-1.421,3.687,3.687,0,0,0-2.254.931,18.116,18.116,0,0,0-2.94,3.332q-1.764,2.4-3.136,4.557T144.6-24.843q-2.793,4.557-4.214,6.762l-3.283,5.1q-1.862,2.891-2.891,4.459t-2.3,3.43q-2.646,3.626-3.871,3.626t-3.185-2.205q-1.96-2.205-1.96-3.332a12.6,12.6,0,0,1,.392-2.793q.392-1.666.833-3.234t1.372-4.655q.931-3.087,2.156-7.252a61.394,61.394,0,0,0,1.862-11.466q.637-7.3.931-10.682T132.1-50.47a5.963,5.963,0,0,1,4.263,2.254,6.676,6.676,0,0,1,2.107,4.508q0,8.624-6.468,28.42,10.976-20.58,13.818-24.4t4.9-6.174q3.822-4.214,7.742-4.214,2.352,0,5.635,4.067a13.011,13.011,0,0,1,3.283,8.183,55.323,55.323,0,0,1-1.176,10.192Q177.772-50.078,187.18-50.078Z" transform="translate(254 173.68)"/></g><path class="d" d="M-1404,374h-18v62.5h18" transform="translate(2765 9)"/><path class="d" d="M-1422,374h18v62.5h-18" transform="translate(3217 9)"/></g></g></svg>