<svg xmlns="http://www.w3.org/2000/svg" xmlns:xlink="http://www.w3.org/1999/xlink" width="508" height="224" viewBox="0 0 508 224"><defs><style>.a,.d{fill:none;}.b{clip-path:url(#a);}.c{fill:#fff;}.d{stroke:#fff;stroke-width:7px;opacity:0.5;}.e{filter:url(#d);}.f{filter:url(#b);}</style><clipPath id="a"><rect class="a" width="508" height="224" transform="translate(748 271)"/></clipPath><filter id="b" x="0.62" y="0.5" width="507.28" height="94.72" filterUnits="userSpaceOnUse"><feOffset input="SourceAlpha"/><feGaussianBlur stdDeviation="8.5" result="c"/><feFlood flood-opacity="0.412"/><feComposite operator="in" in2="c"/><feComposite in="SourceGraphic"/></filter><filter id="d" x="34.626" y="76.316" width="441.1" height="148.374" filterUnits="userSpaceOnUse"><feOffset input="SourceAlpha"/><feGaussianBlur stdDeviation="9" result="e"/><feFlood flood-opacity="0.29"/><feComposite operator="in" in2="e"/><feComposite in="SourceGraphic"/></filter></defs><g class="b" transform="translate(-748 -271)"><g transform="translate(8 -4.32)"><g class="f" transform="matrix(1, 0, 0, 1, 740, 275.32)"><path class="c" d="M-225.76-28.24h-2.12V-6.72h2.12a63.048,63.048,0,0,0,13-1.24l-.28-1.88a60.04,60.04,0,0,1-12.72,1.2Zm23.8-4.52v14.92h-6.16V-31.88h-2.04V.88h2.04V-15.96h6.16V2.8h2.04V-32.76Zm36.2,0h-2.12v18.52h2.12Zm-25.8,9.2c0-3.4,2.92-5.96,6.88-5.96s6.88,2.56,6.88,5.96c0,3.44-2.92,5.96-6.88,5.96S-191.56-20.12-191.56-23.56Zm15.84,0c0-4.6-3.72-7.76-8.96-7.76s-8.96,3.16-8.96,7.76,3.72,7.72,8.96,7.72S-175.72-18.96-175.72-23.56ZM-186.12.48V-4.44h20.36v-7.88h-22.56v1.76h20.48v4.44H-188.2V2.24h23.84V.48Zm34.08,7.24L-150.6,7a36.78,36.78,0,0,1-5.28-19.32,36.882,36.882,0,0,1,5.28-19.32l-1.44-.76a36.884,36.884,0,0,0-5.84,20.08A36.748,36.748,0,0,0-152.04,7.72Zm2.64,2.32c3.48,0,5.04-2.2,5.04-6.44V-21.32h-2.36V3.52c0,2.68-.44,4.56-2.8,4.56a6.69,6.69,0,0,1-2.2-.44l-.52,1.84A7.159,7.159,0,0,0-149.4,10.04Zm3.88-36.36a1.864,1.864,0,0,0,1.96-1.84,1.858,1.858,0,0,0-1.96-1.92,1.826,1.826,0,0,0-1.92,1.92A1.83,1.83,0,0,0-145.52-26.32ZM-130.12.52c5.16,0,9.64-4.08,9.64-11.16,0-7.12-4.48-11.24-9.64-11.24s-9.64,4.12-9.64,11.24C-139.76-3.56-135.28.52-130.12.52Zm0-2c-4.16,0-7.2-3.72-7.2-9.16s3.04-9.2,7.2-9.2,7.24,3.76,7.24,9.2S-125.96-1.48-130.12-1.48Zm22.84,2c5,0,9.4-4.24,9.4-11.52,0-6.56-2.88-10.88-8.56-10.88-2.56,0-5.08,1.48-7.2,3.28l.12-4.08V-31.8h-2.32V0h1.88l.28-2.16h.08A10.541,10.541,0,0,0-107.28.52Zm-.2-2.04a9.614,9.614,0,0,1-6.04-2.6V-16.44c2.4-2.2,4.6-3.4,6.64-3.4,4.76,0,6.52,3.72,6.52,8.84C-100.36-5.28-103.32-1.52-107.48-1.52ZM-94.4,7.72a36.748,36.748,0,0,0,5.84-20.04A36.884,36.884,0,0,0-94.4-32.4l-1.44.76a36.882,36.882,0,0,1,5.28,19.32A36.78,36.78,0,0,1-95.84,7ZM-68-30.4c6.2,0,10.12,1.72,10.12,4.52,0,2.84-3.92,4.56-10.12,4.56s-10.12-1.72-10.12-4.56C-78.12-28.68-74.2-30.4-68-30.4Zm0,10.76c7.72,0,12.28-2.2,12.28-6.24,0-4-4.56-6.2-12.28-6.2s-12.28,2.2-12.28,6.2C-80.28-21.84-75.72-19.64-68-19.64Zm-9.88,15.6H-56.2v-7.32H-80.04v1.72h21.76v3.96H-79.96V2.28h24.92V.52H-77.88Zm-6.2-12.8v1.8h32.12v-1.8ZM-20.4-28.36h-9.44v-4.72h-2.12v4.72h-9.48v1.76H-20.4ZM-37.32-18.2c0-2.68,2.6-4.52,6.4-4.52s6.36,1.84,6.36,4.52-2.56,4.52-6.36,4.52S-37.32-15.52-37.32-18.2Zm14.76,0c0-3.84-3.32-6.2-8.36-6.2-5.08,0-8.4,2.36-8.4,6.2S-36-12-30.92-12C-25.88-12-22.56-14.36-22.56-18.2ZM-25.16.96c-5.68,0-9.28-1.6-9.28-4.32,0-2.68,3.6-4.28,9.28-4.28,5.64,0,9.24,1.6,9.24,4.28C-15.92-.64-19.52.96-25.16.96Zm0-10.32c-7.08,0-11.36,2.2-11.36,6,0,3.84,4.28,6.04,11.36,6.04,7.04,0,11.32-2.2,11.32-6.04C-13.84-7.16-18.12-9.36-25.16-9.36Zm16.48-14.8v-1.8H-14.2v-6.76h-2.12V-9.64h2.12v-7h5.52v-1.84H-14.2v-5.68ZM14.8-28H5.36v-4.68H3.24V-28H-6.24v1.76H14.8ZM-2.12-17.36c0-2.84,2.6-4.8,6.4-4.8s6.36,1.96,6.36,4.8c0,2.76-2.56,4.76-6.36,4.76S-2.12-14.6-2.12-17.36Zm14.76,0c0-3.96-3.32-6.52-8.36-6.52s-8.4,2.56-8.4,6.52c0,3.92,3.36,6.48,8.4,6.48S12.64-13.44,12.64-17.36ZM1.44-8.2H-.68V1.92H22.76V.12H1.44ZM21-20.52V-32.68H18.88V-6H21V-18.72h5.56v-1.8ZM49-19H41.8v-7.88H49Zm5.2-12.04H36.64V-14.8H54.2ZM65.04-6.92v-4.12H40.36v4.12h9.32c-.76,2.8-4.28,5.48-10.92,6.24l1.92,4c5.88-.76,9.96-3.08,12.04-6.16,2.12,3.08,6.16,5.48,12,6.2l1.88-4c-6.52-.8-10.04-3.56-10.88-6.28ZM64.56-25.4v-8H59.28v20.6h5.28v-8.28h4.88V-25.4Zm9.12,8.36c6.76-.44,11.4-2.28,13.68-5.12,2.32,2.84,6.92,4.68,13.68,5.12l1.56-3.92c-7.96-.48-11.52-2.72-12.16-5.16h10.4V-30.2H90v-3.2H84.72v3.2H73.96v4.08H84.32c-.64,2.44-4.2,4.68-12.16,5.12ZM94.88-1.12H79.8V-4.6H94.88Zm9.16-10.44v-4.16H70.76v4.16H84.72v2.8H74.64V3.04h25.44V-8.76H90v-2.8Zm27.44,1.6h5.28V-33.4h-5.28v8.08h-4.72v4.2h4.72v3.16h-4.8v4.2h4.8Zm-5.2-20.12h-7.2v-3.6H113.8v3.6h-7.72v4.16h20.2ZM112.72-17.76c0-1.92,1.48-2.96,3.72-2.96,2.2,0,3.72,1.04,3.72,2.96s-1.52,2.96-3.72,2.96C114.2-14.8,112.72-15.84,112.72-17.76Zm12.32,0c0-4.08-3.56-6.88-8.6-6.88-5.08,0-8.64,2.8-8.64,6.88s3.56,6.88,8.64,6.88C121.48-10.88,125.04-13.68,125.04-17.76Zm-.72,17.2c-4.56,0-7.04-.76-7.04-2.44,0-1.72,2.48-2.44,7.04-2.44,4.52,0,7.04.72,7.04,2.44C131.36-1.32,128.84-.56,124.32-.56Zm0-8.92c-7.76,0-12.64,2.4-12.64,6.48,0,4.04,4.88,6.44,12.64,6.44s12.6-2.4,12.6-6.44C136.92-7.08,132.08-9.48,124.32-9.48ZM152-16.8c6.88-.76,11.4-3.6,13.28-7.36,1.96,3.76,6.44,6.6,13.28,7.36l1.92-4.12c-7.2-.8-10.84-3.76-11.44-6.72h9.92v-4.2H151.68v4.2h9.88c-.64,2.92-4.32,5.92-11.44,6.72Zm5.76,9h-5.28V2.8h25.8V-1.4H157.76Zm-9.16-7.24v4.16h14.52v6.24h5.28v-6.24H182v-4.16Zm60.48-18.4V3.52h5.28V-33.44Zm-23.44,2.96v25.4H203.8v-25.4h-5.24v8.92h-7.68v-8.92Zm5.24,13.04h7.68v8.16h-7.68Zm31.92,7.36h3.84l.84-14.76.2-5.56h-5.92l.2,5.56ZM224.72.56a3.708,3.708,0,0,0,3.68-3.84,3.708,3.708,0,0,0-3.68-3.84,3.676,3.676,0,0,0-3.64,3.84A3.676,3.676,0,0,0,224.72.56Z" transform="translate(254 59.68)"/></g><g class="e" transform="matrix(1, 0, 0, 1, 740, 275.32)"><path class="c" d="M-152.684-70.364q2.548,0,5.243,3.234t2.7,5.341q0,2.107-.735,2.107a10.482,10.482,0,0,1-2.793-.735A11.194,11.194,0,0,0-152-61.152q-3.822,0-9.261,3.92a57.051,57.051,0,0,0-10.29,9.7,58.951,58.951,0,0,0-8.281,13.181q-3.43,7.4-3.43,12.789t2.793,7.889a10.536,10.536,0,0,0,7.3,2.5,34.992,34.992,0,0,0,9.31-1.323,36.909,36.909,0,0,0,7.84-2.989q7.84-4.214,8.624-4.214,1.666,0,1.666,2.2t-4.508,5.88A48.754,48.754,0,0,1-161.406-5a30.106,30.106,0,0,1-11.956,2.94q-6.86,0-12.936-5.929t-6.076-13.083q0-9.212,6.027-20.825a69.374,69.374,0,0,1,15.484-20.041Q-161.406-70.364-152.684-70.364Zm41.748,20.286q4.41,0,8.134,4.459t3.724,8.036a13.269,13.269,0,0,1-2.45,7.3,4.377,4.377,0,0,1,1.176,2.548,60.723,60.723,0,0,1-1.225,9.408q-1.225,6.664-1.47,8.722t-.441,3.283q-.2,1.225-.49,2.4-.392,2.45-1.764,2.45-1.764,0-2.891-3.087a26.857,26.857,0,0,1-1.323-7.987Q-118.678-1.47-126.126-1.47q-4.508,0-8.869-3.871t-4.361-7.987q0-5.88,4.312-14.553a57.4,57.4,0,0,1,11.172-15.435Q-117.012-50.078-110.936-50.078Zm4.508,17.248q0-9.114-3.626-9.114-3.822,0-8.918,5.439a53.991,53.991,0,0,0-8.624,12.3q-3.528,6.86-3.528,10.878a3.214,3.214,0,0,0,1.372,2.7A5.239,5.239,0,0,0-126.518-9.6q4.606,0,10.388-6.223a34.077,34.077,0,0,0,8.036-15.141,2.048,2.048,0,0,1,1.666-1.764Zm21.266-5.292-.294-7.35q0-4.606,2.156-4.606,1.862,0,3.577,2.4a9.522,9.522,0,0,1,1.715,5.684,46,46,0,0,1-.2,4.949q8.526-12.936,16.17-12.936,4.8,0,4.8,2.352a2.883,2.883,0,0,1-1.078,2.156,18.2,18.2,0,0,1-3.43,2.254,21.952,21.952,0,0,0-8.771,6.909,41.613,41.613,0,0,0-5.831,10.535q-2.254,5.88-3.577,9.9T-81.928-9.6q-.686,2.254-1.568,4.41-1.568,3.92-3.626,3.92a3.054,3.054,0,0,1-2.695-1.911,7.832,7.832,0,0,1-1.029-3.724,31.284,31.284,0,0,1,1.666-7.2A77.4,77.4,0,0,0-85.162-38.122Zm32.438,0-.294-7.35q0-4.606,2.156-4.606,1.862,0,3.577,2.4a9.522,9.522,0,0,1,1.715,5.684,46,46,0,0,1-.2,4.949Q-37.24-49.98-29.6-49.98q4.8,0,4.8,2.352a2.883,2.883,0,0,1-1.078,2.156,18.2,18.2,0,0,1-3.43,2.254,21.952,21.952,0,0,0-8.771,6.909A41.613,41.613,0,0,0-43.9-25.774q-2.254,5.88-3.577,9.9T-49.49-9.6q-.686,2.254-1.568,4.41-1.568,3.92-3.626,3.92a3.054,3.054,0,0,1-2.695-1.911,7.832,7.832,0,0,1-1.029-3.724,31.284,31.284,0,0,1,1.666-7.2A77.4,77.4,0,0,0-52.724-38.122ZM12.152-50.078q1.568,0,3.381,2.3a8.112,8.112,0,0,1,1.813,5.145q0,1.96-4.018,13.328T7.889-13.867Q6.468-9.8,4.067-3.087T-.588,10q-4.9,14.014-14.7,14.014A19.029,19.029,0,0,1-25.97,20.629q-5.1-3.381-5.1-7.007a5.3,5.3,0,0,1,1.225-3.038q1.225-1.666,2.107-1.666t2.842,2.156q5.684,6.468,9.7,6.468,3.038,0,5.488-5.341A115.345,115.345,0,0,0-5.047.147q2.2-6.713,2.45-7.4t.588-1.764q.343-1.078.637-1.96Q-8.33-1.47-15.092-1.47q-4.116,0-7.6-3.822a12.954,12.954,0,0,1-3.479-9.016q0-5.194,2.548-14.014A80.244,80.244,0,0,1-17.64-43.61q3.43-6.468,5.586-6.468a4.473,4.473,0,0,1,3.283,1.617,4.822,4.822,0,0,1,1.519,3.283q0,1.666-2.548,6.958-7.938,16.268-7.938,25.284a3.615,3.615,0,0,0,.98,2.6A3.133,3.133,0,0,0-14.406-9.31q3.528,0,8.428-6.272a80.333,80.333,0,0,0,9.016-14.9A166.554,166.554,0,0,0,10.192-49Q10.584-50.078,12.152-50.078ZM61.936-61.152q-6.174,0-13.671,6.762a59.564,59.564,0,0,0-12.789,16.9Q30.184-27.342,30.184-18.62a8.684,8.684,0,0,0,2.254,6.027,6.919,6.919,0,0,0,5.292,2.5q4.7,0,11.025-5.145A58.8,58.8,0,0,0,60.466-28.518a35.182,35.182,0,0,1-8.134,1.47,7.213,7.213,0,0,1-4.508-1.421q-1.862-1.421-1.862-2.695,0-1.568,4.214-2.5a50.226,50.226,0,0,1,10.584-.931,6.814,6.814,0,0,1,5.733,2.989A11.4,11.4,0,0,1,68.7-24.647q0,3.969-4.9,18.669t-7.4,14.7q-2.5,0-2.5-2.842a27.5,27.5,0,0,1,1.421-7.448q1.421-4.7,2.989-9.653t2.548-8.085A45.355,45.355,0,0,1,49.98-6.419Q43.9-1.666,38.171-1.666T26.852-7.007q-5.586-5.341-5.586-11.711,0-9.9,6.272-22.05A73.518,73.518,0,0,1,43.316-61.593q9.506-8.673,17.836-8.673,2.744,0,5.39,3.283t2.646,5.292q0,2.009-1.078,2.009a11.752,11.752,0,0,1-2.156-.735A10.845,10.845,0,0,0,61.936-61.152Zm56.84,27.293q0,5.243-5.635,8.526A24.837,24.837,0,0,1,100.4-22.05a49.221,49.221,0,0,1-12.887-1.568,25.726,25.726,0,0,0-1.372,7.693,6.629,6.629,0,0,0,2.107,5.243Q90.356-8.82,95.207-8.82a31.529,31.529,0,0,0,10-1.715,50.1,50.1,0,0,1,5.635-1.715q2.548,0,2.548,1.96,0,2.646-5.978,5.733A25.33,25.33,0,0,1,95.746-1.47Q88.1-1.47,83.3-6.027a15.2,15.2,0,0,1-4.8-11.515A33.053,33.053,0,0,1,82.222-32.1a40.78,40.78,0,0,1,9.6-12.789q5.88-5.194,11.662-5.194t10.535,5.488Q118.776-39.1,118.776-33.859Zm-14.8-8.477q-3.626,0-7.546,3.773A33.055,33.055,0,0,0,89.768-29.2a40.815,40.815,0,0,0,8.918.882,21.758,21.758,0,0,0,8.722-1.617q3.724-1.617,3.724-4.263a8.292,8.292,0,0,0-2.4-5.39Q106.33-42.336,103.978-42.336Zm83.2-7.742q2.94,0,5.243,4.067a18.365,18.365,0,0,1,2.3,9.212,65.123,65.123,0,0,1-1.813,13.377A79.351,79.351,0,0,1,188.062-8.33q-3.038,6.86-5.978,6.86-2.058,0-2.058-2.695t3.381-13.23q3.381-10.535,3.381-16.758t-1.96-6.223q-2.45,0-5.635,4.312t-6.811,10.388q-3.626,6.076-3.92,6.517t-.735,1.225q-.441.784-.98,1.666T164-10.976a66.66,66.66,0,0,1-3.871,6.909q-1.666,2.5-2.891,2.5a4.006,4.006,0,0,1-2.7-1.568,4.49,4.49,0,0,1-1.47-2.94q0-1.372,1.764-5.684,5.1-12.74,5.1-23.716a6.475,6.475,0,0,0-.882-3.479,2.435,2.435,0,0,0-1.96-1.421,3.687,3.687,0,0,0-2.254.931,18.116,18.116,0,0,0-2.94,3.332q-1.764,2.4-3.136,4.557T144.6-24.843q-2.793,4.557-4.214,6.762l-3.283,5.1q-1.862,2.891-2.891,4.459t-2.3,3.43q-2.646,3.626-3.871,3.626t-3.185-2.205q-1.96-2.205-1.96-3.332a12.6,12.6,0,0,1,.392-2.793q.392-1.666.833-3.234t1.372-4.655q.931-3.087,2.156-7.252a61.394,61.394,0,0,0,1.862-11.466q.637-7.3.931-10.682T132.1-50.47a5.963,5.963,0,0,1,4.263,2.254,6.676,6.676,0,0,1,2.107,4.508q0,8.624-6.468,28.42,10.976-20.58,13.818-24.4t4.9-6.174q3.822-4.214,7.742-4.214,2.352,0,5.635,4.067a13.011,13.011,0,0,1,3.283,8.183,55.323,55.323,0,0,1-1.176,10.192Q177.772-50.078,187.18-50.078Z" transform="translate(254 173.68)"/></g><path class="d" d="M-1404,374h-18v62.5h18" transform="translate(2181 9)"/><path class="d" d="M-1422,374h18v62.5h-18" transform="translate(2633 9)"/></g></g></svg>