<svg xmlns="http://www.w3.org/2000/svg" xmlns:xlink="http://www.w3.org/1999/xlink" width="508" height="224" viewBox="0 0 508 224"><defs><style>.a,.d{fill:none;}.b{clip-path:url(#a);}.c{fill:#fff;}.d{stroke:#fff;stroke-width:7px;opacity:0.5;}.e{filter:url(#d);}.f{filter:url(#b);}</style><clipPath id="a"><rect class="a" width="508" height="224" transform="translate(117 275)"/></clipPath><filter id="b" x="76.8" y="0.5" width="354.56" height="87.96" filterUnits="userSpaceOnUse"><feOffset input="SourceAlpha"/><feGaussianBlur stdDeviation="8.5" result="c"/><feFlood flood-opacity="0.412"/><feComposite operator="in" in2="c"/><feComposite in="SourceGraphic"/></filter><filter id="d" x="34.626" y="76.076" width="441.1" height="148.374" filterUnits="userSpaceOnUse"><feOffset input="SourceAlpha"/><feGaussianBlur stdDeviation="9" result="e"/><feFlood flood-opacity="0.29"/><feComposite operator="in" in2="e"/><feComposite in="SourceGraphic"/></filter></defs><g class="b" transform="translate(-117 -275)"><g transform="translate(5 -0.56)"><g class="f" transform="matrix(1, 0, 0, 1, 112, 275.56)"><path class="c" d="M-149.58-8.24V-29.28h-2.12V-6.4h2.68a85.549,85.549,0,0,0,16.96-1.64l-.32-1.8a82.051,82.051,0,0,1-16.64,1.6Zm29.44-9.92h-6.16v-14.6h-2.12V2.8h2.12V-16.32h6.16Zm17.68,3H-114.3V-27.64h11.84Zm2.04-14.24h-15.96v16h15.96ZM-110.3-9.08h-2.12v11h23.44V.12H-110.3ZM-90.74-21.6V-32.8h-2.12V-6.64h2.12V-19.8h5.56v-1.8Zm19.4-8.4c-5.52,0-9.36,3.28-9.36,8.12s3.84,8.12,9.36,8.12,9.36-3.28,9.36-8.12S-65.82-30-71.34-30Zm0,1.84c4.24,0,7.32,2.64,7.32,6.28s-3.08,6.28-7.32,6.28-7.32-2.64-7.32-6.28S-75.58-28.16-71.34-28.16Zm14.8-4.56V2.84h2.12V-32.72ZM-82.34-5.36c6.48,0,15.32,0,23.48-1.48l-.2-1.64c-7.92,1.24-17,1.28-23.64,1.28Zm43.2-24.52v4.2H-27.5a36.108,36.108,0,0,1-.8,4.92l-12.8.72.68,4.44,10.52-.96c-2.12,4.04-5.68,7.44-11.4,10.44l2.88,4c13.2-6.92,16.16-16.44,16.16-27.76Zm23.68-3.52v14.12h-6.88V-15h6.88V3.44h5.28V-33.4ZM1.58-16.04H13.54V-30.28H-3.86v4.2h12v5.88H-3.82V-5.04H-.5A101.03,101.03,0,0,0,17.58-6.32l-.56-4.28A92.191,92.191,0,0,1,1.58-9.4Zm18-17.4V3.52h5.28V-33.44ZM39.5-9.32c-2.68,0-4.48-2.92-4.48-8.4,0-5.44,1.8-8.36,4.48-8.36,2.72,0,4.52,2.92,4.52,8.36C44.02-12.24,42.22-9.32,39.5-9.32ZM55.06-33.44v13.28H48.9c-.72-6.64-4.44-10.68-9.4-10.68-5.48,0-9.52,5.04-9.52,13.12,0,8.12,4.04,13.2,9.52,13.2,5.12,0,8.88-4.32,9.44-11.36h6.12V3.52h5.28V-33.44Zm49.24,17.4C95.98-17.48,91.42-23.2,91.42-28.6v-2.64H85.78v2.64c0,5.28-4.6,11.12-12.88,12.56l2.24,4.4c6.4-1.24,11.08-4.84,13.44-9.52,2.36,4.68,7.08,8.24,13.48,9.52ZM72.1-5.32v4.28h33.36V-5.32Zm51.44-18.52v4.28h3.36v8.64h4.92V-32.84H126.9v9Zm-8.92-2.56h2.72v10.04c-.88.04-1.84.04-2.72.08Zm10.4,9.44c-.96.12-1.92.2-2.96.28V-26.4h2.4v-4.24H107.62v4.24h2.28v10.2h-2.88l.52,4.28c4.72,0,12.12-.12,17.76-1.2Zm-12,11.88h20.56V3.48h5.28V-9.24H113.02ZM133.86-33.4v22.64h5V-33.4Zm12.4,23.32h3.84l.84-14.76.2-5.56h-5.92l.2,5.56ZM148.18.56a3.708,3.708,0,0,0,3.68-3.84,3.708,3.708,0,0,0-3.68-3.84,3.676,3.676,0,0,0-3.64,3.84A3.676,3.676,0,0,0,148.18.56Z" transform="translate(254 59.44)"/></g><g class="e" transform="matrix(1, 0, 0, 1, 112, 275.56)"><path class="c" d="M-152.684-70.364q2.548,0,5.243,3.234t2.7,5.341q0,2.107-.735,2.107a10.482,10.482,0,0,1-2.793-.735A11.194,11.194,0,0,0-152-61.152q-3.822,0-9.261,3.92a57.051,57.051,0,0,0-10.29,9.7,58.951,58.951,0,0,0-8.281,13.181q-3.43,7.4-3.43,12.789t2.793,7.889a10.536,10.536,0,0,0,7.3,2.5,34.992,34.992,0,0,0,9.31-1.323,36.909,36.909,0,0,0,7.84-2.989q7.84-4.214,8.624-4.214,1.666,0,1.666,2.2t-4.508,5.88A48.754,48.754,0,0,1-161.406-5a30.106,30.106,0,0,1-11.956,2.94q-6.86,0-12.936-5.929t-6.076-13.083q0-9.212,6.027-20.825a69.374,69.374,0,0,1,15.484-20.041Q-161.406-70.364-152.684-70.364Zm41.748,20.286q4.41,0,8.134,4.459t3.724,8.036a13.269,13.269,0,0,1-2.45,7.3,4.377,4.377,0,0,1,1.176,2.548,60.723,60.723,0,0,1-1.225,9.408q-1.225,6.664-1.47,8.722t-.441,3.283q-.2,1.225-.49,2.4-.392,2.45-1.764,2.45-1.764,0-2.891-3.087a26.857,26.857,0,0,1-1.323-7.987Q-118.678-1.47-126.126-1.47q-4.508,0-8.869-3.871t-4.361-7.987q0-5.88,4.312-14.553a57.4,57.4,0,0,1,11.172-15.435Q-117.012-50.078-110.936-50.078Zm4.508,17.248q0-9.114-3.626-9.114-3.822,0-8.918,5.439a53.991,53.991,0,0,0-8.624,12.3q-3.528,6.86-3.528,10.878a3.214,3.214,0,0,0,1.372,2.7A5.239,5.239,0,0,0-126.518-9.6q4.606,0,10.388-6.223a34.077,34.077,0,0,0,8.036-15.141,2.048,2.048,0,0,1,1.666-1.764Zm21.266-5.292-.294-7.35q0-4.606,2.156-4.606,1.862,0,3.577,2.4a9.522,9.522,0,0,1,1.715,5.684,46,46,0,0,1-.2,4.949q8.526-12.936,16.17-12.936,4.8,0,4.8,2.352a2.883,2.883,0,0,1-1.078,2.156,18.2,18.2,0,0,1-3.43,2.254,21.952,21.952,0,0,0-8.771,6.909,41.613,41.613,0,0,0-5.831,10.535q-2.254,5.88-3.577,9.9T-81.928-9.6q-.686,2.254-1.568,4.41-1.568,3.92-3.626,3.92a3.054,3.054,0,0,1-2.695-1.911,7.832,7.832,0,0,1-1.029-3.724,31.284,31.284,0,0,1,1.666-7.2A77.4,77.4,0,0,0-85.162-38.122Zm32.438,0-.294-7.35q0-4.606,2.156-4.606,1.862,0,3.577,2.4a9.522,9.522,0,0,1,1.715,5.684,46,46,0,0,1-.2,4.949Q-37.24-49.98-29.6-49.98q4.8,0,4.8,2.352a2.883,2.883,0,0,1-1.078,2.156,18.2,18.2,0,0,1-3.43,2.254,21.952,21.952,0,0,0-8.771,6.909A41.613,41.613,0,0,0-43.9-25.774q-2.254,5.88-3.577,9.9T-49.49-9.6q-.686,2.254-1.568,4.41-1.568,3.92-3.626,3.92a3.054,3.054,0,0,1-2.695-1.911,7.832,7.832,0,0,1-1.029-3.724,31.284,31.284,0,0,1,1.666-7.2A77.4,77.4,0,0,0-52.724-38.122ZM12.152-50.078q1.568,0,3.381,2.3a8.112,8.112,0,0,1,1.813,5.145q0,1.96-4.018,13.328T7.889-13.867Q6.468-9.8,4.067-3.087T-.588,10q-4.9,14.014-14.7,14.014A19.029,19.029,0,0,1-25.97,20.629q-5.1-3.381-5.1-7.007a5.3,5.3,0,0,1,1.225-3.038q1.225-1.666,2.107-1.666t2.842,2.156q5.684,6.468,9.7,6.468,3.038,0,5.488-5.341A115.345,115.345,0,0,0-5.047.147q2.2-6.713,2.45-7.4t.588-1.764q.343-1.078.637-1.96Q-8.33-1.47-15.092-1.47q-4.116,0-7.6-3.822a12.954,12.954,0,0,1-3.479-9.016q0-5.194,2.548-14.014A80.244,80.244,0,0,1-17.64-43.61q3.43-6.468,5.586-6.468a4.473,4.473,0,0,1,3.283,1.617,4.822,4.822,0,0,1,1.519,3.283q0,1.666-2.548,6.958-7.938,16.268-7.938,25.284a3.615,3.615,0,0,0,.98,2.6A3.133,3.133,0,0,0-14.406-9.31q3.528,0,8.428-6.272a80.333,80.333,0,0,0,9.016-14.9A166.554,166.554,0,0,0,10.192-49Q10.584-50.078,12.152-50.078ZM61.936-61.152q-6.174,0-13.671,6.762a59.564,59.564,0,0,0-12.789,16.9Q30.184-27.342,30.184-18.62a8.684,8.684,0,0,0,2.254,6.027,6.919,6.919,0,0,0,5.292,2.5q4.7,0,11.025-5.145A58.8,58.8,0,0,0,60.466-28.518a35.182,35.182,0,0,1-8.134,1.47,7.213,7.213,0,0,1-4.508-1.421q-1.862-1.421-1.862-2.695,0-1.568,4.214-2.5a50.226,50.226,0,0,1,10.584-.931,6.814,6.814,0,0,1,5.733,2.989A11.4,11.4,0,0,1,68.7-24.647q0,3.969-4.9,18.669t-7.4,14.7q-2.5,0-2.5-2.842a27.5,27.5,0,0,1,1.421-7.448q1.421-4.7,2.989-9.653t2.548-8.085A45.355,45.355,0,0,1,49.98-6.419Q43.9-1.666,38.171-1.666T26.852-7.007q-5.586-5.341-5.586-11.711,0-9.9,6.272-22.05A73.518,73.518,0,0,1,43.316-61.593q9.506-8.673,17.836-8.673,2.744,0,5.39,3.283t2.646,5.292q0,2.009-1.078,2.009a11.752,11.752,0,0,1-2.156-.735A10.845,10.845,0,0,0,61.936-61.152Zm56.84,27.293q0,5.243-5.635,8.526A24.837,24.837,0,0,1,100.4-22.05a49.221,49.221,0,0,1-12.887-1.568,25.726,25.726,0,0,0-1.372,7.693,6.629,6.629,0,0,0,2.107,5.243Q90.356-8.82,95.207-8.82a31.529,31.529,0,0,0,10-1.715,50.1,50.1,0,0,1,5.635-1.715q2.548,0,2.548,1.96,0,2.646-5.978,5.733A25.33,25.33,0,0,1,95.746-1.47Q88.1-1.47,83.3-6.027a15.2,15.2,0,0,1-4.8-11.515A33.053,33.053,0,0,1,82.222-32.1a40.78,40.78,0,0,1,9.6-12.789q5.88-5.194,11.662-5.194t10.535,5.488Q118.776-39.1,118.776-33.859Zm-14.8-8.477q-3.626,0-7.546,3.773A33.055,33.055,0,0,0,89.768-29.2a40.815,40.815,0,0,0,8.918.882,21.758,21.758,0,0,0,8.722-1.617q3.724-1.617,3.724-4.263a8.292,8.292,0,0,0-2.4-5.39Q106.33-42.336,103.978-42.336Zm83.2-7.742q2.94,0,5.243,4.067a18.365,18.365,0,0,1,2.3,9.212,65.123,65.123,0,0,1-1.813,13.377A79.351,79.351,0,0,1,188.062-8.33q-3.038,6.86-5.978,6.86-2.058,0-2.058-2.695t3.381-13.23q3.381-10.535,3.381-16.758t-1.96-6.223q-2.45,0-5.635,4.312t-6.811,10.388q-3.626,6.076-3.92,6.517t-.735,1.225q-.441.784-.98,1.666T164-10.976a66.66,66.66,0,0,1-3.871,6.909q-1.666,2.5-2.891,2.5a4.006,4.006,0,0,1-2.7-1.568,4.49,4.49,0,0,1-1.47-2.94q0-1.372,1.764-5.684,5.1-12.74,5.1-23.716a6.475,6.475,0,0,0-.882-3.479,2.435,2.435,0,0,0-1.96-1.421,3.687,3.687,0,0,0-2.254.931,18.116,18.116,0,0,0-2.94,3.332q-1.764,2.4-3.136,4.557T144.6-24.843q-2.793,4.557-4.214,6.762l-3.283,5.1q-1.862,2.891-2.891,4.459t-2.3,3.43q-2.646,3.626-3.871,3.626t-3.185-2.205q-1.96-2.205-1.96-3.332a12.6,12.6,0,0,1,.392-2.793q.392-1.666.833-3.234t1.372-4.655q.931-3.087,2.156-7.252a61.394,61.394,0,0,0,1.862-11.466q.637-7.3.931-10.682T132.1-50.47a5.963,5.963,0,0,1,4.263,2.254,6.676,6.676,0,0,1,2.107,4.508q0,8.624-6.468,28.42,10.976-20.58,13.818-24.4t4.9-6.174q3.822-4.214,7.742-4.214,2.352,0,5.635,4.067a13.011,13.011,0,0,1,3.283,8.183,55.323,55.323,0,0,1-1.176,10.192Q177.772-50.078,187.18-50.078Z" transform="translate(254 173.44)"/></g><path class="d" d="M-1404,374h-18v62.5h18" transform="translate(1553 9)"/><path class="d" d="M-1422,374h18v62.5h-18" transform="translate(2005 9)"/></g></g></svg>