<svg xmlns="http://www.w3.org/2000/svg" width="72.585" height="82.5" viewBox="0 0 72.585 82.5"><defs><style>.a{fill:none;stroke:#fff;stroke-linecap:round;stroke-linejoin:round;stroke-width:2.5px;}</style></defs><g transform="translate(-700.958 -427.692)"><path class="a" d="M737.25,508.942a6.273,6.273,0,0,0,6.273-6.274H730.977A6.274,6.274,0,0,0,737.25,508.942Z"/><path class="a" d="M755.464,465.529a18.214,18.214,0,1,0-32.43,11.363,28.815,28.815,0,0,1,5.878,11.957,3.517,3.517,0,0,1,1.529-.359H744.06a3.512,3.512,0,0,1,1.547.369,31.4,31.4,0,0,1,6.015-12.162A18.077,18.077,0,0,0,755.464,465.529Z"/><path class="a" d="M728.912,488.849a3.537,3.537,0,0,0,1.529,6.73H744.06a3.536,3.536,0,0,0,1.547-6.72"/><path class="a" d="M743.523,502.668h.537a3.544,3.544,0,1,0,0-7.089H730.441a3.544,3.544,0,1,0,0,7.089h.536"/><line class="a" y1="5.826" transform="translate(737.25 428.942)"/><line class="a" x1="4.12" y1="4.12" transform="translate(712.472 439.205)"/><line class="a" x1="5.826" transform="translate(702.208 463.984)"/><line class="a" x1="4.12" y2="4.12" transform="translate(712.472 484.643)"/><line class="a" x2="4.12" y2="4.12" transform="translate(757.909 484.643)"/><line class="a" x2="5.826" transform="translate(766.467 463.984)"/><line class="a" y1="4.12" x2="4.12" transform="translate(757.909 439.205)"/></g></svg>