<svg xmlns="http://www.w3.org/2000/svg" width="34.231" height="32" viewBox="0 0 34.231 32"><defs><style>.a{fill:none;stroke:#fff;stroke-linecap:round;stroke-linejoin:round;stroke-width:2px;}.b{fill:#fff;}</style></defs><g transform="translate(-830.808 -157.915)"><path class="a" d="M864.039,164.243c0,2.943-5.328,9.517-5.328,9.517s-5.328-6.574-5.328-9.517a5.328,5.328,0,0,1,10.656,0Z"/><circle class="b" cx="2" cy="2" r="2" transform="translate(856.711 162.243)"/><path class="a" d="M842.464,179.243c0,2.943-5.328,9.517-5.328,9.517s-5.328-6.574-5.328-9.517a5.328,5.328,0,0,1,10.656,0Z"/><circle class="b" cx="2" cy="2" r="2" transform="translate(835.136 177.243)"/><path class="a" d="M837.178,188.915h15.509a3.789,3.789,0,0,0,3.789-3.788h0a3.789,3.789,0,0,0-3.789-3.789H851.37a3.788,3.788,0,0,1-3.789-3.789h0a3.789,3.789,0,0,1,3.789-3.789h7.57"/></g></svg>