<svg xmlns="http://www.w3.org/2000/svg" width="32" height="32" viewBox="0 0 32 32"><defs><style>.a{fill:none;stroke:#fff;stroke-linecap:round;stroke-linejoin:round;stroke-width:2px;}</style></defs><path class="a" d="M1190.638,177.657v-4.448l-4.695-.932a10.656,10.656,0,0,0-.788-1.9l2.662-3.981-3.146-3.145-3.98,2.662a10.728,10.728,0,0,0-1.9-.789l-.932-4.694h-4.449l-.932,4.694a10.761,10.761,0,0,0-1.9.789l-3.98-2.662-3.146,3.145,2.662,3.981a10.656,10.656,0,0,0-.788,1.9l-4.694.932v4.448l4.694.932a10.728,10.728,0,0,0,.788,1.9l-2.662,3.981,3.146,3.145,3.98-2.662a10.653,10.653,0,0,0,1.9.788l.932,4.695h4.449l.932-4.695a10.65,10.65,0,0,0,1.9-.788l3.98,2.662,3.146-3.145-2.662-3.981a10.656,10.656,0,0,0,.788-1.9Zm-15,1.328a3.552,3.552,0,1,1,3.552-3.552A3.553,3.553,0,0,1,1175.638,178.985Z" transform="translate(-1159.638 -159.433)"/></svg>