<svg xmlns="http://www.w3.org/2000/svg" width="30.488" height="32" viewBox="0 0 30.488 32"><defs><style>.a{fill:none;stroke:#fff;stroke-linecap:round;stroke-linejoin:round;stroke-width:2px;}</style></defs><g transform="translate(-1205.127 -154.251)"><path class="a" d="M0,0H22.3a0,0,0,0,1,0,0V17.415a4.88,4.88,0,0,1-4.88,4.88H4.88A4.88,4.88,0,0,1,0,17.415V0A0,0,0,0,1,0,0Z" transform="translate(1206.127 162.956)"/><path class="a" d="M0,0H2.984a3.21,3.21,0,0,1,3.21,3.21v5.4a3.21,3.21,0,0,1-3.21,3.21H0a0,0,0,0,1,0,0V0A0,0,0,0,1,0,0Z" transform="translate(1228.422 162.956)"/><line class="a" y1="3.839" transform="translate(1211.728 155.251)"/><line class="a" y1="3.839" transform="translate(1217.274 155.251)"/><line class="a" y1="3.839" transform="translate(1222.821 155.251)"/></g></svg>