<svg xmlns="http://www.w3.org/2000/svg" width="82.5" height="73.915" viewBox="0 0 82.5 73.915"><defs><style>.a{fill:none;stroke:#fff;stroke-linecap:round;stroke-linejoin:round;stroke-width:2.5px;}</style></defs><g transform="translate(-1119.928 -434.779)"><path class="a" d="M1149.721,453.154h-21.015a7.529,7.529,0,0,0-7.528,7.529v46.761l11.21-16.267h32.719a7.528,7.528,0,0,0,7.529-7.528v-9.6h-15.387a7.528,7.528,0,0,1-7.528-7.528Z"/><path class="a" d="M1149.721,443.557v9.6h15.386a7.529,7.529,0,0,1,7.529,7.529v13.369h17.332l11.21,16.267V443.557a7.528,7.528,0,0,0-7.528-7.528h-36.4A7.528,7.528,0,0,0,1149.721,443.557Z"/><path class="a" d="M1149.721,453.154v13.37a7.528,7.528,0,0,0,7.528,7.528h15.387V460.683a7.529,7.529,0,0,0-7.529-7.529Z"/></g></svg>