<svg xmlns="http://www.w3.org/2000/svg" width="62" height="61.272" viewBox="0 0 62 61.272"><defs><style>.a{fill:#8daddb;}.a,.b{stroke:#000;stroke-linecap:round;stroke-linejoin:round;stroke-width:2px;}.b{fill:#fff;}</style></defs><g transform="translate(-1775.25 -496.508)"><path class="a" d="M1804.181,499.773c2.932,2.932,2.069,8.548,2.069,8.548s-5.616.863-8.548-2.069-2.068-8.547-2.068-8.547S1801.25,496.842,1804.181,499.773Z"/><path class="a" d="M1776.25,533.925v22.854h60v-7.5h-52.533v-7.857h52.533v-7.5Z"/><rect class="b" width="46.454" height="7.857" transform="translate(1783.717 541.423)"/><path class="b" d="M1815.171,506.866a28.076,28.076,0,0,1-17.842,0c-6.059,1.775-8.713,9.185-5.928,16.551,2.609,6.9,9.063,11.311,14.849,10.386,5.786.925,12.24-3.487,14.848-10.386C1823.884,516.051,1821.23,508.641,1815.171,506.866Z"/></g></svg>