<svg xmlns="http://www.w3.org/2000/svg" width="184.5" height="58.314" viewBox="0 0 184.5 58.314"><defs><style>.a{fill:#f4b223;}.b,.c,.d{fill:#002e6d;}.b{stroke:rgba(0,0,0,0);}.c{stroke:#002e6d;stroke-miterlimit:10;stroke-width:0.25px;}</style></defs><g transform="translate(-820.786 -376.252)"><path class="a" d="M868.746,376.252h-.006a6.349,6.349,0,0,0-5.677,6.325c0,11.834,0,25.984,0,32.655,0,.378-.025,1-.059,1.376-.017.227-.04.455-.065.684a15.6,15.6,0,0,1-.279,1.65,17.541,17.541,0,0,1-.593,2,16.606,16.606,0,0,1-1.832,3.6,16.782,16.782,0,0,1-1.25,1.646,17.738,17.738,0,0,1-4.274,3.649,19.245,19.245,0,0,1-2.966,1.477,20.813,20.813,0,0,1-2.392.764c-.4.1-.816.182-1.23.248-.346.054-.69.11-1.038.15-.312.035-.623.059-.935.091a17.614,17.614,0,0,1-2.077.049c-.307,0-.616-.037-.921-.057-.282-.022-.565-.054-.849-.091a19.482,19.482,0,0,1-3.1-.657,18.284,18.284,0,0,1-2.907-1.157,18.521,18.521,0,0,1-2.909-1.8q-.627-.479-1.221-1.008c-.224-.2-.431-.42-.65-.628-.048-.046-.1-.091-.148-.136v-.014a16.967,16.967,0,0,1-4.121-6.779c-.136-.418-.316-1.111-.407-1.54-.059-.278-.114-.559-.148-.841-.04-.349-.108-.694-.14-1.043-.012-.154-.035-.306-.035-.461-.051-11.156-.032-21.555-.025-33.815a6.353,6.353,0,0,0-5.68-6.328l-.025,0c0,11.522,0,24.273.008,35.8,0,.529.035,1.063.079,1.594a22.6,22.6,0,0,0,.307,2.278c.094.531.222,1.059.364,1.58.13.475.273.947.435,1.413.185.535.393,1.059.617,1.579a20.333,20.333,0,0,0,.958,1.947,21.653,21.653,0,0,0,1.4,2.2c.429.589.877,1.162,1.356,1.707a21.1,21.1,0,0,0,1.6,1.646c.452.41.9.822,1.384,1.2a24.328,24.328,0,0,0,2.281,1.616c.716.443,1.447.855,2.2,1.227a23.757,23.757,0,0,0,2.4,1.029,25.3,25.3,0,0,0,2.936.867c.738.174,1.48.306,2.227.409.515.072,1.035.123,1.557.159.756.052,1.515.079,2.271.066.608-.008,1.217-.045,1.826-.1.711-.06,1.417-.156,2.12-.275.545-.091,1.083-.211,1.619-.338a23.77,23.77,0,0,0,2.582-.776c.734-.265,1.447-.577,2.154-.9a23.735,23.735,0,0,0,2.236-1.2c.64-.384,1.256-.8,1.856-1.247.46-.341.9-.7,1.336-1.074a21.442,21.442,0,0,0,1.631-1.549,22.141,22.141,0,0,0,2.039-2.452c.324-.455.637-.915.932-1.39a22.251,22.251,0,0,0,2.088-4.409c.188-.543.349-1.1.494-1.653a20.294,20.294,0,0,0,.452-2.265c.071-.512.122-1.028.16-1.546.07-.92.053-1.839.053-2.754,0-11.053,0-23.331,0-34.383" transform="translate(0 0)"/><path class="a" d="M857.271,376.252a6.349,6.349,0,0,0-5.675,6.327c0,13.334,0,30.4.006,37.125a8.372,8.372,0,0,1-.1,1.251,9.128,9.128,0,0,1-.481,1.846,8.989,8.989,0,0,1-1.471,2.532,9.773,9.773,0,0,1-5.37,3.324c-.393.088-.787.16-1.188.211a10.511,10.511,0,0,1-1.142.079,10.76,10.76,0,0,1-1.261-.079,9.847,9.847,0,0,1-2.048-.452,10.023,10.023,0,0,1-2.214-1.055,9.426,9.426,0,0,1-1.893-1.568,9.17,9.17,0,0,1-2.048-3.484,8.221,8.221,0,0,1-.306-1.369,8.319,8.319,0,0,1-.085-1.251l-.014-.015c0-3.689,0-22.163-.008-37.1a6.35,6.35,0,0,0-5.678-6.324h-.012c0,11.047.008,33.3.015,40.308a10.991,10.991,0,0,0,.085,1.148c.015.165.039.327.062.491.049.37.131.736.205,1.1a11.349,11.349,0,0,0,.543,1.844,14.267,14.267,0,0,0,2.085,3.713,14.923,14.923,0,0,0,1.563,1.736,15.3,15.3,0,0,0,2.878,2.149c.394.227.8.434,1.213.63a14.243,14.243,0,0,0,1.886.744,15.4,15.4,0,0,0,1.765.449c.347.063.691.125,1.042.174.295.04.593.062.889.093a13.712,13.712,0,0,0,1.631.056c.4,0,1.062-.048,1.463-.094s.8-.1,1.194-.179a16.106,16.106,0,0,0,1.677-.412,15.883,15.883,0,0,0,2.551-1.014,15.633,15.633,0,0,0,2.853-1.842,16.363,16.363,0,0,0,1.568-1.467,14.593,14.593,0,0,0,2.628-3.975,14.084,14.084,0,0,0,.7-1.954c.119-.426.211-.858.287-1.293a8.618,8.618,0,0,0,.13-.937c.019-.228.056-.455.057-.685.056-6.5.04-29.314.031-40.785Z" transform="translate(2.983 0)"/><path class="a" d="M845.816,376.252h0a6.348,6.348,0,0,0-5.677,6.324c0,14.633,0,27.468,0,41.117a1.3,1.3,0,0,1-1.021,1.279,1.321,1.321,0,0,1-1.61-1,1.191,1.191,0,0,1-.039-.312c0-13.638,0-26.461,0-41.084a6.353,6.353,0,0,0-5.68-6.327h-.019c0,15.474,0,42.1.017,44.316a6.269,6.269,0,0,0,.653,2.8,6.755,6.755,0,0,0,1.775,2.222,7.229,7.229,0,0,0,2.321,1.271,6.092,6.092,0,0,0,1.244.278,7.293,7.293,0,0,0,1.143.082,10.077,10.077,0,0,0,1.1-.111,7.037,7.037,0,0,0,2.12-.693,7.149,7.149,0,0,0,1.487-1.022,6.661,6.661,0,0,0,1.64-2.224,5.986,5.986,0,0,0,.452-1.458,7.581,7.581,0,0,0,.1-1.386c-.029-8.184-.017-32.506-.006-44.076" transform="translate(5.965 0)"/><path class="b" d="M858.482,403.521c-.65-.27-1.212-.5-1.212-.975,0-.437.4-.75.958-.75a2.418,2.418,0,0,1,1.457.579l.065.059.6-1.131-.034-.037a2.93,2.93,0,0,0-2.082-.753,2.165,2.165,0,0,0-2.347,2.052c0,1.234,1.091,1.708,1.964,2.088.67.289,1.245.537,1.245,1.023,0,.56-.494.759-.92.759a2.66,2.66,0,0,1-1.646-.7l-.057-.054-.748,1.043.035.039a3.322,3.322,0,0,0,2.4.957,2.105,2.105,0,0,0,2.31-2.072c0-1.3-1.1-1.753-1.989-2.123" transform="translate(18.976 13.175)"/><path class="b" d="M862.569,407.584a4.106,4.106,0,0,1-.954-.1,2.656,2.656,0,0,1-.747-.3,2.129,2.129,0,0,1-.551-.477,2.249,2.249,0,0,1-.363-.631,2.783,2.783,0,0,1-.159-.627,5.522,5.522,0,0,1-.048-.767v-3.977h1.236v3.865a2.946,2.946,0,0,0,.171,1.12,1.276,1.276,0,0,0,.56.65,1.992,1.992,0,0,0,1.736,0,1.272,1.272,0,0,0,.562-.65,2.941,2.941,0,0,0,.171-1.12v-3.865h1.237v3.977a5.749,5.749,0,0,1-.048.767,2.787,2.787,0,0,1-.159.627,2.3,2.3,0,0,1-.367.631,2.076,2.076,0,0,1-.56.477,2.775,2.775,0,0,1-.759.3,4.151,4.151,0,0,1-.96.1" transform="translate(21.159 13.28)"/><path class="c" d="M862.569,407.584a4.106,4.106,0,0,1-.954-.1,2.656,2.656,0,0,1-.747-.3,2.129,2.129,0,0,1-.551-.477,2.249,2.249,0,0,1-.363-.631,2.783,2.783,0,0,1-.159-.627,5.522,5.522,0,0,1-.048-.767v-3.977h1.236v3.865a2.946,2.946,0,0,0,.171,1.12,1.276,1.276,0,0,0,.56.65,1.992,1.992,0,0,0,1.736,0,1.272,1.272,0,0,0,.562-.65,2.941,2.941,0,0,0,.171-1.12v-3.865h1.237v3.977a5.749,5.749,0,0,1-.048.767,2.787,2.787,0,0,1-.159.627,2.3,2.3,0,0,1-.367.631,2.076,2.076,0,0,1-.56.477,2.775,2.775,0,0,1-.759.3A4.151,4.151,0,0,1,862.569,407.584Z" transform="translate(21.159 13.28)"/><path class="b" d="M868.719,402.481q-.2.942-.454,1.947l-.758,3.027h-1.231l-2.145-6.751h1.318l.812,2.69c.245.844.445,1.609.6,2.29h.031q.222-1.1.515-2.254l.7-2.725h1.271l.7,2.725c.195.762.369,1.515.515,2.254h.031q.278-1.211.6-2.29l.812-2.69h1.319l-2.146,6.751h-1.231l-.756-3.027c-.173-.682-.324-1.333-.455-1.947Z" transform="translate(23.54 13.28)"/><path class="c" d="M868.719,402.481q-.2.942-.454,1.947l-.758,3.027h-1.231l-2.145-6.751h1.318l.812,2.69c.245.844.445,1.609.6,2.29h.031q.222-1.1.515-2.254l.7-2.725h1.271l.7,2.725c.195.762.369,1.515.515,2.254h.031q.278-1.211.6-2.29l.812-2.69h1.319l-2.146,6.751h-1.231l-.756-3.027c-.173-.682-.324-1.333-.455-1.947Z" transform="translate(23.54 13.28)"/><path class="b" d="M877.207,404.125a4.355,4.355,0,0,1-.221,1.417,3.12,3.12,0,0,1-.642,1.108,2.905,2.905,0,0,1-1.034.722,3.909,3.909,0,0,1-2.792,0,2.889,2.889,0,0,1-1.034-.722,3.121,3.121,0,0,1-.642-1.108,4.685,4.685,0,0,1,0-2.832,3.127,3.127,0,0,1,.642-1.109,2.887,2.887,0,0,1,1.034-.721,3.909,3.909,0,0,1,2.792,0,2.9,2.9,0,0,1,1.034.721,3.127,3.127,0,0,1,.642,1.109,4.353,4.353,0,0,1,.221,1.415m-1.279,0a3.488,3.488,0,0,0-.15-1.077,2.21,2.21,0,0,0-.42-.768,1.68,1.68,0,0,0-.636-.46,2.212,2.212,0,0,0-1.616,0,1.667,1.667,0,0,0-.636.46,2.184,2.184,0,0,0-.418.768,3.872,3.872,0,0,0,0,2.154,2.157,2.157,0,0,0,.418.768,1.7,1.7,0,0,0,.636.458,2.172,2.172,0,0,0,1.616,0,1.71,1.71,0,0,0,.636-.458,2.182,2.182,0,0,0,.42-.768,3.467,3.467,0,0,0,.15-1.077" transform="translate(27.066 13.235)"/><path class="c" d="M877.207,404.125a4.355,4.355,0,0,1-.221,1.417,3.12,3.12,0,0,1-.642,1.108,2.905,2.905,0,0,1-1.034.722,3.909,3.909,0,0,1-2.792,0,2.889,2.889,0,0,1-1.034-.722,3.121,3.121,0,0,1-.642-1.108,4.685,4.685,0,0,1,0-2.832,3.127,3.127,0,0,1,.642-1.109,2.887,2.887,0,0,1,1.034-.721,3.909,3.909,0,0,1,2.792,0,2.9,2.9,0,0,1,1.034.721,3.127,3.127,0,0,1,.642,1.109A4.353,4.353,0,0,1,877.207,404.125Zm-1.279,0a3.488,3.488,0,0,0-.15-1.077,2.21,2.21,0,0,0-.42-.768,1.68,1.68,0,0,0-.636-.46,2.212,2.212,0,0,0-1.616,0,1.667,1.667,0,0,0-.636.46,2.184,2.184,0,0,0-.418.768,3.872,3.872,0,0,0,0,2.154,2.157,2.157,0,0,0,.418.768,1.7,1.7,0,0,0,.636.458,2.172,2.172,0,0,0,1.616,0,1.71,1.71,0,0,0,.636-.458,2.182,2.182,0,0,0,.42-.768A3.467,3.467,0,0,0,875.928,404.125Z" transform="translate(27.066 13.235)"/><path class="b" d="M879.391,403.844q.729,1.035,1.182,1.836h.029c-.038-.878-.06-1.517-.06-1.918v-3.057h1.238v6.751h-1.3l-2.2-3.108c-.387-.54-.789-1.162-1.2-1.873h-.029c.04.829.06,1.469.06,1.924v3.057h-1.236v-6.751h1.3Z" transform="translate(29.917 13.28)"/><path class="c" d="M879.391,403.844q.729,1.035,1.182,1.836h.029c-.038-.878-.06-1.517-.06-1.918v-3.057h1.238v6.751h-1.3l-2.2-3.108c-.387-.54-.789-1.162-1.2-1.873h-.029c.04.829.06,1.469.06,1.924v3.057h-1.236v-6.751h1.3Z" transform="translate(29.917 13.28)"/><path class="d" d="M885.766,403.607c-.65-.272-1.21-.5-1.21-.978,0-.432.4-.748.957-.748a2.429,2.429,0,0,1,1.457.579l.065.06.6-1.133-.034-.037a2.93,2.93,0,0,0-2.078-.75,2.165,2.165,0,0,0-2.35,2.049c0,1.236,1.091,1.71,1.968,2.089.667.289,1.242.537,1.242,1.023,0,.562-.494.759-.918.759a2.656,2.656,0,0,1-1.648-.7l-.057-.054-.748,1.042.037.042a3.328,3.328,0,0,0,2.4.957,2.1,2.1,0,0,0,2.308-2.071c0-1.3-1.1-1.756-1.989-2.125" transform="translate(33.793 13.223)"/><path class="b" d="M890.346,401.755a2.514,2.514,0,0,0-.932.167,1.987,1.987,0,0,0-.731.483,2.217,2.217,0,0,0-.477.785,3.084,3.084,0,0,0-.171,1.066,3.185,3.185,0,0,0,.156,1.049,2.034,2.034,0,0,0,.449.753,1.873,1.873,0,0,0,.714.458,2.8,2.8,0,0,0,.957.153,5.459,5.459,0,0,0,.782-.059,4.716,4.716,0,0,0,.747-.179V407.5a5.211,5.211,0,0,1-.761.159,5.843,5.843,0,0,1-.849.06,4.271,4.271,0,0,1-1.511-.247,2.956,2.956,0,0,1-1.088-.69,2.916,2.916,0,0,1-.656-1.069,4.174,4.174,0,0,1-.219-1.376,4.282,4.282,0,0,1,.235-1.435,3.339,3.339,0,0,1,.677-1.143,3.01,3.01,0,0,1,1.1-.762,3.883,3.883,0,0,1,1.5-.284,5.424,5.424,0,0,1,.812.057,4.039,4.039,0,0,1,.693.165v1.051a5.059,5.059,0,0,0-.753-.179,4.9,4.9,0,0,0-.68-.048" transform="translate(35.827 13.282)"/><path class="c" d="M890.346,401.755a2.514,2.514,0,0,0-.932.167,1.987,1.987,0,0,0-.731.483,2.217,2.217,0,0,0-.477.785,3.084,3.084,0,0,0-.171,1.066,3.185,3.185,0,0,0,.156,1.049,2.034,2.034,0,0,0,.449.753,1.873,1.873,0,0,0,.714.458,2.8,2.8,0,0,0,.957.153,5.459,5.459,0,0,0,.782-.059,4.716,4.716,0,0,0,.747-.179V407.5a5.211,5.211,0,0,1-.761.159,5.843,5.843,0,0,1-.849.06,4.271,4.271,0,0,1-1.511-.247,2.956,2.956,0,0,1-1.088-.69,2.916,2.916,0,0,1-.656-1.069,4.174,4.174,0,0,1-.219-1.376,4.282,4.282,0,0,1,.235-1.435,3.339,3.339,0,0,1,.677-1.143,3.01,3.01,0,0,1,1.1-.762,3.883,3.883,0,0,1,1.5-.284,5.424,5.424,0,0,1,.812.057,4.039,4.039,0,0,1,.693.165v1.051a5.059,5.059,0,0,0-.753-.179A4.9,4.9,0,0,0,890.346,401.755Z" transform="translate(35.827 13.282)"/><rect class="b" width="1.237" height="6.754" transform="translate(929.136 414.118)"/><rect class="c" width="1.237" height="6.754" transform="translate(929.136 414.118)"/><path class="b" d="M894.223,406.51h3.321v1.035h-4.558v-6.754h4.376v1.034h-3.139v1.746h2.694v1.035h-2.694Z" transform="translate(39.21 13.327)"/><path class="c" d="M894.223,406.51h3.321v1.035h-4.558v-6.754h4.376v1.034h-3.139v1.746h2.694v1.035h-2.694Z" transform="translate(39.21 13.327)"/><path class="b" d="M900.442,403.931q.727,1.035,1.182,1.836h.029c-.04-.88-.06-1.517-.06-1.917v-3.06h1.236v6.754h-1.3l-2.2-3.109c-.387-.54-.785-1.164-1.2-1.872H898.1q.062,1.238.062,1.923v3.058h-1.239v-6.754h1.3Z" transform="translate(41.348 13.327)"/><path class="c" d="M900.442,403.931q.727,1.035,1.182,1.836h.029c-.04-.88-.06-1.517-.06-1.917v-3.06h1.236v6.754h-1.3l-2.2-3.109c-.387-.54-.785-1.164-1.2-1.872H898.1q.062,1.238.062,1.923v3.058h-1.239v-6.754h1.3Z" transform="translate(41.348 13.327)"/><path class="b" d="M905.323,401.755a2.507,2.507,0,0,0-.931.167,1.982,1.982,0,0,0-.733.483,2.256,2.256,0,0,0-.475.785,3.077,3.077,0,0,0-.173,1.066,3.233,3.233,0,0,0,.157,1.049,1.994,1.994,0,0,0,.449.753,1.875,1.875,0,0,0,.714.458,2.8,2.8,0,0,0,.957.153,5.457,5.457,0,0,0,.782-.059,4.659,4.659,0,0,0,.745-.179V407.5a5.092,5.092,0,0,1-.761.159,5.831,5.831,0,0,1-.849.06,4.253,4.253,0,0,1-1.508-.247,2.961,2.961,0,0,1-1.089-.69,2.914,2.914,0,0,1-.656-1.069,4.133,4.133,0,0,1-.221-1.376,4.239,4.239,0,0,1,.236-1.435,3.292,3.292,0,0,1,.676-1.143,3.032,3.032,0,0,1,1.107-.762,3.879,3.879,0,0,1,1.5-.284,5.474,5.474,0,0,1,.813.057,3.977,3.977,0,0,1,.688.165v1.051a4.989,4.989,0,0,0-.75-.179,4.91,4.91,0,0,0-.682-.048" transform="translate(43.961 13.282)"/><path class="c" d="M905.323,401.755a2.507,2.507,0,0,0-.931.167,1.982,1.982,0,0,0-.733.483,2.256,2.256,0,0,0-.475.785,3.077,3.077,0,0,0-.173,1.066,3.233,3.233,0,0,0,.157,1.049,1.994,1.994,0,0,0,.449.753,1.875,1.875,0,0,0,.714.458,2.8,2.8,0,0,0,.957.153,5.457,5.457,0,0,0,.782-.059,4.659,4.659,0,0,0,.745-.179V407.5a5.092,5.092,0,0,1-.761.159,5.831,5.831,0,0,1-.849.06,4.253,4.253,0,0,1-1.508-.247,2.961,2.961,0,0,1-1.089-.69,2.914,2.914,0,0,1-.656-1.069,4.133,4.133,0,0,1-.221-1.376,4.239,4.239,0,0,1,.236-1.435,3.292,3.292,0,0,1,.676-1.143,3.032,3.032,0,0,1,1.107-.762,3.879,3.879,0,0,1,1.5-.284,5.474,5.474,0,0,1,.813.057,3.977,3.977,0,0,1,.688.165v1.051a4.989,4.989,0,0,0-.75-.179A4.91,4.91,0,0,0,905.323,401.755Z" transform="translate(43.961 13.282)"/><path class="b" d="M907.218,406.51h3.321v1.035h-4.56v-6.754h4.377v1.034h-3.139v1.746h2.7v1.035h-2.7Z" transform="translate(46.266 13.327)"/><path class="c" d="M907.218,406.51h3.321v1.035h-4.56v-6.754h4.377v1.034h-3.139v1.746h2.7v1.035h-2.7Z" transform="translate(46.266 13.327)"/><path class="b" d="M915.318,401.754a2.5,2.5,0,0,0-.932.168,1.975,1.975,0,0,0-.731.483,2.24,2.24,0,0,0-.478.785,3.081,3.081,0,0,0-.171,1.066,3.226,3.226,0,0,0,.156,1.049,2.014,2.014,0,0,0,.451.753,1.862,1.862,0,0,0,.714.458,2.793,2.793,0,0,0,.955.153,5.444,5.444,0,0,0,.782-.059,4.644,4.644,0,0,0,.747-.179V407.5a5.312,5.312,0,0,1-.762.157,5.78,5.78,0,0,1-.849.06,4.259,4.259,0,0,1-1.508-.247,2.942,2.942,0,0,1-1.088-.69,2.876,2.876,0,0,1-.656-1.071,4.114,4.114,0,0,1-.221-1.375,4.244,4.244,0,0,1,.236-1.435,3.345,3.345,0,0,1,.676-1.145,3.051,3.051,0,0,1,1.1-.761,3.885,3.885,0,0,1,1.5-.284,5.454,5.454,0,0,1,.812.057,3.989,3.989,0,0,1,.691.165v1.051A5.045,5.045,0,0,0,916,401.8a4.929,4.929,0,0,0-.681-.049" transform="translate(49.388 13.282)"/><path class="c" d="M915.318,401.754a2.5,2.5,0,0,0-.932.168,1.975,1.975,0,0,0-.731.483,2.24,2.24,0,0,0-.478.785,3.081,3.081,0,0,0-.171,1.066,3.226,3.226,0,0,0,.156,1.049,2.014,2.014,0,0,0,.451.753,1.862,1.862,0,0,0,.714.458,2.793,2.793,0,0,0,.955.153,5.444,5.444,0,0,0,.782-.059,4.644,4.644,0,0,0,.747-.179V407.5a5.312,5.312,0,0,1-.762.157,5.78,5.78,0,0,1-.849.06,4.259,4.259,0,0,1-1.508-.247,2.942,2.942,0,0,1-1.088-.69,2.876,2.876,0,0,1-.656-1.071,4.114,4.114,0,0,1-.221-1.375,4.244,4.244,0,0,1,.236-1.435,3.345,3.345,0,0,1,.676-1.145,3.051,3.051,0,0,1,1.1-.761,3.885,3.885,0,0,1,1.5-.284,5.454,5.454,0,0,1,.812.057,3.989,3.989,0,0,1,.691.165v1.051A5.045,5.045,0,0,0,916,401.8,4.929,4.929,0,0,0,915.318,401.754Z" transform="translate(49.388 13.282)"/><path class="b" d="M922.36,404.212a4.36,4.36,0,0,1-.221,1.417,3.094,3.094,0,0,1-.642,1.108,2.851,2.851,0,0,1-1.034.721,3.887,3.887,0,0,1-2.792,0,2.861,2.861,0,0,1-1.034-.721,3.143,3.143,0,0,1-.642-1.108,4.678,4.678,0,0,1,0-2.83,3.137,3.137,0,0,1,.642-1.109,2.907,2.907,0,0,1,1.034-.724,3.931,3.931,0,0,1,2.792,0,2.9,2.9,0,0,1,1.034.724,3.088,3.088,0,0,1,.642,1.109,4.348,4.348,0,0,1,.221,1.413m-1.278,0a3.469,3.469,0,0,0-.151-1.076,2.171,2.171,0,0,0-.418-.772,1.671,1.671,0,0,0-.636-.458,2.212,2.212,0,0,0-1.615,0,1.635,1.635,0,0,0-.636.458,2.147,2.147,0,0,0-.42.772,3.869,3.869,0,0,0,0,2.153,2.158,2.158,0,0,0,.42.768,1.682,1.682,0,0,0,.636.458,2.171,2.171,0,0,0,1.615,0,1.721,1.721,0,0,0,.636-.458,2.183,2.183,0,0,0,.418-.768,3.486,3.486,0,0,0,.151-1.077" transform="translate(51.587 13.282)"/><path class="c" d="M922.36,404.212a4.36,4.36,0,0,1-.221,1.417,3.094,3.094,0,0,1-.642,1.108,2.851,2.851,0,0,1-1.034.721,3.887,3.887,0,0,1-2.792,0,2.861,2.861,0,0,1-1.034-.721,3.143,3.143,0,0,1-.642-1.108,4.678,4.678,0,0,1,0-2.83,3.137,3.137,0,0,1,.642-1.109,2.907,2.907,0,0,1,1.034-.724,3.931,3.931,0,0,1,2.792,0,2.9,2.9,0,0,1,1.034.724,3.088,3.088,0,0,1,.642,1.109A4.348,4.348,0,0,1,922.36,404.212Zm-1.278,0a3.469,3.469,0,0,0-.151-1.076,2.171,2.171,0,0,0-.418-.772,1.671,1.671,0,0,0-.636-.458,2.212,2.212,0,0,0-1.615,0,1.635,1.635,0,0,0-.636.458,2.147,2.147,0,0,0-.42.772,3.869,3.869,0,0,0,0,2.153,2.158,2.158,0,0,0,.42.768,1.682,1.682,0,0,0,.636.458,2.171,2.171,0,0,0,1.615,0,1.721,1.721,0,0,0,.636-.458,2.183,2.183,0,0,0,.418-.768A3.486,3.486,0,0,0,921.082,404.212Z" transform="translate(51.587 13.282)"/><path class="b" d="M922.264,400.792v5.717h3.16v1.037h-4.4v-6.754Z" transform="translate(54.438 13.327)"/><path class="c" d="M922.264,400.792v5.717h3.16v1.037h-4.4v-6.754Z" transform="translate(54.438 13.327)"/><path class="b" d="M926,400.792v5.717h3.16v1.037h-4.4v-6.754Z" transform="translate(56.467 13.327)"/><path class="c" d="M926,400.792v5.717h3.16v1.037h-4.4v-6.754Z" transform="translate(56.467 13.327)"/><path class="b" d="M929.736,406.51h3.321v1.035H928.5v-6.754h4.378v1.034h-3.139v1.746h2.694v1.035h-2.694Z" transform="translate(58.495 13.327)"/><path class="c" d="M929.736,406.51h3.321v1.035H928.5v-6.754h4.378v1.034h-3.139v1.746h2.694v1.035h-2.694Z" transform="translate(58.495 13.327)"/><path class="b" d="M936.741,405.01h-1.512v-1.035h2.75v3.409c-.1.037-.23.074-.386.117s-.332.074-.525.105-.393.06-.6.08-.407.031-.609.031a4.654,4.654,0,0,1-1.586-.247,3.093,3.093,0,0,1-1.132-.687,2.829,2.829,0,0,1-.675-1.059,3.883,3.883,0,0,1-.225-1.356,4.245,4.245,0,0,1,.117-1,3.519,3.519,0,0,1,.35-.883,3.449,3.449,0,0,1,.555-.735,3.4,3.4,0,0,1,.752-.56,3.739,3.739,0,0,1,.923-.356,4.535,4.535,0,0,1,1.077-.123,6.256,6.256,0,0,1,.969.073,4.2,4.2,0,0,1,.753.181v1.049a5.611,5.611,0,0,0-.795-.193,5.276,5.276,0,0,0-.81-.065,3.149,3.149,0,0,0-1.029.165,2.34,2.34,0,0,0-.83.483,2.253,2.253,0,0,0-.554.792,2.729,2.729,0,0,0-.2,1.085,2.393,2.393,0,0,0,.626,1.793,2.425,2.425,0,0,0,1.761.6,4.328,4.328,0,0,0,.44-.022,3.559,3.559,0,0,0,.4-.059Z" transform="translate(60.528 13.282)"/><path class="c" d="M936.741,405.01h-1.512v-1.035h2.75v3.409c-.1.037-.23.074-.386.117s-.332.074-.525.105-.393.06-.6.08-.407.031-.609.031a4.654,4.654,0,0,1-1.586-.247,3.093,3.093,0,0,1-1.132-.687,2.829,2.829,0,0,1-.675-1.059,3.883,3.883,0,0,1-.225-1.356,4.245,4.245,0,0,1,.117-1,3.519,3.519,0,0,1,.35-.883,3.449,3.449,0,0,1,.555-.735,3.4,3.4,0,0,1,.752-.56,3.739,3.739,0,0,1,.923-.356,4.535,4.535,0,0,1,1.077-.123,6.256,6.256,0,0,1,.969.073,4.2,4.2,0,0,1,.753.181v1.049a5.611,5.611,0,0,0-.795-.193,5.276,5.276,0,0,0-.81-.065,3.149,3.149,0,0,0-1.029.165,2.34,2.34,0,0,0-.83.483,2.253,2.253,0,0,0-.554.792,2.729,2.729,0,0,0-.2,1.085,2.393,2.393,0,0,0,.626,1.793,2.425,2.425,0,0,0,1.761.6,4.328,4.328,0,0,0,.44-.022,3.559,3.559,0,0,0,.4-.059Z" transform="translate(60.528 13.282)"/><path class="b" d="M938.312,406.51h3.321v1.035h-4.56v-6.754h4.378v1.034h-3.139v1.746h2.694v1.035h-2.694Z" transform="translate(63.153 13.327)"/><path class="c" d="M938.312,406.51h3.321v1.035h-4.56v-6.754h4.378v1.034h-3.139v1.746h2.694v1.035h-2.694Z" transform="translate(63.153 13.327)"/><path class="b" d="M856.533,389.487v2.345h7.021v6.456h2.9v-6.474l6.811.016v-2.345H857.124Z" transform="translate(19.413 7.187)"/><path class="b" d="M860.623,391.125a14.669,14.669,0,0,0,1.7-.758,9.476,9.476,0,0,0,1.5-1.032,5.031,5.031,0,0,0,.759-.79,5.328,5.328,0,0,0,.782.79,9.633,9.633,0,0,0,1.5,1.032,14.672,14.672,0,0,0,1.7.758,16.815,16.815,0,0,0,1.778.566l1.66-2.205c-.511-.116-1.122-.272-1.438-.353-.327-.1-.659-.208-.988-.326a8.72,8.72,0,0,1-1.818-.9,4.426,4.426,0,0,1-1.211-1.18,2.429,2.429,0,0,1-.41-1.117l-.014-.14v-1.3h-3.234a.232.232,0,0,0-.181.066.284.284,0,0,0-.045.133.256.256,0,0,0,.052.162.457.457,0,0,0,.062.059.956.956,0,0,1,.271.651h0v-.265h0v.637a2.443,2.443,0,0,1-.409,1.117,4.43,4.43,0,0,1-1.213,1.18,8.685,8.685,0,0,1-1.818.9c-.327.117-.661.228-.988.326-.316.082-.926.238-1.438.353l1.663,2.205a16.9,16.9,0,0,0,1.775-.566" transform="translate(19.767 4.298)"/><path class="b" d="M877.212,396.707h2.873V384.438l-1.971.006H877.05a.216.216,0,0,0-.179.066.258.258,0,0,0-.046.13.252.252,0,0,0,.114.219.966.966,0,0,1,.273.651v2.918h-2.094v2.56h2.094Z" transform="translate(29.506 4.446)"/><path class="b" d="M873.028,394.156H876v-2.3h3.65v-2.374h-11v2.374h4.375Z" transform="translate(25.996 7.187)"/><path class="b" d="M873.462,391.415c2.284,0,4.18-1.568,4.223-3.492l0-.086c0-1.955-1.9-3.548-4.225-3.548-2.284,0-4.177,1.566-4.225,3.49v.088c0,1.955,1.9,3.548,4.226,3.548m0-4.929a1.385,1.385,0,1,1-1.613,1.367,1.514,1.514,0,0,1,1.613-1.367" transform="translate(26.312 4.365)"/><path class="b" d="M872,392.016l-1.577,0v0h-1.176a.214.214,0,0,0-.179.066.274.274,0,0,0-.046.133.229.229,0,0,0,.054.159.255.255,0,0,0,.06.062.959.959,0,0,1,.273.65v.133l0,1.628v2.089h14.054v-2.494H872Z" transform="translate(26.194 8.561)"/><path class="b" d="M941.225,397.432V384.791H928.415v2.484H938.6v10.157h-1.8v-5.02H934.18v5.02H932.86v-5.02h-2.074v0h-.71a.22.22,0,0,0-.184.068.3.3,0,0,0-.045.131.266.266,0,0,0,.054.161.316.316,0,0,0,.062.059.951.951,0,0,1,.273.651v3.952h-2.708v2.484h15.31v-2.484Z" transform="translate(57.97 4.637)"/><path class="b" d="M916.46,393.772h10.985v3.558h2.627v-6.043H916.46Z" transform="translate(51.958 8.165)"/><path class="b" d="M926.239,384.513h-2.8a.205.205,0,0,0-.177.068.271.271,0,0,0-.046.13.246.246,0,0,0,.052.162.365.365,0,0,0,.062.059.961.961,0,0,1,.272.648v8.388h2.626v-2.66H929v-2.484h-2.768Z" transform="translate(55.629 4.486)"/><path class="b" d="M916.816,388.835h-1.71v-4.318l-1.48,0v0h-1.176a.216.216,0,0,0-.179.068.269.269,0,0,0-.045.13.245.245,0,0,0,.052.162.361.361,0,0,0,.06.06.939.939,0,0,1,.273.648v9.481H906.9v-7.833h4.058v-2.376h-7.2a.215.215,0,0,0-.181.066.289.289,0,0,0-.048.133.252.252,0,0,0,.054.16.44.44,0,0,0,.06.059.951.951,0,0,1,.273.651v11.516h8.691v3.571h2.494V391.4h1.71v9.613h2.469V384.518h-2.469Z" transform="translate(44.939 4.486)"/><path class="b" d="M920.68,394.487a4.5,4.5,0,0,0,4.649-4.319,3.849,3.849,0,0,0-1.2-2.629h1.626V385.38h-3.841v-1.372h-2.742a.221.221,0,0,0-.179.068.3.3,0,0,0-.046.131.26.26,0,0,0,.054.162.319.319,0,0,0,.062.059.959.959,0,0,1,.273.651v.3h-3.656v2.159h1.529a3.845,3.845,0,0,0-1.177,2.629,4.5,4.5,0,0,0,4.649,4.319m0-6.3a1.985,1.985,0,1,1-2.021,1.983,2,2,0,0,1,2.021-1.983" transform="translate(51.534 4.212)"/><path class="b" d="M891.893,393.772h10.985v3.558H905.5v-6.043H891.893Z" transform="translate(38.616 8.165)"/><path class="b" d="M901.669,384.513h-2.791a.21.21,0,0,0-.18.068.252.252,0,0,0-.046.13.255.255,0,0,0,.052.162.38.38,0,0,0,.063.059.954.954,0,0,1,.27.648v8.388h2.625v-2.66h2.768v-2.484h-2.768Z" transform="translate(42.286 4.486)"/><path class="b" d="M896.112,394.487a4.5,4.5,0,0,0,4.649-4.319,3.853,3.853,0,0,0-1.2-2.629h1.625V385.38h-3.842v-1.372H894.6a.222.222,0,0,0-.181.068.282.282,0,0,0-.046.131.25.25,0,0,0,.054.162.424.424,0,0,0,.06.059.959.959,0,0,1,.272.651v.3h-3.652v2.159h1.529a3.846,3.846,0,0,0-1.177,2.629,4.5,4.5,0,0,0,4.649,4.319m0-6.3a1.985,1.985,0,1,1-2.02,1.983,2,2,0,0,1,2.02-1.983" transform="translate(38.192 4.212)"/><path class="b" d="M888.759,396.024h-2.672v-8.79h-5.91v-2.673h8.582Z" transform="translate(32.254 4.512)"/><path class="b" d="M893.373,389.195v-3.558h0l0-1.251h-2.836a.225.225,0,0,0-.185.066.309.309,0,0,0-.045.131.243.243,0,0,0,.054.162.317.317,0,0,0,.062.059.952.952,0,0,1,.276.647v.434h0v11.359h-6.075v-6.2h-2.673v6.2h-1.776v2.489H890.7v1.359h2.674v-9.224h1.977v-2.671Z" transform="translate(32.254 4.417)"/></g></svg>