<svg xmlns="http://www.w3.org/2000/svg" xmlns:xlink="http://www.w3.org/1999/xlink" width="446.705" height="111.735" viewBox="0 0 446.705 111.735"><defs><style>.a{fill:url(#a);}.b{fill:#f6413c;}</style><linearGradient id="a" y1="0.769" x2="1" y2="0.742" gradientUnits="objectBoundingBox"><stop offset="0" stop-color="#f53d3d"/><stop offset="0.178" stop-color="#ffc011"/><stop offset="0.48" stop-color="#4dd167"/><stop offset="0.749" stop-color="#3b67e4"/><stop offset="1" stop-color="#7c37d4"/></linearGradient></defs><g transform="translate(-970 -261.74)"><path class="a" d="M15.484.343A17.694,17.694,0,0,1,8.722-.882,11.022,11.022,0,0,1,3.945-4.508,9.906,9.906,0,0,1,2.058-10.29h8.918A4.327,4.327,0,0,0,12.3-7.375a4.253,4.253,0,0,0,2.94,1,4.6,4.6,0,0,0,2.94-.858A2.868,2.868,0,0,0,19.257-9.6a2.813,2.813,0,0,0-.857-2.107,6.918,6.918,0,0,0-2.107-1.372,33.892,33.892,0,0,0-3.553-1.225A38.68,38.68,0,0,1,7.3-16.366,10.05,10.05,0,0,1,3.675-19.4a8.465,8.465,0,0,1-1.519-5.243,9.016,9.016,0,0,1,3.479-7.522A14.3,14.3,0,0,1,14.7-34.888a14.461,14.461,0,0,1,9.163,2.719A9.735,9.735,0,0,1,27.587-24.6H18.522A3.545,3.545,0,0,0,17.3-27.22a4.315,4.315,0,0,0-2.891-.956,3.6,3.6,0,0,0-2.45.809,2.916,2.916,0,0,0-.931,2.328,2.885,2.885,0,0,0,1.568,2.6,25.7,25.7,0,0,0,4.9,2.009,45.315,45.315,0,0,1,5.414,2.156,10.308,10.308,0,0,1,3.6,2.989,8,8,0,0,1,1.519,5.047A9.9,9.9,0,0,1,26.534-4.9,10.467,10.467,0,0,1,22.2-1.078,14.845,14.845,0,0,1,15.484.343Zm43.9-23.667a11.077,11.077,0,0,1-1.372,5.464A10.087,10.087,0,0,1,53.8-13.867a14.835,14.835,0,0,1-7.056,1.519H41.552V0H33.173V-34.4H46.746A15.446,15.446,0,0,1,53.7-32.977a9.766,9.766,0,0,1,4.263,3.92A11.393,11.393,0,0,1,59.388-23.324ZM46.109-19.012a5,5,0,0,0,3.577-1.127,4.2,4.2,0,0,0,1.176-3.185,4.2,4.2,0,0,0-1.176-3.185,5,5,0,0,0-3.577-1.127H41.552v8.624Zm26.019-8.673v6.958H83.349v6.468H72.128v7.546H84.819V0H63.749V-34.4h21.07v6.713ZM88.837-17.248a18.489,18.489,0,0,1,2.205-9.09,15.759,15.759,0,0,1,6.149-6.223,17.854,17.854,0,0,1,8.943-2.229,17.111,17.111,0,0,1,10.486,3.234,15.531,15.531,0,0,1,5.831,8.82h-9.212a7.44,7.44,0,0,0-2.915-3.283,8.2,8.2,0,0,0-4.287-1.127,8,8,0,0,0-6.272,2.7,10.428,10.428,0,0,0-2.4,7.2,10.428,10.428,0,0,0,2.4,7.2,8,8,0,0,0,6.272,2.7,8.2,8.2,0,0,0,4.287-1.127,7.44,7.44,0,0,0,2.915-3.283h9.212a15.418,15.418,0,0,1-5.831,8.8A17.2,17.2,0,0,1,106.134.245a17.854,17.854,0,0,1-8.943-2.23,15.8,15.8,0,0,1-6.149-6.2A18.35,18.35,0,0,1,88.837-17.248Zm57.526,10.78h10.976V0H137.984V-34.4h8.379Zm40.768-7.644a21.392,21.392,0,0,1-.147,2.45H168.021a5.7,5.7,0,0,0,1.642,3.9,5.015,5.015,0,0,0,3.552,1.347,4.4,4.4,0,0,0,4.361-2.646h8.918a12.238,12.238,0,0,1-2.475,4.851,12.389,12.389,0,0,1-4.484,3.381A14.4,14.4,0,0,1,173.509.392a14.666,14.666,0,0,1-7.154-1.715,12.2,12.2,0,0,1-4.9-4.9,15.127,15.127,0,0,1-1.764-7.448,15.3,15.3,0,0,1,1.74-7.448,12.04,12.04,0,0,1,4.876-4.9,14.769,14.769,0,0,1,7.2-1.715,14.621,14.621,0,0,1,7.056,1.666,11.962,11.962,0,0,1,4.826,4.753A14.427,14.427,0,0,1,187.131-14.112Zm-8.575-2.2a4.308,4.308,0,0,0-1.47-3.43,5.411,5.411,0,0,0-3.675-1.274,5.307,5.307,0,0,0-3.552,1.225,5.441,5.441,0,0,0-1.788,3.479ZM203.84-7.84l5.929-19.5h8.918L208.985,0H198.646l-9.7-27.342h8.967Zm44.149-6.272a21.392,21.392,0,0,1-.147,2.45H228.879a5.7,5.7,0,0,0,1.642,3.9,5.015,5.015,0,0,0,3.552,1.347,4.4,4.4,0,0,0,4.361-2.646h8.918a12.238,12.238,0,0,1-2.475,4.851,12.389,12.389,0,0,1-4.484,3.381A14.4,14.4,0,0,1,234.367.392a14.666,14.666,0,0,1-7.154-1.715,12.2,12.2,0,0,1-4.9-4.9,15.127,15.127,0,0,1-1.764-7.448,15.3,15.3,0,0,1,1.74-7.448,12.04,12.04,0,0,1,4.876-4.9,14.769,14.769,0,0,1,7.2-1.715,14.621,14.621,0,0,1,7.056,1.666,11.962,11.962,0,0,1,4.826,4.753A14.427,14.427,0,0,1,247.989-14.112Zm-8.575-2.2a4.308,4.308,0,0,0-1.47-3.43,5.411,5.411,0,0,0-3.675-1.274,5.307,5.307,0,0,0-3.552,1.225,5.441,5.441,0,0,0-1.788,3.479ZM260.778-36.26V0H252.4V-36.26Zm24.7,1.862v20.58a6.809,6.809,0,0,0,1.519,4.753A5.731,5.731,0,0,0,291.452-7.4a5.893,5.893,0,0,0,4.508-1.666,6.673,6.673,0,0,0,1.568-4.753V-34.4h8.379v20.531a14.6,14.6,0,0,1-1.96,7.791,12.551,12.551,0,0,1-5.268,4.8A16.565,16.565,0,0,1,291.305.343a16.153,16.153,0,0,1-7.277-1.593,11.872,11.872,0,0,1-5.072-4.8,15.336,15.336,0,0,1-1.862-7.816V-34.4Zm34.692,10.927a9.1,9.1,0,0,1,3.381-3.087,10.379,10.379,0,0,1,5.047-1.176,11.321,11.321,0,0,1,6.125,1.715,11.879,11.879,0,0,1,4.337,4.9,16.342,16.342,0,0,1,1.592,7.4A16.5,16.5,0,0,1,339.056-6.3a12.021,12.021,0,0,1-4.337,4.949,11.2,11.2,0,0,1-6.125,1.74,10.416,10.416,0,0,1-5.022-1.176,9.208,9.208,0,0,1-3.406-3.038V13.034h-8.379V-27.342h8.379Zm11.956,9.751a6.764,6.764,0,0,0-1.739-4.925,5.745,5.745,0,0,0-4.288-1.788,5.652,5.652,0,0,0-4.238,1.813,6.851,6.851,0,0,0-1.74,4.949,6.851,6.851,0,0,0,1.74,4.949A5.652,5.652,0,0,0,326.1-6.909a5.693,5.693,0,0,0,4.263-1.838A6.881,6.881,0,0,0,332.122-13.72Zm23.961-21.9-.98,23.471H348l-.98-23.471ZM351.673.392a5.079,5.079,0,0,1-3.6-1.3,4.208,4.208,0,0,1-1.4-3.21,4.339,4.339,0,0,1,1.4-3.283,5.024,5.024,0,0,1,3.6-1.323A4.958,4.958,0,0,1,355.226-7.4a4.339,4.339,0,0,1,1.4,3.283,4.208,4.208,0,0,1-1.4,3.21A5.012,5.012,0,0,1,351.673.392ZM41.993,27.6V62H33.614V41.371L25.921,62H19.159L11.417,41.322V62H3.038V27.6h9.9l9.653,23.814L32.144,27.6Zm10.241,4.214a5.079,5.079,0,0,1-3.6-1.3,4.208,4.208,0,0,1-1.4-3.209,4.262,4.262,0,0,1,1.4-3.258,5.079,5.079,0,0,1,3.6-1.3,5.012,5.012,0,0,1,3.553,1.3,4.262,4.262,0,0,1,1.4,3.258,4.208,4.208,0,0,1-1.4,3.209A5.012,5.012,0,0,1,52.234,31.816ZM56.4,34.658V62H48.02V34.658Zm31.85,13.23a21.39,21.39,0,0,1-.147,2.45H69.139a5.7,5.7,0,0,0,1.641,3.9,5.015,5.015,0,0,0,3.553,1.347,4.4,4.4,0,0,0,4.361-2.646h8.918a12.238,12.238,0,0,1-2.475,4.851,12.389,12.389,0,0,1-4.483,3.381,14.4,14.4,0,0,1-6.027,1.225,14.665,14.665,0,0,1-7.154-1.715,12.2,12.2,0,0,1-4.9-4.9,15.128,15.128,0,0,1-1.764-7.448,15.3,15.3,0,0,1,1.739-7.448,12.04,12.04,0,0,1,4.875-4.9,14.769,14.769,0,0,1,7.2-1.715,14.621,14.621,0,0,1,7.056,1.666,11.962,11.962,0,0,1,4.826,4.753A14.427,14.427,0,0,1,88.249,47.888Zm-8.575-2.205a4.308,4.308,0,0,0-1.47-3.43,5.411,5.411,0,0,0-3.675-1.274A5.307,5.307,0,0,0,70.976,42.2a5.441,5.441,0,0,0-1.788,3.479Zm11.319,2.6a16.341,16.341,0,0,1,1.592-7.4,11.879,11.879,0,0,1,4.337-4.9,11.321,11.321,0,0,1,6.125-1.715,10.522,10.522,0,0,1,5.072,1.176,8.663,8.663,0,0,1,3.356,3.087V34.658h8.379V62h-8.379V58.129a9.048,9.048,0,0,1-3.405,3.087A10.522,10.522,0,0,1,103,62.392a11.118,11.118,0,0,1-6.076-1.739A12.02,12.02,0,0,1,92.585,55.7,16.5,16.5,0,0,1,90.993,48.28Zm20.482.049a6.851,6.851,0,0,0-1.739-4.949,5.889,5.889,0,0,0-8.477-.024,6.763,6.763,0,0,0-1.74,4.924,6.939,6.939,0,0,0,1.74,4.973,5.834,5.834,0,0,0,8.477.025A6.851,6.851,0,0,0,111.475,48.329Zm24.843-14.063a10.522,10.522,0,0,1,5.072,1.176,8.663,8.663,0,0,1,3.357,3.087V34.658h8.379V61.951a15.378,15.378,0,0,1-1.495,6.835,11.39,11.39,0,0,1-4.557,4.876,14.741,14.741,0,0,1-7.62,1.813q-6.076,0-9.849-2.867a10.819,10.819,0,0,1-4.312-7.766h8.281a3.964,3.964,0,0,0,1.862,2.474,6.787,6.787,0,0,0,3.626.907,5.7,5.7,0,0,0,4.141-1.494q1.544-1.494,1.544-4.778V58.08a9.293,9.293,0,0,1-3.381,3.112,10.207,10.207,0,0,1-5.047,1.2,11.2,11.2,0,0,1-6.125-1.739,12.02,12.02,0,0,1-4.336-4.949,16.5,16.5,0,0,1-1.592-7.424,16.341,16.341,0,0,1,1.592-7.4,11.879,11.879,0,0,1,4.336-4.9A11.321,11.321,0,0,1,136.318,34.266Zm8.428,14.063a6.851,6.851,0,0,0-1.74-4.949,5.889,5.889,0,0,0-8.477-.024,6.763,6.763,0,0,0-1.74,4.924,6.939,6.939,0,0,0,1.74,4.973,5.834,5.834,0,0,0,8.477.025A6.851,6.851,0,0,0,144.746,48.329Zm40.229-.441a21.391,21.391,0,0,1-.147,2.45H165.865a5.7,5.7,0,0,0,1.642,3.9,5.015,5.015,0,0,0,3.552,1.347,4.4,4.4,0,0,0,4.361-2.646h8.918a12.238,12.238,0,0,1-2.475,4.851,12.389,12.389,0,0,1-4.484,3.381,14.4,14.4,0,0,1-6.027,1.225,14.666,14.666,0,0,1-7.154-1.715,12.2,12.2,0,0,1-4.9-4.9,15.127,15.127,0,0,1-1.764-7.448,15.3,15.3,0,0,1,1.74-7.448,12.04,12.04,0,0,1,4.876-4.9,14.769,14.769,0,0,1,7.2-1.715,14.621,14.621,0,0,1,7.056,1.666,11.962,11.962,0,0,1,4.826,4.753A14.427,14.427,0,0,1,184.975,47.888ZM176.4,45.683a4.308,4.308,0,0,0-1.47-3.43,5.411,5.411,0,0,0-3.675-1.274A5.307,5.307,0,0,0,167.7,42.2a5.441,5.441,0,0,0-1.788,3.479Zm49.588-7.007a11.077,11.077,0,0,1-1.372,5.464,10.087,10.087,0,0,1-4.214,3.993,14.835,14.835,0,0,1-7.056,1.519h-5.194V62h-8.379V27.6h13.573a15.446,15.446,0,0,1,6.958,1.421,9.766,9.766,0,0,1,4.263,3.92A11.393,11.393,0,0,1,225.988,38.676Zm-13.279,4.312a5,5,0,0,0,3.577-1.127,4.2,4.2,0,0,0,1.176-3.185,4.2,4.2,0,0,0-1.176-3.185,5,5,0,0,0-3.577-1.127h-4.557v8.624Zm30.086,19.4a15.092,15.092,0,0,1-7.228-1.715,12.558,12.558,0,0,1-5.047-4.9,14.642,14.642,0,0,1-1.838-7.448,14.524,14.524,0,0,1,1.862-7.424,12.634,12.634,0,0,1,5.1-4.924,16.19,16.19,0,0,1,14.5,0,12.635,12.635,0,0,1,5.1,4.924,14.524,14.524,0,0,1,1.862,7.424,14.376,14.376,0,0,1-1.886,7.424,12.757,12.757,0,0,1-5.145,4.924A15.381,15.381,0,0,1,242.8,62.392Zm0-7.252a5.459,5.459,0,0,0,4.091-1.764,7.008,7.008,0,0,0,1.691-5.047,7.139,7.139,0,0,0-1.642-5.047,5.569,5.569,0,0,0-8.109-.024,7.191,7.191,0,0,0-1.617,5.071,7.28,7.28,0,0,0,1.592,5.047A5.154,5.154,0,0,0,242.8,55.14Zm22.981-23.324a5.079,5.079,0,0,1-3.6-1.3,4.208,4.208,0,0,1-1.4-3.209,4.262,4.262,0,0,1,1.4-3.258,5.079,5.079,0,0,1,3.6-1.3,5.012,5.012,0,0,1,3.552,1.3,4.262,4.262,0,0,1,1.4,3.258,4.208,4.208,0,0,1-1.4,3.209A5.012,5.012,0,0,1,265.776,31.816Zm4.165,2.842V62h-8.379V34.658Zm22.736-.294a9.923,9.923,0,0,1,7.669,3.111q2.866,3.112,2.866,8.551V62h-8.33V47.153a6,6,0,0,0-1.421-4.263,5.568,5.568,0,0,0-7.644,0,6,6,0,0,0-1.421,4.263V62h-8.379V34.658H284.4v3.626a8.84,8.84,0,0,1,3.43-2.866A10.9,10.9,0,0,1,292.677,34.364ZM324.282,54.9V62h-4.263a10.435,10.435,0,0,1-7.105-2.229q-2.548-2.229-2.548-7.277V41.616h-3.332V34.658h3.332V27.994h8.379v6.664h5.488v6.958h-5.488V52.592a2.3,2.3,0,0,0,.588,1.764,2.87,2.87,0,0,0,1.96.539ZM347.557,27.6v20.58a6.809,6.809,0,0,0,1.519,4.753,5.731,5.731,0,0,0,4.459,1.666,5.892,5.892,0,0,0,4.508-1.666,6.673,6.673,0,0,0,1.568-4.753V27.6h8.379V48.133a14.6,14.6,0,0,1-1.96,7.791,12.551,12.551,0,0,1-5.268,4.8,16.565,16.565,0,0,1-7.374,1.617,16.153,16.153,0,0,1-7.277-1.592,11.872,11.872,0,0,1-5.072-4.8,15.336,15.336,0,0,1-1.862-7.816V27.6Zm34.692,10.927a9.1,9.1,0,0,1,3.381-3.087,10.379,10.379,0,0,1,5.047-1.176,11.321,11.321,0,0,1,6.125,1.715,11.879,11.879,0,0,1,4.337,4.9,16.342,16.342,0,0,1,1.592,7.4,16.5,16.5,0,0,1-1.592,7.424,12.021,12.021,0,0,1-4.337,4.949,11.2,11.2,0,0,1-6.125,1.739,10.416,10.416,0,0,1-5.022-1.176,9.208,9.208,0,0,1-3.406-3.038V75.034H373.87V34.658h8.379Zm11.956,9.751a6.764,6.764,0,0,0-1.739-4.924,5.745,5.745,0,0,0-4.288-1.788,5.652,5.652,0,0,0-4.238,1.813,6.851,6.851,0,0,0-1.74,4.949,6.851,6.851,0,0,0,1.74,4.949,5.862,5.862,0,0,0,8.5-.025A6.881,6.881,0,0,0,394.205,48.28Zm23.961-21.9-.98,23.471h-7.105l-.98-23.471Zm-4.41,36.015a5.079,5.079,0,0,1-3.6-1.3,4.208,4.208,0,0,1-1.4-3.209,4.339,4.339,0,0,1,1.4-3.283,5.024,5.024,0,0,1,3.6-1.323,4.958,4.958,0,0,1,3.552,1.323,4.339,4.339,0,0,1,1.4,3.283,4.208,4.208,0,0,1-1.4,3.209A5.012,5.012,0,0,1,413.756,62.392Z" transform="translate(998 298)"/><rect class="b" width="7" height="98" transform="translate(970 264)"/></g></svg>